<svg width="64" height="50" viewBox="0 0 64 50" fill="none" xmlns="http://www.w3.org/2000/svg">
<g clip-path="url(#clip0_502_18338)">
<path d="M0 4.03702V15.563C0 19.0735 4.27745 20.9457 6.89145 18.4884L19.3674 6.9624C22.1002 4.44657 20.3179 0 16.5751 0H4.09923C1.84168 0 0 1.81373 0 4.03702Z" fill="#1A3453"/>
<path d="M59.0526 -1.52588e-05H46.5767C42.8933 -1.52588e-05 41.0516 4.44656 43.7845 6.96238L56.2604 18.4884C58.8744 20.8872 63.1518 19.0734 63.1518 15.563V4.03701C63.1518 1.81372 61.3101 -1.52588e-05 59.0526 -1.52588e-05Z" fill="#1A3453"/>
<path d="M34.3978 28.1421L56.2604 48.3857C58.8744 50.7845 63.1518 48.9708 63.1518 45.4603V33.8173C63.1518 32.7057 62.6766 31.6526 61.8448 30.892L34.3978 5.44118C32.7938 3.97849 30.358 3.97849 28.754 5.44118L1.307 30.892C0.475273 31.6526 0 32.7057 0 33.8173V45.4603C0 48.9708 4.27745 50.843 6.89145 48.3857L28.754 28.1421C30.358 26.6794 32.7938 26.6794 34.3978 28.1421Z" fill="#1A3453"/>
</g>
<defs>
<clipPath id="clip0_502_18338">
<rect width="63.1518" height="49.4974" fill="white"/>
</clipPath>
</defs>
</svg>
