<svg width="297" height="29" viewBox="0 0 297 29" fill="none" xmlns="http://www.w3.org/2000/svg">
<path d="M279.042 18.5622C278.635 18.5804 278.224 18.5929 277.826 18.6201C277.567 18.6372 277.456 18.5872 277.283 18.561C277.226 18.5519 277.164 18.5338 277.111 18.536C276.708 18.5542 276.305 18.5747 275.903 18.5951C275.78 18.6395 275.701 18.6986 275.512 18.7202C275.328 18.7406 275.11 18.7406 274.904 18.7509C274.633 18.7634 274.362 18.7759 274.091 18.7873C273.955 18.7929 273.844 18.8145 273.799 18.8555C273.791 18.8623 273.881 18.8793 273.931 18.8896C274.095 18.9237 274.255 18.9623 274.436 18.9885C274.608 19.0135 274.822 18.9725 275.007 19.0044C275.422 19.076 275.426 19.0749 275.743 19.0612C276.014 19.0487 276.285 19.0351 276.556 19.026C276.61 19.0237 276.671 19.0408 276.729 19.0498C276.901 19.0749 277.012 19.1317 277.267 19.1101C277.46 19.093 277.674 19.0896 277.875 19.0805C278.044 19.1135 278.2 19.151 278.38 19.1772C278.549 19.2022 278.598 19.2215 278.508 19.2545C278.426 19.2852 278.311 19.2977 278.159 19.2999C278.023 19.3011 277.887 19.3113 277.752 19.317C277.682 19.3204 277.616 19.3227 277.55 19.3261C277.292 19.3386 277.292 19.3386 276.819 19.2658C276.634 19.2374 276.425 19.2772 276.248 19.2499C276.129 19.2317 276.026 19.2045 275.911 19.1851C275.862 19.1772 275.784 19.176 275.722 19.1783C275.517 19.1863 275.311 19.1919 275.114 19.2067C274.974 19.217 274.892 19.2488 274.908 19.2806C274.913 19.2931 275.011 19.3113 275.069 19.3124C275.2 19.3147 275.34 19.2988 275.467 19.3068C275.59 19.3147 275.718 19.3375 275.808 19.3625C275.993 19.4148 276.203 19.3681 276.379 19.3818C276.564 19.3966 276.716 19.442 276.893 19.4693C276.938 19.4761 277.024 19.4648 277.094 19.4614C277.296 19.4534 277.497 19.4466 277.698 19.4386C277.867 19.4716 278.048 19.5012 278.2 19.5387C278.475 19.6069 278.771 19.633 279.128 19.6C279.33 19.5819 279.527 19.5887 279.687 19.633C279.851 19.6785 280.04 19.6739 280.25 19.6648C280.443 19.6558 280.64 19.6307 280.838 19.6626C281.265 19.733 281.269 19.7365 281.774 19.7092C281.926 19.7012 282.041 19.699 282.156 19.7251C282.263 19.749 282.378 19.7694 282.489 19.7922C282.691 19.7842 282.896 19.7763 283.097 19.7672C283.356 19.7547 283.5 19.7706 283.562 19.8342C283.599 19.8729 283.615 19.9081 283.706 19.9343C283.812 19.9661 283.927 19.9649 284.084 19.9559C284.231 19.9479 284.338 19.9354 284.4 19.8945C284.425 19.8774 284.474 19.8615 284.519 19.8479C284.556 19.8376 284.614 19.8217 284.646 19.824C284.708 19.8285 284.79 19.841 284.811 19.8558C285.012 19.9934 285.012 19.9945 285.218 20.0343C285.444 20.0786 285.678 20.1184 285.883 20.1684C286.068 20.2128 286.253 20.1934 286.454 20.1934C286.606 20.1934 286.705 20.223 286.693 20.2526C286.684 20.2696 286.627 20.2946 286.578 20.2969C286.175 20.3196 285.768 20.3389 285.361 20.3549C285.312 20.3571 285.251 20.3367 285.193 20.3264C285.078 20.306 284.975 20.2741 284.852 20.2673C284.729 20.2605 284.585 20.2776 284.449 20.2832C284.314 20.2889 284.17 20.3037 284.047 20.2946C283.923 20.2855 283.825 20.2526 283.71 20.231C283.656 20.2207 283.582 20.206 283.537 20.2094C283.237 20.2366 283.015 20.1991 282.802 20.1491C282.756 20.1389 282.678 20.1321 282.621 20.1343C282.144 20.1537 281.672 20.1764 281.195 20.198C281.002 20.2071 280.846 20.1673 280.805 20.1002C280.784 20.0627 280.743 20.0252 280.743 19.9877C280.743 19.9195 280.517 19.882 280.353 19.8899C280.082 19.9013 279.806 19.9104 279.539 19.9274C279.321 19.9411 279.136 19.9274 278.989 19.8865C278.816 19.8399 278.619 19.849 278.422 19.8615C278.274 19.8706 278.233 19.9081 278.241 20.0025C278.249 20.0786 278.179 20.1025 277.912 20.115C277.575 20.1309 277.234 20.1468 276.893 20.1593C276.84 20.1616 276.778 20.1423 276.725 20.1321C276.61 20.1116 276.507 20.0786 276.384 20.0718C276.26 20.0638 276.116 20.0809 275.981 20.0877C275.845 20.0934 275.701 20.1093 275.578 20.1014C275.455 20.0934 275.352 20.0593 275.241 20.0377C275.188 20.0275 275.122 20.0127 275.069 20.015C274.797 20.0241 274.526 20.0377 274.255 20.0502C273.951 20.0639 273.951 20.0639 273.52 19.9934C273.322 19.9615 273.125 19.9866 272.932 19.9957C272.727 20.0047 272.533 20.0093 272.373 19.9638C272.266 19.9343 272.147 19.9161 272.02 19.9218C271.679 19.9354 271.342 19.9525 271.001 19.9661C270.943 19.9684 270.865 19.9627 270.82 19.9525C270.602 19.9047 270.389 19.8672 270.085 19.8911C269.822 19.9115 269.538 19.9127 269.275 19.932C269.131 19.9422 269.066 19.9786 269.094 20.007C269.111 20.0218 269.197 20.0388 269.255 20.0388C269.386 20.04 269.53 20.0229 269.653 20.0297C269.908 20.0434 270.035 20.1389 270.368 20.1127C270.565 20.0968 270.771 20.0911 270.976 20.0866C271.03 20.0854 271.087 20.107 271.145 20.1184C271.309 20.1491 271.453 20.1889 271.691 20.1684C271.888 20.1525 272.098 20.148 272.299 20.1389C272.62 20.1241 272.62 20.1252 273.035 20.1946C273.232 20.2276 273.429 20.2014 273.622 20.1934C273.766 20.1878 273.902 20.1764 274.017 20.1923C274.193 20.2162 274.321 20.2707 274.539 20.2673C274.744 20.2639 274.945 20.248 275.151 20.2423C275.278 20.2389 275.397 20.2571 275.5 20.2878C275.607 20.3185 275.722 20.3321 275.862 20.3253C276.063 20.3162 276.268 20.3048 276.474 20.2992C276.531 20.298 276.597 20.3083 276.651 20.3174C276.766 20.3378 276.877 20.3617 276.987 20.3833C277.189 20.3765 277.394 20.3742 277.592 20.3605C277.744 20.3503 277.85 20.3549 277.974 20.3776C278.13 20.4083 278.257 20.4629 278.512 20.4367C278.639 20.4242 278.787 20.4276 278.915 20.4163C279.071 20.4015 279.178 20.4072 279.289 20.4413C279.498 20.5061 279.761 20.5072 280.032 20.4822C280.328 20.4549 280.55 20.4867 280.772 20.5368C281.006 20.589 281.006 20.5879 281.187 20.7141C281.24 20.7505 281.392 20.7675 281.52 20.7607C281.733 20.7493 281.918 20.755 282.074 20.7982C282.239 20.8448 282.436 20.8391 282.637 20.8266C282.904 20.8096 283.171 20.7948 283.389 20.8607C283.496 20.8926 283.611 20.9005 283.755 20.8926C284.162 20.8721 284.573 20.8596 284.971 20.8346C285.214 20.8187 285.353 20.855 285.518 20.8857C285.739 20.9278 285.982 20.9653 285.982 21.0551C285.982 21.0699 286.039 21.0869 286.089 21.0983C286.196 21.1222 286.311 21.1426 286.422 21.1654C286.586 21.1995 286.746 21.2279 286.972 21.2097C287.169 21.1949 287.379 21.1904 287.58 21.1802C287.782 21.1699 287.966 21.1642 288.147 21.2074C288.357 21.2563 288.579 21.3029 288.817 21.3393C288.985 21.3655 289.207 21.3211 289.388 21.3564C289.499 21.378 289.606 21.403 289.725 21.4212C289.774 21.4291 289.852 21.4234 289.918 21.4212C290.054 21.4166 290.194 21.4132 290.325 21.4018C290.477 21.3893 290.592 21.3916 290.707 21.4178C290.814 21.4416 290.921 21.4746 291.044 21.4814C291.229 21.4916 291.434 21.4462 291.619 21.4985C291.714 21.5246 291.833 21.5496 291.956 21.5576C292.079 21.5655 292.223 21.5485 292.355 21.5496C292.412 21.5496 292.482 21.5678 292.515 21.5826C292.535 21.5905 292.507 21.6121 292.478 21.6235C292.441 21.6371 292.388 21.6553 292.334 21.6576C291.927 21.6781 291.521 21.6951 291.114 21.7145C290.871 21.7258 290.871 21.7258 290.382 21.6542C290.267 21.6371 290.14 21.6406 289.996 21.6485C289.803 21.6587 289.606 21.6781 289.405 21.6576C289.142 21.5803 288.817 21.5735 288.472 21.603C288.328 21.6155 288.197 21.6155 288.09 21.5939C287.864 21.5507 287.625 21.511 287.424 21.4598C287.268 21.42 287.194 21.4166 287.128 21.4712C287.108 21.4882 287.087 21.5064 287.091 21.5223C287.116 21.5792 287.161 21.6349 287.186 21.6917C287.194 21.7076 287.161 21.7258 287.141 21.7429C287.075 21.7906 286.989 21.7872 286.845 21.7474C286.701 21.7076 286.528 21.6815 286.298 21.6997C286.101 21.7156 285.887 21.7133 285.69 21.7304C285.386 21.7554 285.172 21.719 284.955 21.6701C284.909 21.6599 284.831 21.6542 284.774 21.6565C284.162 21.6826 283.554 21.7122 282.941 21.7383C282.81 21.744 282.691 21.727 282.588 21.6963C282.481 21.6656 282.362 21.6497 282.23 21.6553C281.688 21.6792 281.146 21.7008 280.603 21.7304C280.381 21.7429 280.205 21.7281 280.053 21.6883C279.938 21.6587 279.831 21.6496 279.687 21.6531C279.531 21.6565 279.42 21.6678 279.342 21.7008C279.268 21.7326 279.321 21.752 279.486 21.777C279.662 21.8042 279.827 21.8395 279.995 21.8713C280.131 21.8668 280.266 21.8577 280.398 21.8588C280.455 21.8588 280.509 21.8793 280.566 21.8906C280.731 21.9236 280.883 21.9566 281.117 21.9384C281.314 21.9225 281.524 21.9191 281.725 21.9088C282.004 21.8963 282.004 21.8963 282.456 21.9679C282.571 21.9861 282.695 21.985 282.843 21.9748C282.97 21.9668 283.102 21.9827 283.192 22.0168C283.229 22.0305 283.217 22.0532 283.139 22.1282C283.139 22.1839 283.225 22.1589 283.254 22.1225C283.299 22.0703 283.212 22.0532 283.048 22.0816C282.933 22.1021 282.876 22.1316 282.904 22.1555C282.921 22.168 282.999 22.1839 283.139 22.1282C283.5 22.06 283.775 22.0521 284.038 22.0339C284.195 22.0236 284.293 22.0282 284.416 22.0577C284.564 22.093 284.712 22.1305 284.955 22.1123C285.218 22.0919 285.497 22.0896 285.764 22.0725C286.011 22.0566 286.138 22.1066 286.294 22.1362C286.483 22.1714 286.693 22.1316 286.865 22.1521C287.046 22.1726 287.173 22.2226 287.383 22.2317C287.687 22.201 287.88 22.2578 288.11 22.2953C288.291 22.3238 288.505 22.2987 288.698 22.2862C288.916 22.2726 289.096 22.2851 289.248 22.326C289.421 22.3726 289.614 22.3624 289.811 22.3522C290.272 22.3294 290.288 22.326 290.555 22.3885C290.748 22.434 290.933 22.4136 291.126 22.4079C291.295 22.4386 291.459 22.4715 291.636 22.4988C291.681 22.5056 291.767 22.4943 291.837 22.4909C292.038 22.4818 292.244 22.4727 292.445 22.4636C292.581 22.4579 292.725 22.4408 292.848 22.4477C292.971 22.4556 293.074 22.4886 293.185 22.5102C293.296 22.5318 293.411 22.5534 293.518 22.5761C293.682 22.6102 293.838 22.6386 294.068 22.6216C294.265 22.6068 294.471 22.6023 294.676 22.592C294.935 22.5795 294.927 22.5829 295.408 22.6511C295.666 22.6887 295.934 22.6432 296.196 22.6386C296.328 22.6364 296.455 22.6489 296.546 22.6818C296.583 22.6955 296.57 22.7182 296.583 22.7375C295.905 22.7682 295.223 22.7944 294.553 22.8319C294.294 22.8467 294.159 22.8057 294.019 22.7716C293.789 22.7171 293.485 22.7966 293.267 22.7262C293.135 22.6841 292.946 22.6602 292.72 22.6807C292.589 22.6921 292.449 22.6909 292.314 22.7012C291.968 22.7262 291.652 22.7273 291.377 22.6489C291.282 22.6216 291.147 22.6068 291.048 22.5807C290.933 22.5523 290.822 22.5363 290.687 22.542C290.074 22.5693 289.466 22.5966 288.858 22.6261C288.805 22.6284 288.751 22.6455 288.706 22.658C288.591 22.6898 288.628 22.7148 288.813 22.7353C288.874 22.7421 288.924 22.7569 288.981 22.7682C289.092 22.7898 289.195 22.8239 289.318 22.8319C289.442 22.8399 289.585 22.8239 289.721 22.8183C289.857 22.8126 290 22.7955 290.124 22.8023C290.247 22.8103 290.35 22.8433 290.465 22.8637C290.518 22.874 290.584 22.891 290.637 22.8899C290.908 22.883 291.176 22.8705 291.447 22.8603C291.615 22.891 291.759 22.9353 291.96 22.9456C292.088 22.9524 292.223 22.9399 292.355 22.9422C292.412 22.9433 292.486 22.9603 292.515 22.9751C292.531 22.9842 292.478 23.007 292.437 23.0183C292.281 23.0615 292.067 23.0536 291.874 23.0672C291.664 23.082 291.475 23.0774 291.315 23.0331C291.208 23.0035 291.089 22.9876 290.958 22.9933C290.617 23.0081 290.28 23.0252 289.939 23.0377C289.881 23.0399 289.811 23.0297 289.758 23.0217C289.326 22.9524 289.326 22.9501 289.022 22.9649C288.575 22.9865 288.575 22.9865 288.275 22.9262C288.217 22.9149 288.155 22.8933 288.106 22.8944C287.63 22.9126 287.157 22.9308 286.684 22.9569C286.528 22.9649 286.422 22.9649 286.306 22.9353C286.208 22.9103 286.093 22.8819 285.97 22.8751C285.842 22.8683 285.702 22.8853 285.567 22.891C285.431 22.8967 285.287 22.9115 285.168 22.9024C285.045 22.8933 284.938 22.8615 284.831 22.8387C284.72 22.8148 284.601 22.816 284.449 22.8251C283.981 22.8512 283.977 22.8478 283.512 22.7773C283.459 22.7694 283.389 22.7603 283.332 22.7626C282.991 22.7762 282.654 22.7932 282.313 22.8069C282.181 22.8126 282.054 22.7978 281.963 22.7648C281.926 22.7512 281.939 22.7284 281.914 22.6841C281.885 22.6739 281.918 22.6921 281.926 22.7091C281.988 22.7069 282.062 22.7091 282.107 22.7C282.222 22.6784 282.28 22.65 282.251 22.6261C282.235 22.6136 282.157 22.5977 282.107 22.5977C282.017 22.5977 281.939 22.6227 281.914 22.6841C281.655 22.7216 281.38 22.7296 281.113 22.7478C280.957 22.7591 280.858 22.7535 280.735 22.7239C280.587 22.6875 280.435 22.6523 280.192 22.6705C279.929 22.6909 279.65 22.6943 279.379 22.7103C279.067 22.7285 278.931 22.6261 278.668 22.6284C278.397 22.6307 278.126 22.65 277.855 22.6637C277.616 22.675 277.616 22.675 277.123 22.6011C276.942 22.5738 276.729 22.6136 276.552 22.5852C276.433 22.567 276.33 22.5397 276.215 22.5204C276.166 22.5125 276.088 22.5125 276.026 22.5147C275.685 22.5284 275.34 22.5375 275.011 22.5625C274.637 22.592 274.354 22.5602 274.087 22.4931C273.75 22.5056 273.409 22.5125 273.076 22.5341C272.834 22.55 272.694 22.5125 272.529 22.4818C272.472 22.4715 272.423 22.4545 272.361 22.4499C272.299 22.4454 272.225 22.4545 272.16 22.4579C271.888 22.4704 271.609 22.4761 271.346 22.4966C271.021 22.5227 270.898 22.4295 270.648 22.4181C270.479 22.4738 270.389 22.55 270.056 22.5557C269.785 22.5602 269.514 22.5784 269.242 22.5909C269.107 22.5966 268.971 22.6034 268.836 22.6091C268.618 22.6193 268.515 22.6636 268.56 22.7319C268.585 22.7694 268.605 22.8069 268.626 22.8444C268.667 22.9115 268.564 22.9683 268.392 22.9763C267.915 22.9979 267.443 23.0206 266.966 23.0399C266.839 23.0456 266.715 23.0263 266.613 22.9956C266.506 22.9649 266.387 22.9513 266.255 22.9569C265.779 22.9785 265.306 23.0013 264.829 23.0206C264.776 23.0229 264.706 23.0115 264.653 23.0024C264.538 22.9819 264.427 22.9581 264.316 22.9365C264.045 22.9467 263.778 22.9535 263.51 22.9672C263.079 22.9876 263.079 22.9888 262.763 22.9262C262.705 22.9149 262.648 22.8933 262.594 22.8944C262.389 22.899 262.187 22.9103 261.982 22.9206C261.378 22.9501 261.378 22.9501 261.201 22.916C261.041 22.8842 260.897 22.8455 260.655 22.8637C260.392 22.8842 260.112 22.891 259.841 22.9024C259.64 22.9103 259.439 22.9194 259.237 22.9217C259.184 22.9228 259.126 22.9012 259.069 22.8899C258.904 22.8546 258.744 22.8262 258.518 22.8455C258.387 22.8569 258.247 22.8592 258.111 22.8649C257.758 22.8808 257.758 22.8808 257.179 22.8126C257.121 22.8057 257.051 22.7978 256.994 22.8012C256.517 22.8217 256.045 22.8444 255.568 22.8637C255.51 22.866 255.441 22.8592 255.383 22.8535C254.734 22.7876 254.734 22.7876 254.044 22.8194C253.781 22.8308 253.772 22.8353 253.497 22.7751C253.374 22.7489 253.271 22.7364 253.127 22.7444C252.585 22.7716 252.038 22.7898 251.5 22.8217C251.258 22.8353 251.118 22.8012 250.954 22.7705C250.896 22.7603 250.835 22.7375 250.785 22.7387C250.243 22.7603 249.7 22.7864 249.158 22.808C249.109 22.8103 249.047 22.7876 248.99 22.7773C248.879 22.7569 248.772 22.7262 248.649 22.7194C248.521 22.7125 248.382 22.7296 248.242 22.7353C247.901 22.75 247.901 22.7489 247.506 22.6818C247.453 22.6728 247.383 22.6602 247.33 22.6625C246.787 22.6853 246.241 22.7046 245.703 22.7375C245.394 22.7557 245.185 22.7228 244.967 22.675C244.922 22.6648 244.844 22.6602 244.786 22.6625C244.174 22.6887 243.566 22.7182 242.954 22.7444C242.826 22.75 242.703 22.7307 242.6 22.7012C242.436 22.6546 242.243 22.6602 242.037 22.6705C241.565 22.6943 241.561 22.6932 241.281 22.6386C241.224 22.6273 241.175 22.6125 241.113 22.6068C241.055 22.6011 240.982 22.6045 240.92 22.6068C240.649 22.6182 240.378 22.6307 240.106 22.6432C239.835 22.6557 239.56 22.6625 239.293 22.6818C238.964 22.7057 238.808 22.6318 238.578 22.5977C238.241 22.6125 237.896 22.6216 237.563 22.6455C237.308 22.6636 237.189 22.6136 237.021 22.5875C236.963 22.5784 236.901 22.5591 236.848 22.5613C236.236 22.5863 235.623 22.6136 235.015 22.6443C234.867 22.6511 234.769 22.642 234.646 22.6148C234.37 22.5534 234.358 22.5557 233.898 22.5784C233.696 22.5886 233.503 22.5977 233.331 22.5511C233.179 22.5091 232.994 22.4988 232.776 22.5125C232.509 22.5295 232.234 22.5386 231.963 22.55C231.691 22.5625 231.42 22.5795 231.149 22.5852C230.931 22.5909 230.8 22.5375 230.627 22.5102C230.574 22.5022 230.5 22.5011 230.438 22.5034C230.167 22.5136 229.888 22.5215 229.625 22.5409C229.304 22.5647 229.127 22.5022 228.901 22.4659C228.852 22.4579 228.77 22.4624 228.708 22.4659C228.232 22.4863 227.759 22.509 227.282 22.5306C227.114 22.5 226.941 22.4704 226.773 22.4397C226.502 22.4511 226.231 22.4636 225.959 22.4749C225.754 22.484 225.544 22.4875 225.351 22.5045C225.101 22.5272 224.977 22.4738 224.809 22.4477C224.751 22.4386 224.69 22.4192 224.636 22.4215C224.295 22.434 223.954 22.4477 223.617 22.467C223.297 22.4863 223.169 22.384 222.907 22.3851C222.635 22.3863 222.356 22.4011 222.093 22.4215C221.789 22.4454 221.575 22.409 221.357 22.3601C221.312 22.3499 221.234 22.3442 221.177 22.3465C220.836 22.3601 220.499 22.3772 220.158 22.3908C220.1 22.3931 220.03 22.3874 219.973 22.3806C219.324 22.3135 219.324 22.3124 219.04 22.326C218.839 22.3351 218.633 22.3465 218.428 22.3522C218.37 22.3545 218.3 22.3442 218.247 22.3351C217.82 22.2658 217.82 22.2646 217.512 22.2783C217.24 22.2908 216.969 22.3033 216.698 22.3158C216.53 22.2851 216.357 22.2556 216.188 22.2249C215.852 22.2396 215.506 22.251 215.174 22.2715C215.017 22.2806 214.915 22.2771 214.796 22.2487C214.648 22.2146 214.5 22.1748 214.253 22.1942C213.99 22.2146 213.711 22.2169 213.444 22.2339C213.123 22.2544 212.992 22.151 212.733 22.1521C212.462 22.1532 212.182 22.168 211.919 22.1885C211.615 22.2123 211.402 22.176 211.184 22.1271C211.139 22.1169 211.061 22.1112 211.003 22.1135C210.255 22.1464 209.512 22.1794 208.764 22.2146C208.304 22.2362 208.304 22.2374 207.428 22.1748C207.367 22.1703 207.301 22.1657 207.239 22.168C206.968 22.1783 206.689 22.1862 206.426 22.2055C206.105 22.2294 205.929 22.168 205.703 22.1305C205.653 22.1225 205.575 22.1271 205.51 22.1294C205.304 22.1373 205.103 22.1476 204.897 22.1567C204.626 22.1692 204.355 22.1817 204.084 22.1942C203.915 22.1646 203.743 22.1339 203.574 22.1044C203.237 22.1191 202.892 22.1271 202.559 22.151C202.305 22.1692 202.185 22.1214 202.017 22.0941C201.959 22.085 201.898 22.0657 201.844 22.0668C201.232 22.0919 200.62 22.118 200.012 22.1498C199.761 22.1635 199.646 22.1123 199.478 22.0862C199.42 22.0782 199.354 22.0634 199.301 22.0657C198.894 22.0816 198.488 22.1009 198.081 22.1203C197.851 22.1316 197.851 22.1316 197.349 22.0612C197.292 22.0532 197.226 22.0452 197.169 22.0475C195.878 22.1044 194.592 22.1646 193.302 22.2214C193.171 22.2271 193.051 22.2101 192.949 22.1794C192.842 22.1487 192.723 22.1328 192.591 22.1385C192.049 22.1623 191.502 22.1839 190.964 22.2135C190.742 22.226 190.566 22.2112 190.413 22.1714C190.298 22.1419 190.192 22.1305 190.048 22.1373C189.777 22.151 189.505 22.1623 189.234 22.1748C188.963 22.1873 188.692 22.1999 188.421 22.2124C188.15 22.2249 187.874 22.2317 187.607 22.251C187.278 22.2749 187.118 22.2044 186.892 22.1692C186.485 22.1862 186.079 22.2033 185.676 22.2214C185.134 22.2453 184.591 22.2715 184.049 22.2942C184 22.2965 183.938 22.276 183.88 22.2658C183.712 22.2374 183.589 22.1976 183.338 22.2101C182.122 22.2703 180.897 22.3215 179.677 22.3806C179.422 22.3931 179.311 22.3442 179.139 22.3181C179.081 22.3101 179.016 22.2942 178.962 22.2965C178.284 22.3249 177.606 22.3567 176.928 22.3874C176.653 22.3999 176.653 22.3999 176.193 22.3294C176.139 22.3215 176.069 22.3112 176.012 22.3135C175.128 22.3522 174.249 22.3931 173.366 22.4329C173.234 22.4386 173.115 22.4227 173.008 22.392C172.906 22.3613 172.782 22.3442 172.655 22.3499C171.841 22.3863 171.024 22.4215 170.214 22.4613C169.997 22.4727 169.816 22.4624 169.66 22.4215C169.549 22.392 169.438 22.3795 169.298 22.3863C168.078 22.442 166.857 22.4954 165.637 22.5545C165.403 22.5659 165.238 22.5443 165.091 22.5068C164.971 22.4772 164.869 22.4715 164.721 22.4761C164.565 22.4818 164.47 22.4943 164.384 22.5284C164.273 22.5727 164.203 22.6284 163.94 22.6318C163.669 22.6352 163.394 22.6489 163.126 22.6682C162.872 22.6875 162.753 22.6364 162.592 22.6057C162.473 22.5841 162.362 22.5807 162.21 22.5909C162.071 22.6 161.984 22.6193 161.902 22.6557C161.721 22.733 161.705 22.733 161.483 22.6841C161.364 22.658 161.257 22.6375 161.125 22.642C160.583 22.6648 160.041 22.6898 159.498 22.7159C159.186 22.7307 159.182 22.733 158.948 22.6762C158.833 22.6477 158.722 22.6341 158.586 22.6409C157.095 22.7091 155.603 22.7751 154.112 22.8467C153.882 22.858 153.725 22.8342 153.561 22.8001C153.508 22.7887 153.454 22.7728 153.393 22.7682C153.331 22.7637 153.261 22.7682 153.195 22.7705C152.111 22.8194 151.022 22.866 149.941 22.9206C149.695 22.9331 149.563 22.8967 149.395 22.8671C149.337 22.8569 149.288 22.841 149.226 22.8364C149.164 22.833 149.091 22.841 149.025 22.8444C147.94 22.8933 146.851 22.9399 145.771 22.9945C145.512 23.007 145.401 22.9592 145.232 22.9342C145.175 22.9251 145.113 22.9081 145.06 22.9103C144.719 22.9228 144.382 22.9399 144.041 22.9547C143.227 22.9922 142.414 23.0274 141.6 23.0661C141.288 23.0809 141.152 22.9797 140.889 22.9842C140.548 22.9899 140.211 23.0126 139.87 23.0286C139.599 23.0411 139.328 23.0524 139.057 23.0661C138.79 23.0786 138.79 23.0786 138.124 23.0126C138.066 23.007 137.997 22.999 137.939 23.0013C136.99 23.0433 136.037 23.0854 135.092 23.1309C134.874 23.1411 134.693 23.1354 134.537 23.0934C134.426 23.0638 134.311 23.049 134.175 23.0558C132.75 23.1206 131.328 23.1854 129.902 23.2491C129.849 23.2514 129.779 23.24 129.725 23.2309C129.61 23.2104 129.499 23.1866 129.388 23.165C129.306 23.1911 129.2 23.215 129.146 23.2445C129.072 23.2843 128.974 23.2957 128.817 23.3025C128.661 23.3093 128.563 23.3071 128.439 23.2775C128.291 23.2411 128.139 23.2127 127.897 23.2241C126.405 23.2957 124.914 23.3605 123.422 23.431C123.176 23.4423 123.061 23.3923 122.888 23.3662C122.831 23.3582 122.765 23.3457 122.712 23.348C122.099 23.3741 121.491 23.4026 120.879 23.4298C119.182 23.5071 117.485 23.581 115.792 23.6629C115.484 23.6777 115.275 23.6492 115.057 23.6004C115.012 23.5901 114.934 23.5844 114.876 23.5867C112.501 23.6936 110.126 23.8016 107.755 23.9096C107.628 23.9152 107.505 23.897 107.402 23.8675C107.295 23.8368 107.176 23.822 107.044 23.8277C105.96 23.8766 104.875 23.9255 103.79 23.9755C103.519 23.988 103.515 23.9891 103.236 23.9346C103.178 23.9232 103.116 23.9016 103.071 23.9039C102.977 23.9096 102.886 23.938 102.821 23.9766C102.755 24.0175 102.652 24.0289 102.5 24.0369C102.344 24.0448 102.241 24.0414 102.122 24.0141C101.97 23.98 101.83 23.9471 101.584 23.9584C98.4651 24.1039 95.3465 24.2438 92.2278 24.3881C91.9772 24.3995 91.8621 24.3518 91.6895 24.3256C91.632 24.3177 91.5745 24.3063 91.5129 24.304C91.4471 24.3017 91.3773 24.3086 91.3115 24.312C86.2248 24.5427 81.138 24.7746 76.0512 25.0054C75.7472 25.019 75.7513 25.019 75.4184 25.1236C75.3774 25.1361 75.3239 25.1532 75.2664 25.1554C73.7091 25.2282 72.1478 25.2987 70.5864 25.3692C69.9084 25.3999 69.2305 25.4317 68.5525 25.4612C68.3101 25.4715 68.3101 25.4715 67.7307 25.5943C67.6814 25.6045 67.6239 25.6181 67.5663 25.6204C64.8545 25.7443 62.1426 25.8682 59.4266 25.9899C59.213 25.9989 59.0404 26.0194 58.9418 26.074C58.872 26.1126 58.7816 26.1354 58.646 26.1422C56.7477 26.2286 54.8494 26.3161 52.947 26.4002C52.721 26.4105 52.5854 26.4423 52.4744 26.49C52.4375 26.5059 52.4046 26.5241 52.3512 26.5355C52.3018 26.5457 52.2279 26.5491 52.1663 26.5525C50.5392 26.6264 48.9121 26.7026 47.2809 26.7731C47.0384 26.7833 46.9398 26.8254 46.8206 26.8697C46.7795 26.8845 46.7508 26.905 46.6973 26.9152C46.6439 26.9243 46.5659 26.9243 46.5001 26.9266C45.1442 26.9879 43.7883 27.0505 42.4324 27.1118C42.1694 27.1062 42.1118 27.1721 41.9845 27.2119C41.9393 27.2255 41.9065 27.2437 41.8531 27.2528C41.7955 27.2619 41.7215 27.2608 41.6516 27.263C40.5669 27.3119 39.4822 27.3642 38.3933 27.4097C38.1427 27.4199 38.0933 27.4779 37.9577 27.5177C37.9126 27.5302 37.8674 27.5495 37.814 27.5529C37.136 27.5859 36.4581 27.6166 35.7801 27.6461C35.5541 27.6564 35.5541 27.6552 35.1556 27.7678C35.1104 27.7803 35.0569 27.7939 34.9994 27.7973C33.9845 27.8451 32.9655 27.8905 31.9465 27.9371C31.815 27.9428 31.7247 27.9701 31.6589 28.0088C31.5932 28.0474 31.4987 28.0724 31.3672 28.0781C30.5536 28.1156 29.74 28.1543 28.9264 28.1884C28.7005 28.1975 28.5526 28.2259 28.454 28.277C28.38 28.3157 28.2896 28.335 28.1458 28.3418C27.3322 28.3782 26.5187 28.418 25.701 28.4498C25.4627 28.4589 25.3394 28.4976 25.2408 28.5453C25.1627 28.584 25.0723 28.5976 24.9203 28.6044C23.4288 28.6704 21.9332 28.7363 20.4458 28.809C20.1951 28.8215 20.0677 28.7818 19.9034 28.7533C19.6692 28.7136 19.4515 28.6704 19.4515 28.5817C19.4515 28.568 19.3816 28.5521 19.3323 28.5408C18.9666 28.4555 18.9666 28.4555 18.9091 28.3646C18.8762 28.3089 18.8392 28.252 18.8104 28.1952C18.757 28.102 18.6255 28.0781 18.2475 28.0952C18.1119 28.1008 17.9763 28.1088 17.8407 28.1133C17.6394 28.1213 17.4874 28.0838 17.4504 28.0156C17.4298 27.9781 17.4052 27.9405 17.3847 27.903C17.5901 27.8939 17.586 27.8928 17.9475 27.7553C18.0996 27.6973 18.0996 27.6973 17.8079 27.6393C17.697 27.6177 17.5901 27.5938 17.4709 27.5734C17.4175 27.5643 17.3477 27.5586 17.2902 27.5609C16.9491 27.5745 16.6122 27.5904 16.2753 27.6063C15.7329 27.6313 15.7329 27.6313 15.1823 27.5154C15.1371 27.5063 15.0672 27.4893 15.0754 27.4802C15.1206 27.4381 15.2316 27.4199 15.3713 27.4154C15.5767 27.4085 15.778 27.3972 15.9794 27.3881C16.115 27.3824 16.2506 27.3756 16.3861 27.3699C16.5135 27.3267 16.6451 27.2846 16.7642 27.2403C16.9532 27.1721 16.9532 27.1698 16.6943 27.1221C16.53 27.0902 16.3533 27.0618 16.1848 27.0323C15.9835 27.0414 15.778 27.0516 15.5767 27.0595C15.322 27.0698 15.2192 27.0482 15.1535 26.9743C15.096 26.9095 15.1658 26.8538 15.363 26.8402C15.5644 26.8265 15.7535 26.8174 15.8562 26.7594C15.9548 26.7037 16.1273 26.6821 16.341 26.6776C16.4766 26.6742 16.6122 26.6662 16.7478 26.6594C16.9245 26.6503 17.019 26.5923 16.982 26.5275C16.9615 26.4855 16.9204 26.4502 16.7601 26.4411C16.0493 26.4014 16.041 26.4025 15.6877 26.3252C15.6548 26.3184 15.6302 26.2979 15.6425 26.2877C15.6631 26.2706 15.7083 26.2456 15.7576 26.2422C16.2301 26.2172 16.7026 26.1945 17.1751 26.1774C17.3313 26.1717 17.4463 26.1638 17.4997 26.1217C17.5737 26.0637 17.5408 26.0103 17.397 25.9705C17.3518 25.958 17.2778 25.9421 17.2285 25.9432C16.6861 25.9637 16.1479 25.9898 15.6055 26.0103C15.5562 26.0126 15.4658 25.9933 15.4453 25.9785C15.4042 25.9512 15.4658 25.9148 15.6096 25.9023C15.7986 25.8853 15.9917 25.8841 16.1191 25.8273C16.2958 25.7466 16.5135 25.6727 16.7108 25.5954C16.7436 25.5818 16.7971 25.5556 16.7848 25.5533C16.6821 25.5283 16.5629 25.509 16.4561 25.4851C16.2753 25.4453 16.2752 25.3896 16.3163 25.3362C16.3492 25.293 16.4725 25.276 16.6245 25.276C16.6902 25.276 16.7724 25.276 16.8258 25.2657C16.9655 25.2407 17.0107 25.2089 16.9409 25.185C16.8998 25.1714 16.8259 25.1521 16.7766 25.1543C15.8973 25.1918 15.0138 25.2282 14.1386 25.2748C13.8797 25.2885 13.7607 25.2453 13.6045 25.2146C13.4854 25.1907 13.3744 25.1816 13.2264 25.1986C13.0867 25.2146 12.9512 25.2055 12.8649 25.168C12.7951 25.1373 12.9183 25.1111 13.2511 25.0816C13.3128 25.0759 13.3826 25.0725 13.4278 25.0611C13.9044 24.9383 13.9044 24.9372 14.2331 24.9213C14.5536 24.9065 14.5537 24.9054 14.7221 24.8394C14.8002 24.8087 14.8864 24.778 14.9604 24.7462C14.9891 24.7337 15.0385 24.711 15.0221 24.7042C14.9317 24.6689 14.8084 24.661 14.6646 24.6689C14.3441 24.6882 13.9661 24.6723 13.7976 24.7803C13.7319 24.8212 13.6292 24.8326 13.4812 24.8394C11.9938 24.9054 10.5064 24.9759 9.01485 25.0395C8.77243 25.0497 8.66155 25.0918 8.56705 25.1384C8.48487 25.1771 8.39445 25.1884 8.23832 25.1952C8.08218 25.2021 7.95885 25.2055 7.86846 25.168C7.81504 25.1452 7.86025 25.1134 7.98352 25.0816C8.1602 25.0361 8.12731 24.9793 8.06979 24.9258C8.0287 24.8906 7.90133 24.8656 7.76574 24.8679C7.5644 24.8724 7.37134 24.8849 7.20287 24.8394C7.10426 24.8133 6.98097 24.7951 6.87003 24.7724C6.65637 24.7258 6.4427 24.678 6.14275 24.7087C5.93731 24.6973 5.7935 24.6564 5.62914 24.6246C5.35385 24.5723 5.32919 24.5643 5.52642 24.5086C5.7483 24.4461 5.57569 24.3643 5.69896 24.3029C5.83044 24.2369 6.01129 24.179 6.17154 24.1176C6.21263 24.1017 6.24962 24.0869 6.29071 24.071C6.19621 24.0482 6.10994 24.0198 5.999 24.0039C5.85519 23.9835 5.78122 23.9584 5.78944 23.888C5.76068 23.8777 5.77292 23.9039 5.80579 23.9107C5.84277 23.9175 5.93324 23.9118 5.97843 23.9039C6.09348 23.8823 6.15095 23.8539 6.12219 23.83C6.10575 23.8175 6.02774 23.8016 5.97843 23.8016C5.88804 23.8016 5.80998 23.8266 5.78533 23.888C5.32514 23.9346 4.84843 23.9573 4.3718 23.9755C4.32249 23.9778 4.2609 23.955 4.20337 23.9437C4.01436 23.905 4.01434 23.9061 3.45964 23.8948C3.40212 23.8936 3.32409 23.8777 3.29533 23.8618C3.17617 23.7925 3.18031 23.7163 3.12279 23.6424C3.22962 23.5947 3.33636 23.5481 3.4473 23.5015C3.66918 23.4071 3.95687 23.3241 4.12944 23.2207C4.09246 23.165 4.04315 23.1093 4.22394 23.0638C4.73755 23.007 4.73347 23.007 4.87317 22.9524C5.27173 22.7978 5.66616 22.6421 6.08116 22.4897C6.1921 22.4499 6.19211 22.4283 5.99489 22.4113C5.93325 22.4067 5.86742 22.4056 5.80168 22.4079C5.59624 22.4158 5.3908 22.4363 5.18946 22.4317C4.98813 22.4283 4.84021 22.3783 4.67585 22.3476C4.50739 22.3158 4.33893 22.2828 4.17047 22.2499C3.97735 22.2533 3.78427 22.2851 3.59115 22.2339C3.44323 22.1942 3.25835 22.1657 3.08988 22.1328C3.21726 22.0464 3.45561 21.9804 3.64051 21.9043C3.80897 21.8349 3.81299 21.8361 4.26497 21.7827C4.47863 21.7576 4.55259 21.6292 4.3718 21.5917C4.15403 21.5462 3.92398 21.5041 3.7021 21.4609C3.50898 21.4643 3.3118 21.4951 3.1269 21.4439C2.98309 21.4052 2.8187 21.3791 2.58039 21.3939C2.17772 21.4189 1.76684 21.4314 1.36006 21.4518C1.22036 21.4587 1.06829 21.4541 1.00665 21.4155C0.965566 21.3882 1.08473 21.3507 1.22032 21.3427C1.42577 21.3314 1.61065 21.3177 1.71337 21.2609C1.81198 21.204 1.99275 21.187 2.20641 21.179C2.26394 21.1767 2.32973 21.1631 2.35849 21.1495C2.50641 21.0835 2.67078 21.0267 2.98716 21.029C3.11864 21.0062 3.18845 20.9778 3.14736 20.9505C3.12271 20.9358 3.03647 20.9164 2.98716 20.9187C2.64612 20.9301 2.3051 20.9414 1.97228 20.9619C1.81614 20.971 1.69692 20.9733 1.59831 20.9392C1.52846 20.9164 1.56543 20.8857 1.69692 20.8528C1.81197 20.8243 1.84487 20.7914 1.83666 20.7527C1.81611 20.6629 1.69282 20.6368 1.29837 20.6425C1.01486 20.647 0.945001 20.6322 0.883368 20.5549C0.866933 20.5367 0.825916 20.5117 0.854678 20.4992C1.03136 20.4219 1.14642 20.3264 1.47924 20.2901C1.61072 20.2764 1.75037 20.2764 1.83254 20.2469C1.91472 20.2173 1.98872 20.1832 2.075 20.1548C2.18183 20.1207 2.25572 20.0889 2.20641 20.0673C2.12424 20.0286 1.9928 20.0252 1.84077 20.0388C1.70928 20.0502 1.56959 20.0513 1.43399 20.0582C1.19157 20.0707 0.994388 20.0411 0.965626 19.9911C0.887557 19.8592 0.805356 19.7285 0.735505 19.5966C0.727287 19.5807 0.747775 19.5603 0.780646 19.5466C0.895695 19.4989 1.01901 19.4534 1.13817 19.4068C1.27787 19.3534 1.49978 19.3636 1.68879 19.3534C1.95587 19.3386 1.95578 19.3397 2.31325 19.2306C2.45295 19.1874 2.69539 19.2045 2.8392 19.1658C2.88439 19.1533 2.95425 19.1328 2.94192 19.1215C2.92548 19.1067 2.84335 19.0953 2.78172 19.0885C2.72419 19.0817 2.65436 19.0783 2.59272 19.0817C1.84491 19.1146 1.10122 19.1499 0.353407 19.1817C0.226032 19.1874 0.0863265 19.1624 0.0411289 19.1272C-0.00406875 19.0942 0.00821775 19.0544 0 19.0169C0.119157 18.9703 0.254698 18.9271 0.35742 18.8771C0.435489 18.8384 0.5259 18.8214 0.682037 18.8191C0.887481 18.8157 1.08884 18.802 1.31893 18.7918C1.74626 18.6258 2.16533 18.4519 2.62553 18.2859C2.81043 18.2189 2.7653 18.1507 2.80228 18.079C2.83926 18.0131 3.11454 18.0233 3.29944 18.004C3.44736 17.9881 3.4966 17.9517 3.43908 17.9267C3.40621 17.9119 3.33229 17.8949 3.27476 17.8949C3.13917 17.8949 3.00358 17.9051 2.86799 17.9108C2.73239 17.9165 2.57627 17.9131 2.46533 17.9324C2.35849 17.9506 2.2886 17.9892 2.21875 18.0222C2.14068 18.0586 2.03803 18.0711 1.8819 18.0734C1.68056 18.0756 1.47924 18.0859 1.2779 18.0938C1.05603 18.0495 0.82588 18.0063 0.612219 17.9597C0.57113 17.9506 0.562868 17.9245 0.566977 17.9074C0.575194 17.8631 0.513577 17.8358 0.377984 17.8142C0.262936 17.796 0.168424 17.7698 0.061593 17.7471C0.143771 17.7164 0.234198 17.6869 0.29994 17.6539C0.443751 17.5845 0.624561 17.5345 0.936836 17.5368C1.0601 17.4925 1.15869 17.4379 1.31893 17.4072C1.47096 17.3777 1.72983 17.4072 1.84488 17.3401C1.90241 17.3072 1.98874 17.2697 2.09968 17.256C2.27636 17.2344 2.50645 17.2458 2.60918 17.1821C2.67081 17.1458 2.76117 17.1128 2.88033 17.1037C3.01592 17.0935 3.15558 17.0912 3.2542 17.0696C3.30761 17.0582 3.36515 17.04 3.36515 17.0241C3.36515 17.0139 3.28303 16.998 3.22551 16.9912C3.17209 16.9832 3.10216 16.9775 3.04053 16.9798C2.83508 16.9866 2.63375 16.9991 2.42831 17.0059C2.37079 17.0082 2.30506 17.0002 2.24343 16.9934C2.06264 16.9752 2.07494 16.9525 2.21875 16.9116C2.36256 16.8718 2.46534 16.8206 2.5845 16.774C2.71598 16.7661 2.88031 16.7695 2.97071 16.7479C3.12274 16.7126 3.22954 16.6615 3.35281 16.6172C3.4884 16.6103 3.62809 16.6081 3.75547 16.5956C3.80888 16.591 3.83356 16.566 3.87875 16.5512C3.96093 16.5228 4.03084 16.4819 4.14178 16.4682C4.32257 16.4478 4.54444 16.4557 4.65128 16.3932C4.71291 16.3568 4.80738 16.3182 4.92243 16.3159C5.24292 16.3114 5.37851 16.2488 5.54287 16.1897C5.66614 16.1454 5.92911 16.1681 6.0647 16.1238C6.1551 16.0954 6.22088 16.0601 6.31128 16.0328C6.34826 16.0215 6.4263 16.0158 6.48793 16.0124C6.82486 15.9953 7.16588 15.9828 7.50281 15.9646C7.55623 15.9612 7.60557 15.9442 7.64666 15.9305C7.73295 15.901 7.7863 15.8601 7.89313 15.8407C7.99997 15.8214 8.15197 15.8214 8.28346 15.8157C8.70667 15.7987 8.73958 15.8032 8.93269 15.7066C9.08883 15.6282 9.471 15.6839 9.59838 15.5975C9.67234 15.5475 9.80787 15.5065 10.0503 15.5008C10.3913 15.4929 10.7283 15.4713 11.0693 15.4565C11.3733 15.4429 11.3692 15.4429 11.698 15.3371C11.8459 15.2894 12.0637 15.2962 12.2568 15.2871C12.4623 15.278 12.6512 15.2644 12.7499 15.2076C12.8485 15.1519 13.0292 15.1337 13.2388 15.1257C13.4319 15.1177 13.6497 15.1234 13.8018 15.078C14.1715 14.9688 14.1674 14.9677 14.4263 14.9563C14.8331 14.9381 15.2399 14.92 15.6466 14.9006C15.9178 14.8881 16.2013 14.8859 16.4561 14.8608C16.641 14.8427 16.7231 14.779 16.8423 14.7347C17.1792 14.7176 17.5161 14.7006 17.853 14.6846C18.3256 14.6619 18.8022 14.6414 19.2788 14.6198C19.4843 14.5766 19.5131 14.4812 19.8582 14.4766C20.0637 14.4743 20.265 14.4596 20.4704 14.4505C20.8115 14.4346 21.1484 14.4141 21.4894 14.4061C21.7483 14.4004 21.7934 14.3391 21.929 14.3004C21.9742 14.2868 22.0153 14.2674 22.0688 14.264C22.6029 14.2322 23.1535 14.2254 23.6753 14.1788C23.7287 14.1742 23.778 14.1504 23.7904 14.1333C23.7986 14.1242 23.7287 14.1072 23.6835 14.0992C23.6301 14.0901 23.5603 14.081 23.5028 14.0833C21.8058 14.1595 20.1089 14.2368 18.4119 14.3129C18.1736 14.3243 18.1736 14.3231 17.5942 14.4482C17.5449 14.4584 17.4873 14.4698 17.4257 14.4732C17.1545 14.4868 16.8792 14.4948 16.6122 14.5119C16.3944 14.5255 16.2137 14.5118 16.0575 14.4709C15.9466 14.4414 15.8315 14.4323 15.6918 14.4346C15.5356 14.438 15.433 14.4505 15.3426 14.4812C15.2234 14.5232 15.1618 14.5778 14.9111 14.5892C13.7565 14.638 12.6019 14.6926 11.4514 14.7449C11.2911 14.729 11.2131 14.7051 11.2542 14.6767C11.2788 14.6596 11.3281 14.6369 11.3775 14.6346C11.85 14.6108 12.3266 14.5903 12.7991 14.5676C12.8649 14.5641 12.9552 14.5664 12.9922 14.555C13.173 14.5039 13.2388 14.4209 13.5799 14.4152C13.7771 14.4118 13.9784 14.3948 14.1674 14.3789C14.2208 14.3743 14.2701 14.3504 14.2825 14.3334C14.2866 14.3243 14.2208 14.3072 14.1715 14.2993C13.9907 14.2663 13.7812 14.3061 13.6004 14.2834C13.5388 14.2754 13.4524 14.264 13.4401 14.2504C13.4319 14.2379 13.5018 14.2174 13.5511 14.2049C13.5963 14.1936 13.6579 14.1833 13.7195 14.1799C14.2619 14.1538 14.8043 14.1265 15.3467 14.106C15.5686 14.0981 15.7247 14.0696 15.8233 14.0174C15.8972 13.9787 15.9876 13.9582 16.1273 13.9526C17.0765 13.9105 18.0256 13.8639 18.9789 13.8252C19.2172 13.8162 19.3405 13.7786 19.4391 13.7298C19.5172 13.6911 19.6076 13.6775 19.7596 13.6706C21.1197 13.6115 22.4714 13.5456 23.8315 13.4888C24.0821 13.4785 24.1561 13.4297 24.2835 13.3876C24.3287 13.3728 24.3574 13.3546 24.4149 13.3455C24.4724 13.3364 24.5464 13.3376 24.6162 13.3353C25.701 13.2864 26.7858 13.2341 27.8747 13.1887C28.1294 13.1784 28.1786 13.1216 28.3101 13.0818C28.3553 13.0693 28.3964 13.0488 28.4499 13.0454C29.2634 13.0068 30.0769 12.9704 30.8905 12.9329C31.4329 12.9079 31.9752 12.8829 32.5176 12.859C32.7847 12.8476 32.7847 12.8465 33.1463 12.7385C33.1874 12.726 33.2449 12.7112 33.2983 12.7078C34.8597 12.635 36.4169 12.5657 37.9783 12.4941C38.1098 12.4884 38.2043 12.4622 38.27 12.4236C38.3358 12.3849 38.4304 12.3588 38.5577 12.3531C39.7781 12.2963 40.9984 12.2406 42.2228 12.1872C42.4447 12.1781 42.6008 12.1508 42.6994 12.0996C42.7734 12.061 42.8638 12.0405 43.0035 12.0348C44.2238 11.9803 45.4442 11.9223 46.6686 11.87C46.9029 11.8598 47.0179 11.8211 47.1329 11.7756C47.174 11.7597 47.2069 11.7336 47.2562 11.7313C47.8643 11.6995 48.4683 11.6665 49.0805 11.6449C49.3353 11.6358 49.4216 11.5881 49.5243 11.5426C49.6065 11.5062 49.701 11.4937 49.8571 11.4892C50.1982 11.4789 50.5351 11.4596 50.8679 11.4403C50.9172 11.4369 50.9789 11.4119 50.983 11.396C50.9912 11.3664 50.8966 11.3459 50.7405 11.3357C49.1134 11.4096 47.4822 11.4835 45.8551 11.5574C45.588 11.5699 45.588 11.5699 45.2264 11.6779C45.1853 11.6904 45.1278 11.7052 45.0702 11.7086C43.5089 11.7802 41.9516 11.8507 40.3903 11.9223C40.2588 11.928 40.1643 11.9541 40.0986 11.9928C40.0328 12.0314 39.9382 12.0576 39.8109 12.0632C38.3193 12.1315 36.8279 12.2008 35.3322 12.2656C35.1103 12.2747 34.9542 12.3008 34.8556 12.3531C34.7817 12.3918 34.6913 12.4122 34.5516 12.4179C33.1258 12.4816 31.7041 12.5486 30.2742 12.61C30.1304 12.6157 30.0236 12.5827 30.0318 12.5521C30.0359 12.5361 30.0975 12.51 30.1468 12.5077C30.8905 12.4702 31.6301 12.4316 32.378 12.4031C32.6286 12.394 32.7025 12.344 32.8299 12.302C32.871 12.2872 32.9039 12.2679 32.9573 12.2599C33.0148 12.2508 33.0888 12.252 33.1586 12.2497C34.9213 12.169 36.6841 12.0871 38.4509 12.011C38.7056 11.9996 38.7549 11.9439 38.8864 11.9041C38.9316 11.8905 38.9727 11.87 39.0261 11.8677C39.5685 11.8404 40.1108 11.8166 40.6532 11.7927C41.6023 11.7495 42.5515 11.7063 43.5047 11.6631C43.78 11.6506 43.78 11.6506 44.1334 11.5437C44.1745 11.5312 44.2321 11.5153 44.2855 11.5131C46.796 11.3982 49.3066 11.2834 51.8171 11.1697C51.9486 11.1641 52.0431 11.1379 52.1088 11.0993C52.1745 11.0618 52.269 11.0345 52.3964 11.0276C55.7903 10.873 59.1802 10.7184 62.5741 10.5661C62.796 10.5559 62.9521 10.532 63.0507 10.4786C63.1205 10.4399 63.215 10.4195 63.3547 10.4126C67.0856 10.2433 70.8165 10.0739 74.5514 9.90338C77.0619 9.7897 79.5725 9.67375 82.083 9.56235C82.3131 9.55212 82.4363 9.51687 82.5514 9.47026C82.5884 9.45435 82.6254 9.4282 82.6747 9.42592C83.2129 9.39751 83.7512 9.37136 84.2894 9.34522C84.4579 9.37591 84.6264 9.40547 84.7948 9.43617C84.9222 9.39297 85.0455 9.34863 85.1729 9.30543C85.9865 9.27247 86.7877 9.22131 87.6094 9.2054C87.6629 9.20426 87.7203 9.22586 87.7779 9.23723C88.16 9.30885 88.3778 9.30316 88.6202 9.20767C88.7065 9.17357 88.7804 9.14288 88.9119 9.13719C89.3187 9.11673 89.7297 9.10309 90.1323 9.07922C90.3501 9.06671 90.5308 9.07808 90.687 9.119C90.7979 9.14856 90.913 9.16107 91.0486 9.15425C91.7964 9.12015 92.5401 9.08717 93.2879 9.0508C93.3414 9.04852 93.3906 9.02919 93.4317 9.01555C93.518 8.986 93.592 8.95417 93.6741 8.92348C93.7851 8.94281 93.9084 8.95759 93.9988 8.98259C94.1138 9.01215 94.2206 9.01214 94.3767 9.00419C97.3598 8.86664 100.347 8.7325 103.33 8.59381C103.585 8.58245 103.696 8.63019 103.868 8.6552C103.926 8.6643 103.983 8.67566 104.045 8.67793C104.111 8.68021 104.181 8.67339 104.246 8.66998C106.486 8.56767 108.725 8.46649 110.964 8.36418C111.26 8.35054 111.26 8.35054 111.7 8.42102C111.753 8.43012 111.823 8.44035 111.881 8.43694C112.9 8.3926 113.919 8.34486 114.933 8.29939C115.065 8.29371 115.176 8.31189 115.295 8.33804C115.529 8.38919 115.546 8.3892 115.718 8.31417C115.8 8.27893 115.887 8.25732 116.022 8.24709C116.17 8.23572 116.289 8.23915 116.404 8.25961C116.569 8.28803 116.688 8.33577 116.939 8.32326C118.023 8.26983 119.112 8.2255 120.193 8.17094C120.439 8.15843 120.571 8.19708 120.735 8.2255C120.793 8.23573 120.846 8.25165 120.908 8.25506C120.969 8.25847 121.043 8.2505 121.109 8.24709C122.465 8.18571 123.825 8.12547 125.177 8.05954C125.432 8.04703 125.543 8.0959 125.715 8.12091C125.773 8.13001 125.838 8.14593 125.892 8.14366C126.705 8.10842 127.523 8.07089 128.337 8.03338C128.628 8.01974 128.628 8.02087 129.072 8.09022C129.125 8.09931 129.195 8.10841 129.253 8.10613C130.202 8.06407 131.155 8.02087 132.104 7.97768C132.396 7.96404 132.396 7.96404 133.239 8.02315C133.3 8.0277 133.366 8.03453 133.428 8.03225C134.512 7.98337 135.601 7.93562 136.686 7.88333C136.904 7.8731 137.084 7.88219 137.241 7.92311C137.352 7.95267 137.467 7.96518 137.602 7.95836C138.822 7.90266 140.047 7.84923 141.263 7.79012C141.497 7.77875 141.649 7.80375 141.814 7.83672C141.867 7.84809 141.921 7.864 141.982 7.86855C142.044 7.8731 142.114 7.86855 142.179 7.86514C143.4 7.80944 144.624 7.75715 145.84 7.6969C146.087 7.68439 146.218 7.72304 146.383 7.75146C146.44 7.76169 146.502 7.78215 146.551 7.78102C147.028 7.76169 147.504 7.74465 147.977 7.71623C148.232 7.70031 148.343 7.7526 148.515 7.7776C148.573 7.78556 148.639 7.80262 148.692 7.80035C149.711 7.75601 150.73 7.70941 151.745 7.66167C151.889 7.65484 151.996 7.66507 152.111 7.69462C152.263 7.73441 152.439 7.75032 152.661 7.73782C153.134 7.71167 153.61 7.69349 154.087 7.67189C154.366 7.65939 154.366 7.65939 155.221 7.7185C155.283 7.72305 155.348 7.72987 155.41 7.72759C156.224 7.69122 157.041 7.65598 157.851 7.61619C158.068 7.60482 158.249 7.61505 158.405 7.65598C158.516 7.68553 158.627 7.69804 158.767 7.69122C159.515 7.65712 160.259 7.62301 161.006 7.58891C161.278 7.57641 161.549 7.5548 161.82 7.5548C162.017 7.55594 162.161 7.6105 162.338 7.63778C162.387 7.64574 162.469 7.63666 162.535 7.63438C163.484 7.59119 164.437 7.5514 165.382 7.50251C165.629 7.49001 165.76 7.52866 165.925 7.55708C165.982 7.56731 166.044 7.58777 166.093 7.58663C166.434 7.57413 166.771 7.55708 167.112 7.5423C167.519 7.52411 167.93 7.51047 168.332 7.48546C168.661 7.465 168.784 7.56389 169.047 7.5673C169.249 7.57071 169.454 7.55139 169.655 7.5423C170.062 7.52411 170.469 7.50365 170.876 7.48774C171.02 7.48205 171.131 7.46386 171.176 7.42293C171.184 7.41497 171.114 7.39793 171.069 7.3877C170.522 7.27175 170.522 7.27174 169.972 7.29675C169.631 7.31267 169.294 7.32858 168.953 7.34223C168.895 7.3445 168.83 7.33541 168.772 7.32858C168.608 7.30926 168.624 7.28653 168.764 7.2456C168.904 7.20468 169.01 7.15466 169.13 7.10806C169.298 7.13761 169.462 7.16716 169.631 7.19672C169.766 7.19103 169.902 7.18422 170.038 7.17854C170.716 7.14898 171.394 7.11829 172.072 7.091C172.121 7.08873 172.182 7.11147 172.24 7.12284C172.404 7.1558 172.552 7.18421 172.791 7.17171C173.399 7.13874 174.011 7.11487 174.619 7.08645C174.886 7.07395 174.886 7.07395 175.355 7.14443C175.408 7.15239 175.478 7.16148 175.535 7.15921C176.147 7.13306 176.756 7.10464 177.368 7.07736C177.499 7.07168 177.627 7.08646 177.721 7.11942C177.758 7.13306 177.75 7.15579 177.906 7.34223C178.391 7.49342 178.724 7.47751 179.061 7.46387C179.205 7.45818 179.332 7.45249 179.426 7.42976C179.476 7.41725 179.537 7.39906 179.537 7.38429C179.537 7.37292 179.447 7.35473 179.389 7.35245C178.983 7.32972 178.596 7.37747 178.198 7.3877C178.013 7.39225 177.853 7.35246 177.82 7.28766C177.812 7.26947 177.799 7.25015 177.787 7.23196C177.775 7.21377 177.766 7.19445 177.754 7.17626C177.594 7.17058 177.499 7.19104 177.43 7.22969C177.372 7.26152 177.29 7.29789 177.179 7.31494C177.068 7.33313 176.916 7.32973 176.78 7.33541C176.649 7.3411 176.505 7.35587 176.382 7.34791C176.258 7.33882 176.16 7.30585 176.045 7.28539C175.991 7.27516 175.926 7.26038 175.872 7.26266C175.4 7.28198 174.931 7.3013 174.463 7.32631C174.216 7.33995 174.093 7.29221 173.937 7.26266C173.814 7.23992 173.69 7.2456 173.67 7.29789C173.616 7.42293 173.805 7.47522 174.225 7.45135C174.57 7.43089 174.882 7.42749 175.153 7.50479C175.19 7.51502 175.276 7.51957 175.33 7.51729C175.667 7.50365 176 7.4866 176.336 7.47296C176.398 7.47068 176.464 7.47522 176.521 7.47977C177.36 7.54116 177.36 7.5423 177.643 7.52866C177.779 7.52184 177.91 7.51615 177.898 7.34336C178.157 7.15807 178.568 7.14557 178.966 7.11828C179.225 7.10123 179.336 7.15125 179.504 7.1774C179.562 7.18649 179.624 7.20468 179.677 7.2024C180.56 7.16489 181.44 7.1251 182.319 7.08304C182.467 7.07622 182.574 7.08304 182.689 7.11259C182.837 7.15011 183.001 7.17399 183.235 7.16034C183.704 7.13306 184.18 7.11601 184.657 7.09328C184.899 7.08191 184.899 7.0819 185.388 7.15238C185.442 7.16034 185.512 7.16943 185.569 7.16716C186.046 7.14783 186.518 7.12397 186.991 7.10351C187.122 7.09782 187.241 7.11374 187.344 7.14443C187.447 7.17512 187.57 7.19103 187.698 7.18535C188.174 7.16489 188.647 7.14216 189.119 7.1217C189.177 7.11942 189.247 7.12738 189.3 7.13534C189.801 7.20582 189.801 7.20581 190.031 7.19444C190.368 7.17739 190.713 7.16944 191.046 7.1467C191.371 7.12397 191.539 7.1899 191.761 7.22627C192.369 7.20013 192.982 7.17853 193.586 7.1467C193.832 7.13306 193.964 7.17057 194.128 7.20013C194.185 7.21036 194.243 7.23196 194.296 7.23082C194.502 7.22628 194.703 7.21377 194.905 7.20468C195.106 7.19559 195.311 7.18649 195.513 7.1774C195.743 7.21037 195.895 7.28766 196.224 7.26152C196.421 7.2456 196.63 7.24219 196.832 7.2331C197.033 7.22401 197.238 7.21491 197.44 7.20582C197.575 7.20013 197.715 7.19672 197.846 7.18649C198.089 7.16944 198.208 7.22514 198.381 7.25015C198.438 7.25811 198.504 7.27174 198.557 7.26947C198.964 7.25356 199.375 7.23992 199.774 7.21377C200.082 7.19331 200.291 7.22742 200.509 7.27516C200.554 7.28539 200.632 7.29107 200.69 7.2888C201.166 7.26948 201.639 7.2456 202.111 7.22513C202.239 7.21945 202.362 7.23764 202.465 7.26719C202.572 7.29789 202.691 7.31268 202.822 7.30699C203.295 7.28653 203.772 7.26379 204.244 7.24333C204.302 7.24105 204.371 7.25015 204.425 7.25924C204.885 7.32972 204.885 7.33086 205.156 7.31722C205.222 7.31381 205.292 7.31153 205.358 7.30812C205.694 7.2922 206.044 7.28653 206.372 7.25924C206.75 7.22855 207.026 7.2672 207.293 7.332C207.63 7.31836 207.975 7.3104 208.304 7.28766C208.55 7.27061 208.682 7.31381 208.846 7.34223C208.903 7.35246 208.965 7.37292 209.014 7.37064C209.491 7.35132 209.968 7.33427 210.436 7.30585C210.691 7.28994 210.802 7.34109 210.974 7.36723C211.032 7.37633 211.093 7.39225 211.147 7.38997C211.418 7.38088 211.689 7.36723 211.961 7.35473C212.277 7.33995 212.277 7.34109 212.696 7.41043C212.893 7.4434 213.09 7.41725 213.284 7.40929C213.489 7.4002 213.682 7.39338 213.846 7.43999C213.949 7.46954 214.072 7.48773 214.2 7.48318C214.471 7.47295 214.746 7.46273 215.013 7.44568C215.227 7.43203 215.412 7.44112 215.568 7.48318C215.679 7.51274 215.794 7.52753 215.93 7.52071C216.538 7.49342 217.15 7.46499 217.758 7.43885C217.812 7.43657 217.885 7.44681 217.935 7.45704C218.05 7.4775 218.161 7.50023 218.272 7.52297C218.539 7.51274 218.814 7.5082 219.077 7.49229C219.356 7.47637 219.611 7.47069 219.829 7.53321C219.874 7.54685 219.94 7.56617 219.993 7.56503C220.199 7.56048 220.4 7.54912 220.601 7.54002C220.803 7.53093 221.008 7.52184 221.21 7.51274C221.444 7.54116 221.592 7.62301 221.92 7.59686C222.118 7.58095 222.327 7.57754 222.529 7.56844C222.73 7.55935 222.935 7.54912 223.137 7.54116C223.202 7.53889 223.276 7.5332 223.334 7.53775C223.395 7.54229 223.449 7.55821 223.502 7.56958C223.667 7.60255 223.819 7.63552 224.053 7.61619C224.25 7.60028 224.46 7.59687 224.661 7.58663C224.936 7.57413 224.936 7.57413 225.392 7.64575C225.577 7.6753 225.787 7.63666 225.964 7.66167C226.083 7.67872 226.185 7.70713 226.3 7.72646C226.35 7.73441 226.428 7.73782 226.485 7.73554C226.757 7.72531 227.032 7.71509 227.299 7.69804C227.517 7.68439 227.697 7.69803 227.85 7.73896C227.96 7.76851 228.071 7.78103 228.211 7.7742C228.889 7.74237 229.567 7.71508 230.241 7.67984C230.471 7.66734 230.656 7.68667 230.783 7.72759C231.001 7.79807 231.309 7.71509 231.535 7.77193C231.675 7.80717 231.815 7.84809 232.069 7.83104C232.538 7.80149 233.014 7.78556 233.487 7.7651C233.655 7.79579 233.824 7.82649 233.996 7.85719C234.268 7.84468 234.539 7.83217 234.81 7.8208C235.011 7.81171 235.217 7.80148 235.418 7.79352C235.484 7.79125 235.554 7.7867 235.615 7.79238C235.677 7.79807 235.726 7.81285 235.784 7.82422C236.067 7.87992 236.067 7.88106 236.536 7.85832C236.737 7.84809 236.93 7.84127 237.099 7.88674C237.255 7.9288 237.44 7.93676 237.653 7.92425C238.056 7.90152 238.463 7.88447 238.874 7.86855C239.001 7.86287 239.12 7.88219 239.227 7.91175C239.387 7.95836 239.584 7.95381 239.786 7.94131C240.053 7.92539 240.316 7.90948 240.542 7.97314C240.587 7.98678 240.657 8.0061 240.706 8.00496C241.043 7.99586 241.384 7.98905 241.713 7.96745C242.042 7.94585 242.202 8.01633 242.428 8.05043C242.765 8.03565 243.106 8.02087 243.443 8.0061C243.508 8.00269 243.586 7.99246 243.644 7.99815C243.886 8.02202 244.026 8.10727 244.359 8.08113C244.552 8.06635 244.762 8.06181 244.963 8.0584C245.016 8.05726 245.086 8.07658 245.123 8.09135C245.144 8.09931 245.123 8.12091 245.099 8.13228C245.025 8.16411 244.934 8.19367 244.868 8.22664C244.86 8.23119 244.938 8.25164 244.984 8.26073C245.094 8.28119 245.222 8.27779 245.37 8.2687C245.497 8.26074 245.629 8.27665 245.719 8.31076C245.756 8.3244 245.744 8.34713 245.666 8.42216C245.666 8.47786 245.752 8.45285 245.781 8.41647C245.826 8.36418 245.74 8.34713 245.575 8.37555C245.46 8.39601 245.403 8.42557 245.431 8.44944C245.448 8.46195 245.526 8.47786 245.666 8.42216C246.027 8.35395 246.298 8.34145 246.57 8.32895C246.639 8.32554 246.722 8.31416 246.771 8.32099C246.948 8.34827 247.112 8.38124 247.285 8.41193C247.482 8.40511 247.667 8.38805 247.86 8.43239C248.131 8.49491 248.143 8.48923 248.406 8.47672C248.542 8.4699 248.677 8.46423 248.813 8.45854C248.949 8.45286 249.055 8.46991 249.175 8.49605C249.417 8.54948 249.438 8.54948 249.598 8.47672C249.692 8.43239 249.758 8.41761 249.877 8.43808C250.272 8.50742 250.276 8.51196 250.613 8.4915C250.892 8.47445 251.155 8.4699 251.36 8.5347C251.5 8.58017 251.545 8.56994 251.656 8.5222C251.952 8.39601 252.088 8.39828 252.642 8.48923C252.901 8.53242 253.168 8.48582 253.431 8.48014C253.653 8.47559 253.809 8.50287 253.826 8.57448C253.838 8.61882 253.875 8.65065 254.023 8.66543C254.081 8.67111 254.15 8.67907 254.208 8.6768C254.549 8.66315 254.886 8.64724 255.227 8.63132C255.399 8.62336 255.494 8.56995 255.461 8.49947C255.424 8.42444 255.49 8.39715 255.736 8.37555C255.884 8.36304 256.004 8.36533 256.123 8.38579C256.254 8.40852 256.217 8.42899 256.102 8.46991C255.827 8.56994 255.86 8.63132 256.213 8.70066C256.336 8.72454 256.435 8.74614 256.464 8.78138C256.48 8.79957 256.464 8.82344 256.501 8.83708C256.702 8.91325 256.981 8.96213 257.294 8.99851C257.594 8.96782 257.799 9.01896 258.029 9.05989C258.21 9.09172 258.424 9.06444 258.617 9.05307C258.834 9.04057 259.015 9.04966 259.171 9.09172C259.282 9.12128 259.397 9.13491 259.533 9.12923C259.804 9.11672 260.079 9.10877 260.347 9.09058C260.577 9.07467 260.749 9.09741 260.893 9.13606C261.074 9.18494 261.275 9.15197 261.464 9.15879C261.719 9.16674 261.846 9.26791 262.179 9.24063C262.376 9.22472 262.582 9.21903 262.787 9.21449C262.841 9.21335 262.906 9.23268 262.952 9.24632C263.169 9.30884 263.424 9.30543 263.704 9.28724C263.897 9.27474 264.086 9.26337 264.275 9.30657C264.587 9.37933 264.932 9.44299 265.261 9.51006C265.306 9.56235 265.273 9.62372 265.507 9.65442C265.631 9.67033 265.746 9.69421 265.84 9.72036C265.955 9.75105 266.062 9.75901 266.21 9.75105C266.477 9.73514 266.756 9.73172 267.019 9.71126C267.262 9.69307 267.414 9.73059 267.562 9.76583C267.681 9.79425 267.792 9.80789 267.936 9.78742C268.084 9.7681 268.19 9.7806 268.31 9.81129C268.478 9.85335 268.49 9.84881 269.049 9.86132C269.107 9.86245 269.177 9.8795 269.209 9.89427C269.226 9.90223 269.189 9.92498 269.16 9.93635C269.123 9.94999 269.066 9.9659 269.012 9.96931C268.404 9.99886 267.792 10.025 267.184 10.0546C267.122 10.058 267.056 10.0659 267.011 10.0773C266.962 10.0898 266.9 10.1069 266.9 10.1228C266.9 10.1341 266.982 10.1478 267.04 10.1557C267.221 10.1819 267.434 10.1421 267.611 10.1717C267.73 10.191 267.829 10.2183 267.948 10.2364C267.997 10.2444 268.075 10.2433 268.137 10.241C268.343 10.233 268.544 10.2217 268.749 10.2149C268.807 10.2137 268.873 10.2251 268.926 10.2342C269.32 10.3024 269.32 10.3024 269.661 10.2876C269.797 10.2819 269.941 10.2649 270.068 10.2717C270.191 10.2785 270.298 10.3092 270.409 10.3285C270.639 10.3695 270.857 10.4092 270.874 10.4979C270.882 10.532 271.017 10.5616 271.153 10.5638C271.284 10.5661 271.424 10.5536 271.56 10.5468C271.88 10.5332 271.88 10.5332 272.295 10.6025C272.41 10.6218 272.533 10.6241 272.681 10.6127C272.739 10.6082 272.809 10.6127 272.87 10.6184C273.072 10.6355 273.072 10.6571 272.94 10.698C272.755 10.7582 272.772 10.7639 273.29 10.8151C273.487 10.8344 273.639 10.8708 273.803 10.9026C274.07 10.9538 274.066 10.9538 273.889 11.0208C273.848 11.0356 273.811 11.0515 273.77 11.0674C273.651 11.1118 273.557 11.1595 273.31 11.1641C273.039 11.1686 272.768 11.1868 272.497 11.1993C272.234 11.2118 272.164 11.2391 272.188 11.3164C272.217 11.4096 272.271 11.4198 272.743 11.4187C272.879 11.4187 272.998 11.4278 273.101 11.4585C273.051 11.4949 272.961 11.5233 272.829 11.5301C272.492 11.5471 272.151 11.5619 271.814 11.5767C271.543 11.5892 271.272 11.6017 271.001 11.6142C270.832 11.6222 270.726 11.6813 270.771 11.7472C270.795 11.7847 270.816 11.8222 270.837 11.8598C270.882 11.9348 270.968 11.9541 271.243 11.9507C271.313 11.9496 271.379 11.9405 271.445 11.9427C271.712 11.9507 271.839 12.045 272.16 12.0257C272.427 12.0098 272.706 12.0064 272.969 11.9859C273.212 11.9678 273.347 12.0087 273.516 12.0394C273.573 12.0496 273.635 12.0712 273.684 12.0701C274.025 12.0576 274.366 12.0451 274.699 12.0235C274.855 12.0144 274.95 12.0212 275.073 12.0485C275.369 12.1144 275.377 12.111 275.817 12.0905C276.137 12.0746 276.141 12.0769 276.552 12.1462C276.667 12.1656 276.79 12.1655 276.938 12.1565C277.131 12.1451 277.333 12.1269 277.534 12.144C277.596 12.1485 277.674 12.1621 277.694 12.1769C277.707 12.1872 277.649 12.2122 277.6 12.2201C277.238 12.2792 276.815 12.269 276.421 12.2929C276.297 12.2997 276.174 12.2781 276.071 12.2474C275.964 12.2167 275.849 12.2042 275.71 12.2099C275.439 12.2224 275.163 12.2304 274.896 12.2485C274.666 12.2645 274.506 12.2383 274.346 12.2031C274.292 12.1917 274.231 12.1701 274.177 12.1712C273.569 12.194 272.957 12.2167 272.353 12.2485C272.11 12.2622 271.971 12.2258 271.806 12.1951C271.749 12.1849 271.691 12.1633 271.638 12.1644C271.432 12.169 271.231 12.1815 271.026 12.1906C270.278 12.2247 269.534 12.2588 268.786 12.2906C268.737 12.2929 268.675 12.269 268.618 12.2588C268.507 12.2383 268.392 12.219 268.277 12.1997C268.071 12.2087 267.87 12.2201 267.664 12.2269C267.517 12.2315 267.385 12.2474 267.365 12.2906C267.352 12.319 267.488 12.3452 267.632 12.3429C267.771 12.3406 267.911 12.327 268.026 12.3418C268.597 12.4145 268.597 12.4156 268.955 12.4009C269.267 12.3872 269.234 12.3759 269.509 12.4384C269.629 12.4657 269.735 12.4816 269.871 12.4748C270.208 12.4588 270.549 12.4429 270.89 12.4293C270.943 12.427 271.013 12.4384 271.067 12.4475C271.469 12.5157 271.469 12.518 271.802 12.5009C272.238 12.4804 272.254 12.4748 272.546 12.5441C272.747 12.5918 272.932 12.5589 273.125 12.5566C273.347 12.6009 273.59 12.6407 273.791 12.6907C274.029 12.7499 274.28 12.7396 274.551 12.7226C274.752 12.7101 274.95 12.7055 275.114 12.7521C275.27 12.7953 275.459 12.7999 275.673 12.7885C275.866 12.7783 276.063 12.7567 276.264 12.7817C276.318 12.7885 276.4 12.8056 276.396 12.8158C276.392 12.8317 276.338 12.8544 276.285 12.8613C275.907 12.9079 275.492 12.9067 275.093 12.9283C275.04 12.9317 274.97 12.9192 274.917 12.9101C274.802 12.8897 274.691 12.8658 274.58 12.8442C274.378 12.851 274.173 12.8533 273.976 12.8669C273.824 12.8772 273.709 12.876 273.598 12.8488C273.495 12.8238 273.384 12.7931 273.261 12.7851C273.138 12.7771 272.994 12.7942 272.858 12.801C272.723 12.8078 272.566 12.8044 272.46 12.8226C272.353 12.8408 272.287 12.8806 272.217 12.9124C272.139 12.9477 272.032 12.959 271.876 12.9624C271.732 12.9658 271.617 12.9613 271.51 12.9295C271.465 12.9158 271.404 12.9056 271.342 12.8965C271.284 12.8885 271.219 12.876 271.165 12.8783C270.553 12.9044 269.945 12.9329 269.333 12.9602C269.029 12.9738 269.033 12.9738 268.4 12.9067C268.342 12.901 268.273 12.8931 268.215 12.8954C267.874 12.909 267.537 12.9249 267.196 12.9408C266.851 12.9567 266.855 12.9545 266.268 12.8829C266.161 12.8692 266.005 12.8874 265.877 12.8851C265.61 12.8794 265.479 12.784 265.166 12.8021C264.899 12.8181 264.62 12.8215 264.353 12.8419C264.11 12.8601 263.971 12.8203 263.806 12.7896C263.749 12.7794 263.687 12.7567 263.638 12.759C263.026 12.784 262.417 12.8124 261.604 12.8158C261.403 12.8158 261.493 12.8397 261.624 12.8476C261.813 12.8601 261.875 12.8363 261.772 12.7908C261.698 12.759 261.592 12.743 261.505 12.751C261.46 12.7555 261.403 12.7771 261.604 12.8158C261.818 12.859 261.805 12.8829 261.842 12.8965C261.933 12.9295 262.06 12.9431 262.192 12.9386C262.397 12.9306 262.598 12.9192 262.804 12.9124C262.861 12.9101 262.931 12.9181 262.985 12.9272C263.436 12.9977 263.441 13.0022 263.921 12.9749C264.073 12.967 264.184 12.967 264.303 12.9886C264.468 13.0181 264.587 13.0681 264.838 13.0522C265.17 13.0306 265.511 13.0181 265.853 13.0056C265.906 13.0034 265.963 13.0238 266.025 13.0329C266.194 13.0602 266.317 13.1114 266.567 13.0898C266.761 13.0727 266.97 13.0681 267.176 13.0647C267.229 13.0636 267.311 13.0818 267.336 13.0966C267.385 13.1227 267.323 13.1534 267.184 13.175C267.126 13.1841 267.048 13.1818 266.982 13.1852C266.711 13.1977 266.44 13.2114 266.169 13.2216C266.025 13.2273 265.89 13.2444 265.873 13.2864C265.861 13.3148 266.009 13.3398 266.148 13.3376C266.354 13.3342 266.559 13.3251 266.756 13.3103C267.106 13.2853 267.41 13.2921 267.693 13.3637C267.895 13.4137 267.882 13.3955 268.096 13.5433C268.149 13.5808 268.31 13.5842 268.449 13.582C268.786 13.5763 268.942 13.5933 268.914 13.6286C268.877 13.6718 268.757 13.6854 268.605 13.6911C268.334 13.7002 268.063 13.715 267.792 13.7275C267.726 13.7309 267.652 13.7377 267.591 13.7354C267.529 13.7332 267.471 13.7195 267.418 13.7093C267.303 13.6877 267.204 13.6547 267.081 13.6468C266.958 13.6388 266.814 13.6559 266.678 13.6627C266.543 13.6684 266.399 13.6854 266.276 13.6775C266.152 13.6695 266.05 13.6354 265.939 13.6149C265.885 13.6047 265.82 13.5888 265.766 13.5899C265.495 13.599 265.224 13.6138 264.953 13.6252C264.62 13.6399 264.62 13.64 264.217 13.5695C264.102 13.549 263.983 13.5501 263.831 13.5592C263.502 13.5774 263.498 13.574 262.898 13.5081C262.841 13.5013 262.771 13.4933 262.713 13.4967C262.101 13.5229 261.493 13.5513 260.885 13.5786C260.363 13.6024 260.363 13.6024 260.075 13.7161C259.862 13.8002 259.858 13.8002 260.067 13.8389C260.236 13.8707 260.388 13.9173 260.573 13.9344C260.745 13.9503 260.959 13.8991 261.148 13.9514C261.242 13.9776 261.366 14.006 261.485 14.0105C261.674 14.0162 261.875 13.9833 262.056 14.0333C262.146 14.0583 262.282 14.0844 262.397 14.0856C262.598 14.0878 262.804 14.0696 263.005 14.0617C263.067 14.0594 263.137 14.0594 263.194 14.0651C263.256 14.0719 263.309 14.0856 263.362 14.0969C263.527 14.1356 263.704 14.1538 263.917 14.1344C264.266 14.1026 264.579 14.1185 264.85 14.1913C264.887 14.2015 264.977 14.2027 265.035 14.1981C265.183 14.1867 265.31 14.1856 265.421 14.2072C265.466 14.2163 265.532 14.2322 265.524 14.2424C265.511 14.2595 265.462 14.2822 265.409 14.2879C265.022 14.3266 264.608 14.3311 264.209 14.3516C264.156 14.3538 264.09 14.3391 264.036 14.3288C263.921 14.3084 263.823 14.2743 263.699 14.2663C263.576 14.2584 263.432 14.2731 263.297 14.2788C263.161 14.2845 263.017 14.3016 262.894 14.2947C262.771 14.2868 262.656 14.2584 262.557 14.2333C262.442 14.2049 262.331 14.2015 262.179 14.2129C261.982 14.2277 261.777 14.2299 261.575 14.2379C261.464 14.2163 261.353 14.1924 261.238 14.172C261.185 14.1617 261.119 14.1492 261.062 14.1504C260.79 14.1595 260.519 14.1731 260.248 14.1856C259.977 14.1981 259.977 14.1981 259.517 14.1276C259.463 14.1197 259.393 14.1106 259.336 14.1129C258.995 14.1265 258.658 14.1435 258.317 14.1572C258.185 14.1629 258.066 14.1469 257.959 14.1163C257.857 14.0856 257.733 14.0685 257.606 14.0742C257.064 14.0981 256.521 14.1208 255.979 14.1492C255.761 14.1606 255.576 14.1504 255.428 14.1094C255.256 14.0628 255.063 14.0742 254.861 14.0833C254.405 14.106 254.401 14.1049 254.109 14.0469C254.052 14.0355 253.994 14.0139 253.941 14.0151C253.468 14.0321 252.992 14.048 252.523 14.0753C252.277 14.0901 252.145 14.0503 251.981 14.0208C251.923 14.0105 251.862 13.9889 251.813 13.9912C251.471 14.0037 251.13 14.0151 250.798 14.0378C250.465 14.0606 250.337 13.9548 250.087 13.956C249.746 13.9571 249.409 13.9833 249.072 13.9992C248.801 14.0117 248.529 14.0242 248.258 14.0367C247.987 14.0492 247.716 14.0594 247.445 14.0742C247.301 14.0821 247.194 14.0719 247.075 14.0435C246.923 14.006 246.742 13.9764 246.578 13.9423C246.327 13.8935 246.327 13.8934 246.023 13.9071C245.957 13.9105 245.887 13.9128 245.822 13.9162C245.325 13.9412 245.325 13.9389 244.692 13.8673C244.663 13.8639 244.589 13.8764 244.56 13.8855C244.474 13.9151 244.396 13.9469 244.318 13.9776C244.207 13.9594 244.071 13.9492 243.997 13.923C243.788 13.8491 243.459 13.9503 243.245 13.8775C243.167 13.8502 243.032 13.8264 242.909 13.8196C242.781 13.8127 242.637 13.8287 242.506 13.8355C242.165 13.8525 242.165 13.8514 241.873 13.9526C241.725 14.0026 241.512 13.9935 241.318 14.0048C241.117 14.0174 240.924 14.0242 240.755 13.9776C240.603 13.9355 240.419 13.9253 240.201 13.9389C239.934 13.956 239.658 13.9662 239.387 13.9764C239.33 13.9787 239.26 13.973 239.202 13.9662C238.574 13.8991 238.574 13.898 238.27 13.9128C238.134 13.9196 237.994 13.9219 237.863 13.9321C237.641 13.9503 237.473 13.9264 237.312 13.89C237.259 13.8787 237.197 13.8571 237.144 13.8582C236.873 13.8639 236.605 13.8741 236.338 13.8844C236.133 13.8923 235.928 13.8969 235.73 13.9128C235.402 13.9389 235.241 13.865 235.015 13.8309C234.678 13.8457 234.337 13.8559 234 13.8764C233.844 13.8855 233.742 13.8821 233.623 13.8548C233.47 13.8207 233.331 13.782 233.084 13.7991C232.756 13.8218 232.41 13.8298 232.073 13.8434C231.847 13.8082 231.683 13.7366 231.359 13.7627C231.161 13.7786 230.952 13.782 230.75 13.7911C230.479 13.8036 230.208 13.815 229.937 13.8287C229.645 13.8423 229.649 13.8389 229.201 13.7718C228.942 13.732 228.675 13.7764 228.412 13.7832C228.207 13.7889 228.104 13.8412 228.154 13.9082C228.203 13.9753 228.092 14.0276 227.903 14.0367C227.43 14.0583 226.954 14.081 226.481 14.1003C226.424 14.1026 226.354 14.0947 226.3 14.0867C225.795 14.0151 225.795 14.0162 225.569 14.0265C225.232 14.0435 224.887 14.0526 224.554 14.0742C224.324 14.089 224.156 14.0651 224.008 14.0265C223.893 13.9969 223.786 13.9901 223.638 13.9969C222.011 14.0731 220.384 14.1435 218.761 14.222C218.518 14.2333 218.379 14.2004 218.214 14.1697C218.157 14.1595 218.103 14.1379 218.046 14.1379C217.91 14.1379 217.775 14.1481 217.639 14.1549C217.031 14.1822 216.423 14.2152 215.81 14.2356C215.552 14.2447 215.482 14.297 215.371 14.3402C215.285 14.3732 215.186 14.3868 215.034 14.3914C214.886 14.3959 214.779 14.3902 214.664 14.3607C214.516 14.322 214.348 14.2981 214.118 14.314C213.851 14.3322 213.579 14.3402 213.304 14.3527C213.164 14.3584 213.058 14.3788 213.012 14.4198C213.004 14.4266 213.09 14.4437 213.14 14.4539C213.304 14.488 213.46 14.5278 213.645 14.5516C213.834 14.5755 214.04 14.5482 214.237 14.5414C214.307 14.5391 214.372 14.5323 214.438 14.5335C214.5 14.5346 214.574 14.5403 214.619 14.5505C214.833 14.6017 215.059 14.6369 215.354 14.6062C215.609 14.621 215.741 14.7153 216.065 14.6903C216.263 14.6755 216.468 14.6687 216.673 14.663C216.727 14.6619 216.784 14.6824 216.842 14.6926C217.006 14.721 217.138 14.7665 217.384 14.7472C217.647 14.7267 217.927 14.7233 218.194 14.7074C218.342 14.6983 218.448 14.7062 218.563 14.7358C218.711 14.7733 218.88 14.8017 219.11 14.7835C219.307 14.7676 219.517 14.7642 219.718 14.754C219.981 14.7415 219.981 14.7426 220.449 14.8131C220.503 14.8211 220.573 14.8301 220.63 14.8279C220.971 14.8142 221.308 14.7972 221.649 14.7835C221.781 14.7779 221.908 14.7926 221.998 14.8256C222.035 14.8392 222.023 14.862 222.035 14.8813C221.357 14.912 220.679 14.9381 220.006 14.9757C219.751 14.9904 219.636 14.9438 219.467 14.9177C219.41 14.9086 219.348 14.8893 219.295 14.8915C218.818 14.9109 218.346 14.9313 217.873 14.9563C217.725 14.9643 217.614 14.9597 217.503 14.9268C217.22 14.8392 216.875 14.887 216.554 14.8995C216.308 14.9086 216.23 14.9438 216.258 15.0189C216.295 15.1075 216.443 15.1348 216.821 15.1189C216.957 15.1132 217.092 15.1052 217.228 15.1007C217.36 15.0962 217.479 15.1109 217.586 15.1416C217.688 15.1723 217.811 15.1882 217.939 15.1837C218.21 15.1735 218.485 15.1632 218.748 15.1462C218.966 15.1325 219.147 15.1439 219.299 15.186C219.467 15.2326 219.665 15.2223 219.862 15.2121C220.322 15.1894 220.326 15.1905 220.614 15.2473C220.671 15.2587 220.729 15.2803 220.782 15.2792C221.255 15.2621 221.731 15.2473 222.196 15.2201C222.438 15.2064 222.578 15.2428 222.738 15.2724C222.796 15.2826 222.853 15.3053 222.907 15.303C223.248 15.2905 223.589 15.278 223.921 15.2564C224.078 15.2462 224.172 15.253 224.299 15.2803C224.603 15.3474 224.612 15.3451 225.043 15.3235C225.175 15.3167 225.318 15.3042 225.442 15.3133C225.565 15.3224 225.664 15.3553 225.779 15.3758C225.832 15.3849 225.898 15.3974 225.955 15.3951C226.226 15.386 226.498 15.3724 226.769 15.3599C227.024 15.3474 227.024 15.3485 227.5 15.419C227.693 15.4486 227.895 15.4235 228.088 15.4145C228.297 15.4042 228.486 15.4042 228.647 15.4486C228.807 15.4929 229 15.4906 229.205 15.4815C229.399 15.4724 229.596 15.4474 229.793 15.4781C230.245 15.5486 230.245 15.5497 230.524 15.5361C230.931 15.5168 231.334 15.4986 231.745 15.4815C231.798 15.4792 231.868 15.4929 231.921 15.502C232.036 15.5224 232.135 15.5565 232.258 15.5645C232.382 15.5736 232.525 15.56 232.657 15.5531C233.08 15.5315 233.109 15.5236 233.392 15.5986C233.631 15.66 233.927 15.5713 234.148 15.6418C234.276 15.6816 234.448 15.7134 234.687 15.6941C234.884 15.6782 235.089 15.6736 235.295 15.6645C235.619 15.6498 235.619 15.6509 236.03 15.7191C236.084 15.7282 236.153 15.7396 236.207 15.7373C236.478 15.7282 236.753 15.7202 237.016 15.6998C237.325 15.6759 237.522 15.7191 237.752 15.7612C237.933 15.7941 238.146 15.7668 238.339 15.7555C238.549 15.7441 238.738 15.7475 238.894 15.7919C239.058 15.8373 239.252 15.8316 239.457 15.8225C239.65 15.8146 239.847 15.7884 240.045 15.8203C240.468 15.8908 240.468 15.8908 240.776 15.8771C241.047 15.8646 241.318 15.851 241.59 15.8419C241.643 15.8396 241.709 15.8544 241.762 15.8646C241.877 15.8851 241.976 15.9192 242.099 15.9271C242.222 15.9351 242.366 15.9203 242.502 15.9146C242.637 15.9089 242.781 15.8919 242.904 15.8987C243.028 15.9055 243.143 15.934 243.241 15.959C243.356 15.9885 243.463 15.9919 243.619 15.9806C243.817 15.9658 244.022 15.9624 244.223 15.9544C244.334 15.976 244.449 15.9976 244.556 16.0215C244.667 16.0465 244.786 16.0442 244.938 16.0363C245.444 16.009 245.448 16.0124 245.871 16.0829C246.064 16.1147 246.266 16.0886 246.459 16.0806C246.664 16.0715 246.857 16.067 247.017 16.1124C247.174 16.1556 247.367 16.1613 247.572 16.1477C247.704 16.1386 247.843 16.1329 247.979 16.1295C248.041 16.1283 248.114 16.1329 248.16 16.142C248.377 16.1897 248.591 16.2329 248.891 16.2022C249.154 16.2113 249.285 16.3045 249.602 16.2864C249.869 16.2704 250.148 16.267 250.411 16.2466C250.654 16.2284 250.826 16.2602 250.95 16.3C251.171 16.3705 251.484 16.275 251.706 16.3443C251.833 16.3841 251.997 16.416 252.244 16.3989C252.515 16.3807 252.601 16.4046 252.679 16.4762C252.725 16.5171 252.716 16.5501 252.634 16.5819C252.552 16.6149 252.462 16.6092 252.33 16.5717C252.178 16.5296 251.997 16.5217 251.78 16.5308C251.566 16.5398 251.434 16.4807 251.258 16.458C251.081 16.4341 250.872 16.4739 250.687 16.4432C250.251 16.3716 250.251 16.3716 249.955 16.3853C249.754 16.3944 249.544 16.3989 249.347 16.4148C249.113 16.4341 248.961 16.3989 248.801 16.3671C248.743 16.3557 248.686 16.3341 248.636 16.3352C248.164 16.3523 247.687 16.3682 247.219 16.3966C246.972 16.4114 246.841 16.3705 246.676 16.3421C246.619 16.3318 246.557 16.3114 246.508 16.3136C246.101 16.3296 245.698 16.35 245.292 16.3693C245.214 16.4 245.127 16.4296 245.053 16.4626C244.975 16.4967 244.868 16.5114 244.712 16.5103C244.453 16.5103 244.199 16.558 243.94 16.4978C243.673 16.4364 243.652 16.4398 243.393 16.4546C243.065 16.4739 242.715 16.4694 242.407 16.5137C242.354 16.5217 242.296 16.5433 242.296 16.5592C242.292 16.5694 242.378 16.5842 242.432 16.5933C242.613 16.6206 242.822 16.5808 243.003 16.6092C243.122 16.6274 243.221 16.6547 243.34 16.674C243.389 16.6819 243.463 16.6808 243.529 16.6797C243.599 16.6785 243.665 16.6706 243.73 16.6717C243.792 16.6729 243.858 16.6797 243.907 16.6899C244.133 16.7331 244.371 16.7729 244.573 16.8241C244.77 16.8741 244.955 16.84 245.152 16.8377C245.941 16.9173 245.941 16.9184 246.471 16.8934C246.602 16.8877 246.738 16.8809 246.874 16.882C246.931 16.882 246.985 16.9025 247.042 16.9138C247.206 16.9479 247.363 16.9786 247.593 16.9605C247.79 16.9445 247.999 16.9411 248.201 16.9309C248.472 16.9184 248.472 16.9184 248.932 16.99C249.047 17.0082 249.17 17.0059 249.318 16.9968C249.446 16.9889 249.577 17.0059 249.668 17.0389C249.705 17.0525 249.692 17.0753 249.705 17.0946C249.298 17.1128 248.887 17.1253 248.493 17.1526C248.238 17.1696 248.123 17.1207 247.954 17.0946C247.897 17.0855 247.835 17.0662 247.782 17.0685C247.379 17.0855 246.976 17.1048 246.574 17.1276C246.524 17.1298 246.463 17.156 246.459 17.1719C246.45 17.2015 246.553 17.2299 246.701 17.2287C246.898 17.2276 247.091 17.2083 247.268 17.2549C247.416 17.2958 247.601 17.314 247.819 17.2958C247.95 17.2856 248.09 17.2856 248.221 17.2765C248.571 17.2492 248.887 17.2549 249.15 17.3322C249.351 17.3526 249.548 17.3333 249.742 17.3231C249.885 17.3151 250.025 17.3072 250.128 17.3288C250.346 17.3742 250.559 17.4197 250.859 17.389C251.184 17.4209 251.43 17.4879 251.702 17.5425C251.829 17.5686 251.928 17.5834 252.075 17.5664C252.137 17.5595 252.211 17.5595 252.277 17.5561C252.412 17.5504 252.556 17.5334 252.679 17.5402C252.803 17.5482 252.905 17.5811 253.016 17.6016C253.07 17.6118 253.131 17.6289 253.185 17.6277C253.39 17.6221 253.592 17.6107 253.793 17.6016C253.994 17.5936 254.196 17.5857 254.397 17.5777C254.565 17.6073 254.738 17.6368 254.906 17.6664C255.178 17.6539 255.449 17.6414 255.716 17.63C256.016 17.6164 256.016 17.6175 256.447 17.688C256.64 17.7198 256.846 17.6994 257.031 17.6846C257.339 17.6607 257.544 17.7039 257.762 17.7494C257.807 17.7585 257.89 17.7642 257.943 17.7596C258.157 17.7437 258.341 17.7562 258.498 17.7983C258.608 17.8278 258.719 17.8415 258.855 17.8358C259.328 17.8142 259.8 17.7914 260.273 17.7721C260.33 17.7698 260.396 17.7801 260.449 17.7892C260.868 17.8585 260.872 17.8619 261.181 17.8437C261.456 17.8278 261.711 17.821 261.929 17.8835C261.974 17.8972 262.044 17.9165 262.093 17.9154C262.43 17.904 262.771 17.8915 263.104 17.8722C263.256 17.8631 263.363 17.8665 263.482 17.8926C263.634 17.9256 263.769 17.9654 264.02 17.9506C264.714 17.9085 264.718 17.9153 265.54 17.9938C265.598 17.9995 265.676 17.9904 265.742 17.9858C265.881 17.9745 265.984 17.9904 266.107 18.0165C266.382 18.0756 266.391 18.0722 266.654 18.0597C266.855 18.0495 267.065 18.0472 267.262 18.0302C267.566 18.0052 267.767 18.0495 267.993 18.0916C268.174 18.1245 268.384 18.0972 268.577 18.087C268.786 18.0756 268.975 18.079 269.131 18.1222C269.238 18.1518 269.353 18.1677 269.489 18.162C269.961 18.1416 270.434 18.1188 270.906 18.0984C270.964 18.0961 271.034 18.1052 271.087 18.1131C271.556 18.1836 271.556 18.187 272.02 18.1609C272.168 18.1529 272.291 18.1507 272.402 18.1745C272.509 18.1973 272.624 18.2189 272.735 18.2405C272.936 18.2325 273.142 18.2302 273.339 18.2166C273.491 18.2064 273.598 18.2109 273.717 18.2348C273.873 18.2655 274.004 18.3189 274.251 18.2928C274.378 18.2802 274.526 18.2837 274.654 18.2723C274.806 18.2575 274.908 18.2666 275.028 18.2962C275.176 18.3314 275.328 18.3678 275.566 18.3496C275.829 18.3291 276.108 18.3257 276.375 18.3098C276.523 18.3007 276.626 18.3098 276.745 18.3394C276.893 18.3769 277.062 18.4008 277.292 18.386C277.76 18.3576 277.764 18.3632 278.22 18.4348C278.335 18.453 278.459 18.4508 278.606 18.4417C278.734 18.4337 278.865 18.4508 278.956 18.4837C279.042 18.5201 279.034 18.5428 279.042 18.5622ZM242.428 8.30962C242.292 8.3153 242.157 8.32212 241.959 8.22322C241.947 8.20617 241.955 8.18572 241.927 8.17094C241.861 8.14024 241.758 8.11865 241.635 8.11524C241.413 8.11069 241.146 8.14933 241.15 8.17889C241.154 8.2039 241.224 8.22549 241.359 8.24595C241.417 8.25391 241.462 8.26756 241.516 8.27665C241.672 8.3028 241.795 8.35396 242.021 8.32781C242 8.29257 241.98 8.25733 242.021 8.32781C242 8.37101 242.062 8.4017 242.21 8.41421C242.251 8.41762 242.313 8.41534 242.346 8.40852C242.473 8.38351 242.494 8.34941 242.399 8.25961C242.383 8.27439 242.395 8.30052 242.432 8.30734C242.469 8.31416 242.559 8.30849 242.604 8.30053C242.719 8.27893 242.777 8.25051 242.748 8.22664C242.732 8.21413 242.654 8.19822 242.604 8.19822C242.518 8.19822 242.44 8.22323 242.428 8.30962ZM275.652 21.4928C275.352 21.5144 275.007 21.5064 274.707 21.5507C274.654 21.5587 274.6 21.5792 274.596 21.5951C274.592 21.6053 274.674 21.6201 274.724 21.6281C274.835 21.6462 274.958 21.6406 275.102 21.6349C275.319 21.6269 275.447 21.6792 275.615 21.7053C275.669 21.7133 275.738 21.719 275.796 21.7167C276.129 21.7031 276.457 21.6883 276.79 21.6724C276.848 21.669 276.909 21.661 276.959 21.6508C277.123 21.6178 277.107 21.5962 276.946 21.5712C276.77 21.5439 276.63 21.4985 276.449 21.4769C276.19 21.4462 275.927 21.4871 275.652 21.4928ZM252.318 22.3226C252.117 22.3317 251.919 22.3408 251.718 22.3499C251.652 22.3533 251.582 22.3544 251.521 22.359C251.393 22.3669 251.299 22.3908 251.237 22.4283C251.332 22.4579 251.447 22.4749 251.574 22.4715C251.775 22.4647 251.973 22.4499 252.174 22.4465C252.392 22.442 252.519 22.4931 252.688 22.5193C252.741 22.5272 252.807 22.5284 252.868 22.5295C253.172 22.5341 253.357 22.4749 253.3 22.392C253.259 22.3272 253.103 22.2885 252.914 22.2965C252.716 22.3044 252.515 22.3135 252.318 22.3226ZM277.057 19.8126C277.107 19.7933 277.16 19.7797 277.185 19.7626C277.259 19.7046 277.23 19.6614 277.094 19.616C276.93 19.5603 276.729 19.5978 276.544 19.6035C276.499 19.6046 276.449 19.6285 276.425 19.6432C276.408 19.6535 276.408 19.6751 276.433 19.6808C276.634 19.7262 276.848 19.7683 277.057 19.8126ZM241.413 16.4546C241.216 16.4637 241.014 16.4705 240.817 16.483C240.768 16.4864 240.723 16.508 240.694 16.5228C240.64 16.5501 240.698 16.5876 240.866 16.591C241.06 16.5956 241.261 16.5762 241.462 16.5671C241.717 16.5558 241.869 16.5137 241.774 16.4773C241.684 16.4421 241.561 16.4353 241.413 16.4546ZM25.1257 14.0253C25.2572 14.0196 25.3928 14.0151 25.5243 14.0071C25.6476 13.9992 25.7421 13.9742 25.8038 13.9366C25.701 13.9071 25.586 13.8912 25.4586 13.8946C25.2572 13.9014 25.06 13.9105 24.8628 13.9219C24.7395 13.9287 24.6204 13.9537 24.5917 13.9923C24.5629 14.0219 24.8381 14.039 25.1257 14.0253ZM224.036 13.8502C224.09 13.8605 224.143 13.8809 224.197 13.8809C224.328 13.8809 224.464 13.8741 224.587 13.8628C224.641 13.8582 224.682 13.8377 224.706 13.8218C224.723 13.8116 224.719 13.7934 224.694 13.7843C224.575 13.7298 224.098 13.7491 224.02 13.8116C224.012 13.823 224.032 13.8377 224.036 13.8502ZM211.073 7.62528C211.085 7.64347 211.089 7.66166 211.106 7.67984C211.139 7.71395 211.229 7.73896 211.361 7.75601C211.463 7.72759 211.517 7.69577 211.513 7.66167C211.509 7.64348 211.496 7.62528 211.48 7.60709C211.447 7.57299 211.357 7.54799 211.225 7.53093C211.122 7.55822 211.073 7.59004 211.073 7.62528ZM286.553 22.5204C286.516 22.5352 286.479 22.55 286.438 22.5636C286.549 22.5966 286.652 22.6068 286.73 22.5886C286.779 22.5773 286.808 22.5602 286.845 22.5454C286.734 22.5125 286.635 22.5034 286.553 22.5204ZM283.997 22.675C284.051 22.6852 284.1 22.6989 284.158 22.7057C284.252 22.7171 284.338 22.6977 284.404 22.6568C284.351 22.6466 284.301 22.633 284.244 22.6261C284.149 22.6148 284.063 22.6341 283.997 22.675ZM285.616 22.467C285.587 22.4943 285.645 22.517 285.797 22.5363C285.834 22.5216 285.883 22.5079 285.908 22.492C285.949 22.4659 285.879 22.442 285.731 22.4238C285.69 22.4374 285.653 22.4522 285.616 22.467ZM276.942 21.2415C276.914 21.2688 276.971 21.2916 277.123 21.3109C277.16 21.2961 277.209 21.2825 277.234 21.2666C277.275 21.2404 277.205 21.2165 277.057 21.1984C277.016 21.212 276.979 21.2268 276.942 21.2415ZM265.125 13.1977C265.088 13.2125 265.051 13.2273 265.01 13.2409C265.121 13.2739 265.224 13.2841 265.302 13.2659C265.351 13.2546 265.38 13.2375 265.417 13.2227C265.306 13.1898 265.207 13.1807 265.125 13.1977ZM253.805 8.93029C253.904 8.93825 253.986 8.92234 254.056 8.88028C254.003 8.87005 253.953 8.85641 253.896 8.84959C253.801 8.83822 253.715 8.85755 253.649 8.89847C253.703 8.90984 253.756 8.92006 253.805 8.93029ZM247.794 8.66315C247.757 8.67793 247.72 8.69271 247.679 8.70635C247.79 8.73932 247.893 8.74955 247.971 8.73136C248.02 8.71999 248.049 8.70294 248.086 8.68816C247.975 8.65519 247.876 8.64724 247.794 8.66315ZM207.03 7.62414C206.993 7.63892 206.956 7.6537 206.915 7.66734C207.026 7.70031 207.128 7.71053 207.207 7.69235C207.256 7.68098 207.285 7.66393 207.322 7.64915C207.211 7.61618 207.112 7.60823 207.03 7.62414ZM4.05541 16.8729C4.00199 16.8627 3.94863 16.8525 3.89932 16.8411C3.78016 16.8718 3.74319 16.9002 3.80894 16.9218C3.85002 16.9355 3.91161 16.9434 3.96503 16.9536C4.08829 16.923 4.11704 16.8957 4.05541 16.8729Z" fill="#FFE492"/>
<path d="M23.4998 5.65201C23.0273 5.67361 22.5589 5.70089 22.0864 5.71453C21.8358 5.72135 21.7454 5.77023 21.6427 5.8157C21.5605 5.85208 21.466 5.86344 21.314 5.87026C20.032 5.92597 18.7541 5.98508 17.4763 6.04306C17.316 6.02828 17.2379 6.00441 17.2749 5.97599C17.2955 5.95894 17.3448 5.93507 17.3941 5.93279C18.2693 5.89073 19.1403 5.84753 20.0196 5.81456C20.2703 5.80547 20.3402 5.75545 20.4675 5.71453C20.5086 5.70089 20.5415 5.68042 20.5949 5.67247C20.6483 5.66337 20.7264 5.66451 20.7963 5.66224C22.2097 5.59744 23.6232 5.53379 25.0366 5.46899C25.1969 5.48377 25.275 5.50764 25.238 5.53606C25.2174 5.55311 25.1681 5.57698 25.1188 5.57926C24.5764 5.60313 24.0381 5.627 23.4998 5.65201Z" fill="#FFE492"/>
<path d="M281.522 11.7054C281.309 11.719 281.037 11.7383 280.815 11.6724C280.709 11.6406 280.594 11.6304 280.454 11.6372C280.252 11.6485 280.047 11.6576 279.842 11.6645C279.788 11.6656 279.718 11.6531 279.665 11.6428C279.55 11.6224 279.451 11.5883 279.328 11.5792C279.205 11.5701 279.057 11.5951 278.929 11.5894C278.761 11.5815 278.691 11.5508 278.736 11.5224C278.761 11.5064 278.81 11.4837 278.864 11.4803C279.624 11.4382 279.628 11.4382 279.842 11.4792C280.006 11.511 280.158 11.5462 280.392 11.5269C280.589 11.511 280.799 11.5076 281 11.4973C281.28 11.4837 281.28 11.4848 281.732 11.5565C281.847 11.5746 281.97 11.5735 282.118 11.5633C282.245 11.5553 282.369 11.5735 282.471 11.6042C282.406 11.6429 282.311 11.6679 282.184 11.6747C281.978 11.686 281.777 11.694 281.522 11.7054Z" fill="#FFE492"/>
<path d="M274.821 11.3551C275.338 11.3312 275.86 11.3107 276.378 11.2834C276.591 11.2721 276.76 11.2846 276.908 11.3232C277.068 11.3653 277.249 11.3619 277.446 11.3539C277.569 11.3494 277.689 11.3676 277.771 11.3994C277.804 11.4119 277.795 11.4346 277.808 11.4528C277.356 11.4733 276.9 11.4949 276.444 11.5131C276.39 11.5153 276.324 11.504 276.275 11.4949C276.164 11.4756 276.07 11.4415 275.95 11.4346C275.696 11.4187 275.441 11.4494 275.182 11.4551C275.059 11.4574 274.94 11.4403 274.858 11.4096C274.825 11.3949 274.833 11.3732 274.821 11.3551Z" fill="#FFE492"/>
<path d="M86.644 1.58145C87.1822 1.55644 87.7205 1.53258 88.2587 1.50757C88.419 1.52348 88.4929 1.54621 88.4601 1.57463C88.4395 1.59169 88.3902 1.61556 88.3409 1.61783C87.2644 1.66899 86.1879 1.71786 85.1155 1.76674C84.9552 1.75083 84.8813 1.7281 84.9142 1.69968C84.9347 1.68262 84.984 1.65875 85.0333 1.65648C85.5675 1.63033 86.1057 1.60646 86.644 1.58145Z" fill="#FFE492"/>
<path d="M3.84903 7.89822C3.60661 7.90049 3.35191 7.94255 3.08073 7.91072C3.02731 7.90504 2.95333 7.88684 2.95744 7.87661C2.96566 7.85956 3.01497 7.83796 3.06839 7.83114C3.30259 7.80272 3.59435 7.79931 3.71351 7.71974C3.77103 7.67881 3.87786 7.66518 4.02167 7.65722C4.1737 7.64813 4.2805 7.65153 4.39966 7.6754C4.5558 7.70609 4.6873 7.76293 4.93383 7.73338C4.94616 7.75157 4.97485 7.77203 4.96252 7.78908C4.9502 7.80613 4.89687 7.82205 4.84756 7.83455C4.80236 7.84592 4.74067 7.85615 4.68315 7.85956C4.41196 7.8732 4.14076 7.88458 3.84903 7.89822Z" fill="#FFE492"/>
<path d="M218.215 7.66972C218.416 7.66063 218.626 7.65608 218.823 7.64016C218.979 7.62766 219.078 7.63561 219.201 7.66289C219.411 7.71064 219.423 7.7061 219.937 7.71292C219.994 7.71406 220.064 7.7311 220.097 7.74588C220.118 7.75383 220.089 7.77545 220.064 7.78681C220.027 7.80159 219.974 7.82091 219.924 7.82091C219.6 7.82432 219.271 7.89139 218.955 7.81409C218.794 7.77544 218.618 7.75724 218.4 7.7743C218.269 7.78453 218.129 7.78908 217.993 7.79363C217.862 7.79817 217.726 7.78567 217.644 7.75157C217.525 7.70155 217.595 7.68223 217.808 7.68564C217.944 7.68791 218.08 7.67541 218.215 7.66972Z" fill="#FFE492"/>
<path d="M292.332 15.5056C292.59 15.4942 292.849 15.4806 293.112 15.4715C293.166 15.4692 293.231 15.4817 293.281 15.4897C293.478 15.5238 293.449 15.5817 293.457 15.6329C293.461 15.6863 293.005 15.7295 292.812 15.6931C292.599 15.6522 292.405 15.6056 292.11 15.6306C291.995 15.6397 291.859 15.6192 291.785 15.5863C291.674 15.5385 291.736 15.5192 291.945 15.5226C292.069 15.5249 292.2 15.5124 292.332 15.5056Z" fill="#FFE492"/>
<path d="M161.279 0.0329822C161.546 0.0204777 161.813 0.00116201 162.08 2.52383e-05C162.236 -0.00111153 162.314 0.0363948 162.277 0.0636773C162.257 0.0807289 162.207 0.104602 162.158 0.106875C161.624 0.134158 161.09 0.156897 160.556 0.181906C160.4 0.165991 160.321 0.142123 160.358 0.11484C160.379 0.0977888 160.428 0.0750528 160.478 0.0716425C160.745 0.0557277 161.012 0.0454867 161.279 0.0329822Z" fill="#FFE492"/>
<path d="M287.137 11.8051C287.396 11.7938 287.658 11.7767 287.917 11.771C288.053 11.7687 288.16 11.7949 288.176 11.8244C288.184 11.8381 288.119 11.862 288.065 11.8676C287.695 11.9063 287.297 11.9108 286.911 11.9302C286.787 11.9358 286.656 11.9177 286.582 11.8858C286.471 11.8369 286.533 11.8188 286.742 11.8222C286.874 11.8233 287.005 11.8108 287.137 11.8051Z" fill="#FFE492"/>
<path d="M224.621 7.82329C224.752 7.81761 224.888 7.80283 225.015 7.80737C225.151 7.81306 225.237 7.84603 225.278 7.87899C225.324 7.91651 225.32 7.95175 225.278 7.98358C225.213 8.03814 225.147 8.03587 224.995 7.9995C224.761 7.94266 224.744 7.94947 224.28 7.95175C224.226 7.95175 224.161 7.93469 224.12 7.91991C224.058 7.89718 224.091 7.86195 224.235 7.84148C224.342 7.82671 224.489 7.82897 224.621 7.82329Z" fill="#FFE492"/>
<path d="M277.825 11.4325C278.018 11.4234 278.211 11.4086 278.404 11.4086C278.54 11.4075 278.647 11.4336 278.659 11.462C278.663 11.4757 278.602 11.4984 278.552 11.5052C278.318 11.5359 278.055 11.5382 277.8 11.5484C277.681 11.553 277.55 11.5348 277.476 11.503C277.365 11.4552 277.431 11.4336 277.632 11.4404C277.694 11.4427 277.759 11.4359 277.825 11.4325Z" fill="#FFE492"/>
<path d="M246.743 10.0376C246.455 10.0512 246.184 10.0342 246.204 10.0046C246.233 9.96598 246.352 9.94096 246.476 9.93414C246.673 9.92277 246.87 9.91368 247.071 9.90686C247.199 9.90231 247.314 9.91936 247.417 9.94892C247.355 9.98529 247.26 10.0114 247.137 10.0194C247.01 10.0274 246.874 10.0319 246.743 10.0376Z" fill="#FFE492"/>
<path d="M245.305 9.89243C245.499 9.88334 245.692 9.86857 245.885 9.86857C246.02 9.86743 246.127 9.89357 246.14 9.92199C246.144 9.93563 246.082 9.95837 246.033 9.96519C245.799 9.99588 245.536 9.99816 245.281 10.0084C245.162 10.0129 245.03 9.99474 244.956 9.96291C244.845 9.91517 244.911 9.89358 245.112 9.9004C245.174 9.90267 245.24 9.89584 245.305 9.89243Z" fill="#FFE492"/>
<path d="M221.891 7.81436C222.085 7.80527 222.278 7.79048 222.471 7.78934C222.606 7.78821 222.713 7.81436 222.725 7.84278C222.73 7.85642 222.668 7.87802 222.619 7.88598C222.384 7.91667 222.121 7.91895 221.867 7.92918C221.748 7.93372 221.616 7.91553 221.542 7.8837C221.431 7.83596 221.497 7.81435 221.698 7.82118C221.76 7.82345 221.826 7.81664 221.891 7.81436Z" fill="#FFE492"/>
<path d="M220.706 7.74683C220.911 7.73774 220.977 7.73206 221.043 7.73206C221.166 7.73206 221.293 7.7457 221.367 7.77867C221.478 7.82641 221.412 7.84006 221.211 7.84233C220.952 7.84461 220.697 7.86848 220.439 7.87303C220.303 7.8753 220.196 7.84801 220.188 7.81959C220.184 7.80595 220.245 7.78208 220.295 7.77753C220.467 7.76048 220.656 7.75024 220.706 7.74683Z" fill="#FFE492"/>
<path d="M244.197 1.05944C244.066 1.06513 243.926 1.08104 243.803 1.07536C243.638 1.0674 243.573 1.03671 243.614 1.00829C243.638 0.992379 243.684 0.969644 243.733 0.966233C243.996 0.950318 244.263 0.940079 244.526 0.928711C244.682 0.945763 244.752 0.969633 244.711 0.998052C244.686 1.01397 244.641 1.03557 244.592 1.04011C244.464 1.05148 244.329 1.05376 244.197 1.05944Z" fill="#FFE492"/>
<path d="M84.0783 1.71539C84.2057 1.71426 84.3206 1.72903 84.4193 1.75745C84.3576 1.79383 84.2673 1.8177 84.144 1.82793C84.0824 1.83248 84.0125 1.83588 83.9468 1.83702C83.8194 1.8393 83.7043 1.82338 83.6057 1.79496C83.6673 1.75858 83.7618 1.73471 83.881 1.72448C83.9426 1.71994 84.0126 1.7188 84.0783 1.71539Z" fill="#FFE492"/>
<path d="M285.227 11.8009C285.223 11.768 285.473 11.7305 285.699 11.7316C285.818 11.7327 285.942 11.7486 286.012 11.7793C286.118 11.8259 286.057 11.8441 285.855 11.8407C285.732 11.8384 285.601 11.8578 285.477 11.8544C285.338 11.8532 285.256 11.8282 285.227 11.8009Z" fill="#FFE492"/>
<path d="M225.407 7.9607C225.403 7.94819 225.382 7.93342 225.395 7.92205C225.473 7.85953 225.945 7.84021 226.069 7.89477C226.089 7.905 226.097 7.92205 226.081 7.93228C226.056 7.94819 226.011 7.96865 225.962 7.9732C225.834 7.98457 225.703 7.99026 225.572 7.99139C225.514 7.99139 225.461 7.97207 225.407 7.9607Z" fill="#FFE492"/>
<path d="M6.00752 7.71641C5.52267 7.74029 5.51446 7.73801 5.60075 7.68117C5.67882 7.63001 5.82265 7.59932 6.0322 7.59932C6.09383 7.59932 6.15955 7.59705 6.21297 7.6016C6.27049 7.60728 6.35272 7.61864 6.36504 7.63228C6.38969 7.65842 6.31978 7.68685 6.19651 7.70617C6.1431 7.71527 6.07326 7.713 6.00752 7.71641Z" fill="#FFE492"/>
<path d="M90.4942 1.55485C90.3504 1.57418 90.2272 1.56736 90.1368 1.53098C90.0464 1.49461 90.1902 1.45141 90.4408 1.44118C90.5066 1.4389 90.5764 1.42981 90.6381 1.43436C90.6997 1.43777 90.7614 1.4514 90.7984 1.46504C90.8641 1.48778 90.823 1.51848 90.6915 1.54463C90.6381 1.55486 90.5599 1.55258 90.4942 1.55485Z" fill="#FFE492"/>
<path d="M285.235 11.7156C285.272 11.7008 285.309 11.686 285.35 11.6724C285.502 11.6917 285.568 11.7144 285.527 11.7406C285.502 11.7565 285.453 11.7701 285.416 11.7849C285.264 11.7656 285.203 11.7417 285.235 11.7156Z" fill="#FFE492"/>
<path d="M12.0627 20.6575C12.0627 20.6439 12.1203 20.6223 12.1655 20.6178C12.2518 20.6098 12.3585 20.6257 12.4325 20.6575C12.5352 20.703 12.4736 20.7269 12.2846 20.7144C12.1532 20.7053 12.0627 20.6825 12.0627 20.6575Z" fill="#FFE492"/>
<path d="M226.942 6.90249C226.996 6.91272 227.049 6.92296 227.099 6.93433C227.029 6.97639 226.942 6.99457 226.852 6.9832C226.794 6.97638 226.745 6.96273 226.692 6.9525C226.762 6.91044 226.844 6.89453 226.942 6.90249Z" fill="#FFE492"/>
<path d="M225.502 6.85144C225.584 6.83438 225.683 6.84349 225.798 6.87646C225.761 6.89123 225.728 6.90829 225.683 6.91965C225.605 6.93784 225.502 6.92874 225.391 6.89463C225.424 6.88099 225.461 6.86621 225.502 6.85144Z" fill="#FFE492"/>
<path d="M224.341 6.90155C224.394 6.91178 224.448 6.92201 224.497 6.93338C224.427 6.97544 224.345 6.99362 224.25 6.98226C224.193 6.97543 224.144 6.96179 224.09 6.95156C224.16 6.9095 224.242 6.89245 224.341 6.90155Z" fill="#FFE492"/>
<path d="M224.37 6.8414C224.431 6.86414 224.399 6.89142 224.279 6.92211C224.226 6.91188 224.164 6.90393 224.123 6.89029C224.058 6.86869 224.09 6.84026 224.214 6.80957C224.263 6.82094 224.316 6.83117 224.37 6.8414Z" fill="#FFE492"/>
</svg>
