<svg width="2652" height="612" viewBox="0 0 2652 612" fill="none" xmlns="http://www.w3.org/2000/svg">
<g opacity="0.3">
<path d="M1014.67 611.666C1005.2 611.666 995.983 611.166 987.124 610.169C968.543 608.077 951.377 603.781 936.102 597.401C919.684 590.545 905.284 581.204 893.299 569.637C869.212 546.387 857.161 518.544 845.506 491.617C843.216 486.329 840.849 480.862 838.445 475.558C822.045 439.402 801.255 407.731 774.892 378.736C722.303 320.896 648.344 271.534 561.009 235.987C460.006 194.878 351.412 174.4 255.228 178.327C198.696 180.635 124.001 202.59 90.6179 240.085C70.8066 262.338 69.2091 287.032 86.0013 311.496L85.6678 311.599C76.8632 298.769 73.027 285.907 74.2691 273.371C75.4086 261.87 80.802 250.628 90.3028 239.957C105.413 222.985 130.332 207.942 162.367 196.454C191.968 185.839 224.937 179.314 255.206 178.078C305.542 176.025 359.077 180.581 414.323 191.624C464.403 201.635 513.82 216.488 561.199 235.772C648.586 271.34 722.589 320.729 775.208 378.603C801.585 407.618 822.386 439.306 838.797 475.481C841.204 480.786 843.571 486.256 845.857 491.543C857.502 518.451 869.545 546.274 893.6 569.489C916.862 591.944 948.351 605.546 987.186 609.918C1040.97 615.973 1106.27 603.309 1161.88 576.037C1242.01 536.738 1297.62 479.535 1351.41 424.219C1360.84 414.523 1370.58 404.497 1380.23 394.815C1405.29 369.675 1439.22 337.098 1479.55 308.076C1520.77 278.412 1562.65 256.617 1607.6 241.444C1635.12 232.156 1664.28 225.899 1694.27 222.847C1721.97 220.026 1751.3 219.851 1781.43 222.322C1833.11 226.564 1888.78 238.544 1951.64 258.946C2075.42 299.121 2199.05 347.885 2319.12 403.886C2433.25 457.113 2545.18 517.343 2651.8 582.897L2651.55 583.079C2430.53 447.188 2194.99 338.209 1951.48 259.167C1813.91 214.512 1704.69 208.949 1607.77 241.663C1509.17 274.944 1440.29 335.004 1380.54 394.951C1370.89 404.63 1361.14 414.656 1351.72 424.352C1297.92 479.688 1242.29 536.907 1162.1 576.234C1136.19 588.943 1107.04 598.856 1077.8 604.899C1062.36 608.091 1047 610.179 1032.17 611.104C1026.25 611.481 1020.41 611.666 1014.67 611.666Z" fill="#FFE492"/>
<path d="M1023.93 597.878C999.781 597.878 977.408 594.789 957.414 588.691C935.118 581.893 915.878 571.357 900.226 557.38C898.841 556.142 897.466 554.862 896.14 553.572C872.309 530.423 859.723 502.942 847.555 476.365C845.093 470.993 842.55 465.438 839.971 460.047C824.607 427.948 806.108 399.657 783.409 373.562C780.613 370.349 777.719 367.129 774.799 363.993C721.436 306.651 646.877 257.914 559.182 223.051C457.45 182.644 348.548 163.013 252.536 167.776C196.414 170.589 122.064 192.904 88.5382 230.11C68.463 252.39 66.1914 277.134 81.9613 301.669L81.6242 301.767C73.3582 288.908 69.9617 276.021 71.5335 263.47C72.9771 251.942 78.5904 240.676 88.2231 229.982C103.487 213.039 128.333 197.979 160.067 186.432C189.398 175.759 222.224 169.046 252.503 167.53C302.777 165.036 356.371 169.157 411.793 179.776C461.994 189.396 511.645 203.885 559.365 222.839C647.111 257.722 721.711 306.488 775.106 363.863C778.027 367.001 780.925 370.224 783.721 373.438C806.434 399.551 824.945 427.857 840.315 459.973C842.898 465.364 845.441 470.92 847.903 476.293C860.068 502.854 872.643 530.315 896.441 553.432C897.763 554.717 899.137 555.997 900.519 557.232C932.865 586.124 977.309 597.878 1024.05 597.878C1024.3 597.878 1024.56 597.878 1024.81 597.878C1024.52 597.876 1024.23 597.878 1023.93 597.878ZM1033.9 597.706C1077.36 596.207 1122.19 584.989 1160.66 568.302C1243.63 532.159 1303.26 476.335 1360.93 422.35C1363.31 420.125 1365.68 417.904 1368.06 415.684C1373.27 410.81 1379.45 405.04 1385.76 399.224C1414.06 373.138 1448.32 342.787 1487.77 315.468C1529.74 286.399 1571.68 264.829 1615.97 249.52C1643.18 240.124 1671.94 233.505 1701.44 229.847C1728.78 226.457 1757.67 225.5 1787.3 226.999C1838.49 229.591 1893.53 239.418 1955.57 257.043C2016.06 274.2 2065.78 290.35 2112.05 307.869C2177.59 332.712 2240.02 361.335 2292.45 386.057C2414.34 443.697 2533.93 509.148 2647.91 580.593L2647.66 580.772C2533.69 509.337 2414.11 443.891 2292.24 386.258C2239.82 361.539 2177.4 332.921 2111.87 308.086C2065.62 290.572 2015.91 274.426 1955.43 257.274C1820.29 218.878 1712.47 216.483 1616.14 249.742C1516.15 284.297 1444.95 345.096 1386.06 399.371C1379.74 405.188 1373.57 410.955 1368.35 415.832C1365.98 418.05 1363.6 420.272 1361.23 422.498C1303.54 476.5 1243.89 532.343 1160.85 568.514C1140.27 577.444 1118.36 584.539 1095.74 589.597C1074.68 594.301 1053.92 597.021 1033.9 597.706Z" fill="#FFE492"/>
<path d="M1034.15 584.406C1031.24 584.406 1028.35 584.365 1025.49 584.278C1001.36 583.562 979.024 579.843 959.113 573.219C937.338 565.974 918.472 555.244 903.043 541.324C901.672 540.083 900.306 538.801 898.987 537.511C875.423 514.475 862.314 487.361 849.64 461.143C846.998 455.678 844.265 450.026 841.495 444.542C825.373 412.551 806.386 384.487 783.442 358.743C780.602 355.561 777.664 352.368 774.699 349.257C720.563 292.414 645.403 244.302 557.35 210.123C454.893 170.418 345.683 151.631 249.839 157.231C195.876 160.434 121.741 181.475 86.4935 220.102C66.1288 242.419 63.1646 267.229 77.9196 291.85L77.5789 291.941C69.8478 279.042 66.8983 266.127 68.8035 253.553C70.5549 241.988 76.4027 230.692 86.182 219.974C101.608 203.071 126.373 188.006 157.803 176.404C186.858 165.679 219.534 158.784 249.806 156.987C300.022 154.056 353.674 157.738 409.268 167.934C459.594 177.165 509.476 191.287 557.533 209.911C645.638 244.113 720.838 292.251 775.007 349.126C777.971 352.24 780.914 355.433 783.753 358.62C806.708 384.378 825.706 412.46 841.835 444.468C844.605 449.955 847.339 455.607 849.98 461.071C862.651 487.275 875.75 514.37 899.284 537.378C900.603 538.668 901.962 539.948 903.332 541.184C966.027 597.746 1077.14 591.673 1159.43 560.566C1245.87 527.608 1310.1 472.83 1372.22 419.857L1372.86 419.313C1378.87 414.178 1385.1 408.871 1391.29 403.63C1456.63 348.343 1528.45 291.525 1624.33 257.592C1651.25 248.086 1679.62 241.105 1708.63 236.844C1735.62 232.88 1764.07 231.14 1793.19 231.672C1843.97 232.597 1898.37 240.273 1959.51 255.136C2023.76 270.7 2072.12 285.007 2116.29 301.527C2179.23 325.111 2240.19 354.913 2293.98 381.208C2413.74 440.067 2531.51 506.372 2644.03 578.277L2643.77 578.454C2531.27 506.556 2413.51 440.259 2293.76 381.405C2239.98 355.115 2179.03 325.318 2116.11 301.741C2071.95 285.226 2023.62 270.924 1959.39 255.364C1826.86 223.147 1720.45 223.923 1624.5 257.806C1528.68 291.717 1456.89 348.511 1391.57 403.778C1385.38 409.019 1379.16 414.328 1373.14 419.461L1372.51 420.005C1341.55 446.403 1309.54 473.699 1274.97 498.081C1236.13 525.481 1198.39 545.989 1159.61 560.775C1119.03 576.111 1074.83 584.406 1034.15 584.406Z" fill="#FFE492"/>
<path d="M2639.89 576.133C2528.85 503.772 2412.91 436.623 2295.29 376.55C2290.31 374.025 2285.32 371.487 2280.31 368.942C2229.37 343.041 2176.69 316.259 2120.36 295.394C2065.71 275.21 2010.32 262.867 1963.35 253.457C1833.69 227.319 1728.69 231.265 1632.88 265.87C1534.54 301.499 1458.33 360.653 1397.1 408.187C1393.43 411.04 1389.76 413.897 1386.09 416.758C1383.37 418.87 1380.66 420.982 1377.94 423.091C1343.08 450.184 1311.37 474.406 1276.33 496.508C1236.3 521.757 1197.72 540.248 1158.37 553.041C1121.5 565.031 1082.1 571.375 1045.46 571.377C1038.79 571.377 1032.21 571.168 1025.75 570.742C1002.15 569.189 980.306 564.824 960.82 557.769C939.558 550.072 921.066 539.138 905.849 525.269C904.49 524.026 903.134 522.741 901.822 521.449C878.537 498.534 864.918 471.801 851.75 445.95C848.914 440.382 845.979 434.622 843.011 429.031C826.12 397.141 806.642 369.301 783.471 343.917C780.587 340.759 777.601 337.596 774.596 334.511C719.684 278.168 643.926 230.682 555.517 197.185C452.335 158.181 342.821 140.243 247.146 146.673C181.739 151.156 114.856 177.214 84.4962 210.039C63.8128 232.403 60.1451 257.292 73.8815 282.016L73.5371 282.102C66.3446 269.156 63.8384 256.201 66.0881 243.595C68.1583 231.989 74.2479 220.656 84.1847 209.909C99.7715 193.054 124.456 177.989 155.571 166.346C184.348 155.577 216.855 148.502 247.109 146.429C297.266 143.057 350.973 146.304 406.74 156.076C457.186 164.918 507.306 178.676 555.7 196.968C644.165 230.485 719.962 277.998 774.908 334.376C777.916 337.463 780.902 340.628 783.786 343.787C806.972 369.185 826.457 397.041 843.359 428.945C846.327 434.538 849.262 440.295 852.098 445.866C865.259 471.703 878.871 498.418 902.126 521.306C903.438 522.596 904.79 523.878 906.146 525.119C971.596 584.773 1082.84 577.322 1158.21 552.817C1248.14 523.578 1316.95 470.108 1377.67 422.929C1380.38 420.817 1383.1 418.705 1385.81 416.595C1389.48 413.735 1393.15 410.877 1396.83 408.024C1431.78 380.893 1466.29 354.527 1504.24 330.231C1547.87 302.289 1589.9 281.167 1632.71 265.654C1659.35 256.031 1687.31 248.688 1715.82 243.832C1742.47 239.29 1770.48 236.769 1799.09 236.336C1849.54 235.573 1903.31 241.097 1963.46 253.22C2010.45 262.636 2065.86 274.983 2120.54 295.18C2176.89 316.052 2229.58 342.841 2280.54 368.747C2285.54 371.292 2290.54 373.83 2295.52 376.356C2413.14 436.433 2529.1 503.59 2640.15 575.958L2639.89 576.133Z" fill="#FFE492"/>
<path d="M2636.01 573.814C2524.33 499.607 2410.22 431.603 2296.82 371.696C2290.04 368.112 2283.1 364.417 2276.38 360.845C2228.31 335.264 2178.6 308.812 2124.61 289.048C2070.69 269.383 2014.84 259.054 1967.31 251.546C1840.81 231.368 1737.2 238.482 1641.26 273.934C1549.75 307.872 1478.05 358.905 1408.72 408.258L1401.1 413.676C1395.09 417.956 1388.87 422.38 1382.74 426.719C1313.34 475.789 1243.86 521.778 1157.13 545.301C1136.09 551.01 1114.48 554.965 1092.89 557.065C1069.72 559.317 1047.21 559.349 1025.98 557.159C1002.93 554.778 981.578 549.779 962.525 542.298C941.79 534.158 923.668 523.024 908.667 509.209C907.315 507.959 905.97 506.672 904.67 505.382C881.671 482.602 867.561 456.263 853.916 430.791C850.871 425.107 847.72 419.229 844.54 413.52C826.864 381.729 806.903 354.113 783.512 329.093C780.588 325.967 777.558 322.828 774.505 319.769C718.82 263.925 642.465 217.064 553.693 184.249C449.781 145.951 339.96 128.858 244.45 136.122C179.64 141.156 113.061 167.397 82.5474 199.936C61.5195 222.356 57.1264 247.342 69.8406 272.191L69.4925 272.272C62.8386 259.27 60.7831 246.266 63.3809 233.623C65.7772 221.968 72.1196 210.59 82.2323 199.808C97.9876 183.011 122.584 167.96 153.369 156.283C181.861 145.474 214.192 138.229 244.406 135.881C294.504 132.071 348.266 134.879 404.208 144.228C454.779 152.681 505.13 166.072 553.865 184.035C642.689 216.867 719.087 263.758 774.806 319.633C777.858 322.695 780.892 325.836 783.816 328.963C807.221 353.994 827.194 381.626 844.877 413.434C848.057 419.143 851.208 425.023 854.253 430.707C867.89 456.165 881.993 482.492 904.967 505.244C906.264 506.529 907.608 507.814 908.957 509.064C972.832 567.889 1078.96 566.237 1156.99 545.075C1243.65 521.572 1313.1 475.599 1382.47 426.552C1388.6 422.212 1394.82 417.789 1400.83 413.508L1408.45 408.09C1442.48 383.866 1477.67 358.814 1515.89 335.51C1559.18 309.117 1600.13 288.905 1641.08 273.717C1667.44 263.974 1695.01 256.27 1723 250.82C1749.32 245.695 1776.9 242.391 1804.97 241.001C1855.21 238.512 1908.33 241.884 1967.39 251.305C2014.94 258.817 2070.82 269.149 2124.77 288.831C2178.8 308.603 2228.52 335.062 2276.61 360.651C2283.32 364.222 2290.26 367.915 2297.05 371.501C2410.45 431.414 2524.58 499.422 2636.26 573.636L2636.01 573.814Z" fill="#FFE492"/>
<path d="M2632.12 571.495C2521.41 496.464 2409.11 427.608 2298.35 366.844C2290.03 362.278 2281.49 357.53 2273.24 352.939C2227.76 327.634 2180.73 301.467 2128.85 282.708C2075.19 263.379 2019.08 255.145 1971.27 249.641C1848.28 235.263 1746.07 245.547 1649.63 282.003C1565.47 313.952 1496.37 359.231 1429.54 403.017C1422.51 407.625 1415.24 412.389 1408.15 417.004C1399.83 422.424 1393.47 426.543 1387.54 430.353C1355.77 450.75 1317.94 474.236 1278.25 493.771C1236.18 514.47 1196.16 528.797 1155.89 537.57C1134.72 542.183 1113.2 545.092 1091.93 546.215C1069.09 547.421 1046.98 546.535 1026.21 543.578C1003.71 540.376 982.856 534.741 964.225 526.832C944.021 518.256 926.276 506.923 911.481 493.153C910.147 491.905 908.81 490.615 907.513 489.32C884.818 466.693 870.235 440.761 856.129 415.682C852.857 409.865 849.475 403.852 846.063 398.01C827.593 366.308 807.144 338.918 783.544 314.27C780.576 311.171 777.502 308.062 774.406 305.027C717.947 249.683 640.992 203.447 551.861 171.314C447.227 133.72 337.098 117.476 241.756 125.57C187.507 130.277 116.652 151.958 80.6491 189.783C59.2439 212.272 54.1069 237.37 65.7988 262.363L65.4507 262.436C59.3354 249.368 57.7379 236.307 60.6985 223.615C63.4318 211.9 70.038 200.473 80.3413 189.65C96.2651 172.921 120.77 157.896 151.214 146.193C179.42 135.352 211.557 127.943 241.712 125.326C291.752 121.078 345.573 123.448 401.683 132.374C452.375 140.438 502.961 153.465 552.033 171.097C641.215 203.248 718.215 249.511 774.707 304.886C777.803 307.922 780.88 311.035 783.848 314.137C807.459 338.797 827.919 366.202 846.401 397.919C849.815 403.763 853.197 409.777 856.469 415.593C870.565 440.66 885.144 466.578 907.813 489.18C909.11 490.472 910.444 491.76 911.778 493.005C964.917 542.468 1056.13 559.04 1155.78 537.331C1246.01 517.673 1319.62 473.613 1387.29 430.171C1393.22 426.36 1399.57 422.242 1407.89 416.822C1414.98 412.206 1422.25 407.443 1429.28 402.835C1462.18 381.279 1496.2 358.989 1532.49 338.118C1573.51 314.514 1611.78 296.086 1649.46 281.784C1675.57 271.913 1702.73 263.847 1730.19 257.811C1756.2 252.093 1783.35 248.009 1810.87 245.668C1860.98 241.41 1913.47 242.628 1971.34 249.392C2019.17 254.901 2075.31 263.138 2129.02 282.484C2180.93 301.256 2227.98 327.43 2273.47 352.742C2281.72 357.333 2290.26 362.081 2298.58 366.647C2409.35 427.419 2521.66 496.279 2632.38 571.316L2632.12 571.495Z" fill="#FFE492"/>
<path d="M2628.24 569.177C2518.48 493.316 2408.01 423.606 2299.87 361.99C2290.67 356.75 2281.23 351.248 2272.09 345.929C2228.56 320.589 2183.56 294.388 2133.09 276.362C2079.39 257.265 2023.16 251.172 1975.23 247.731C1857.81 239.074 1754.04 252.923 1658 290.068C1581.53 319.779 1515.98 359.526 1452.58 397.966C1439.78 405.73 1426.54 413.76 1413.67 421.413C1405.79 426.097 1398.82 430.211 1392.33 433.987C1362.17 451.528 1322.06 474.019 1279.19 492.4C1236.11 510.867 1195.37 523.113 1154.64 529.836C1110.21 537.169 1065.87 537.223 1026.42 529.996C1004.48 525.976 984.126 519.709 965.912 511.366C946.248 502.36 928.88 490.829 914.286 477.101C912.964 475.851 911.637 474.558 910.348 473.264C887.975 450.809 872.938 425.302 858.399 400.637C854.882 394.67 851.247 388.502 847.579 382.508C828.299 350.889 807.363 323.72 783.572 299.454C780.561 296.382 777.442 293.3 774.302 290.292C717.07 235.448 639.518 189.835 550.028 158.388C444.672 121.501 334.235 106.104 239.058 115.027C174.557 121.206 110.154 147.151 78.805 179.585C56.9894 202.155 51.094 227.384 61.7563 252.544L61.4046 252.61C55.8316 239.463 54.6957 226.333 58.0263 213.587C61.1041 201.805 67.9925 190.32 78.4973 179.449C94.5896 162.799 118.999 147.808 149.088 136.096C176.997 125.233 208.933 117.661 239.007 114.781C288.988 110.094 342.867 112.029 399.15 120.529C449.967 128.204 500.787 140.867 550.196 158.167C639.738 189.633 717.334 235.271 774.603 290.149C777.743 293.157 780.861 296.242 783.876 299.316C807.678 323.597 828.625 350.778 847.916 382.412C851.584 388.406 855.219 394.577 858.736 400.544C873.268 425.196 888.297 450.691 910.648 473.123C911.938 474.418 913.26 475.706 914.583 476.956C966.81 526.099 1056.52 545.777 1154.55 529.597C1243.92 514.845 1321.54 474.837 1392.09 433.802C1398.57 430.026 1405.55 425.915 1413.42 421.231C1426.29 413.578 1439.53 405.55 1452.33 397.787C1515.74 359.339 1581.31 319.582 1657.82 289.859C1683.7 279.847 1710.46 271.421 1737.37 264.81C1763.1 258.488 1789.81 253.622 1816.75 250.345C1866.84 244.253 1918.7 243.32 1975.27 247.49C2023.22 250.934 2079.5 257.029 2133.26 276.148C2183.76 294.186 2228.78 320.397 2272.33 345.746C2281.46 351.066 2290.91 356.565 2300.11 361.806C2408.25 423.426 2518.74 493.141 2628.5 569.007L2628.24 569.177Z" fill="#FFE492"/>
<path d="M2624.35 566.858C2515.58 490.16 2406.92 419.601 2301.4 357.138C2291.71 351.398 2281.73 345.32 2272.09 339.442C2230.15 313.888 2186.78 287.463 2137.33 270.018C2083.41 251.084 2027.13 247.162 1979.19 245.823C1866.21 242.436 1763.88 259.547 1666.38 298.134C1597.99 325.325 1537.04 359.738 1478.08 393.016C1457.81 404.46 1438.66 415.269 1419.19 425.821C1411.27 430.117 1404.05 433.977 1397.13 437.617C1352.45 461.088 1315.27 478.059 1280.13 491.021C1236.05 507.285 1194.6 517.451 1153.4 522.099C1137.42 523.901 1121.49 524.799 1105.86 524.799C1078.14 524.799 1051.33 521.983 1026.64 516.405C981.958 506.31 945.105 487.683 917.101 461.042C915.782 459.779 914.467 458.487 913.192 457.197C891.16 434.937 875.701 409.883 860.752 385.651C856.963 379.512 853.05 373.166 849.104 366.995C829 335.449 807.572 308.507 783.61 284.628C780.554 281.583 777.392 278.528 774.208 275.547C716.203 221.203 638.049 176.215 548.2 145.45C442.123 109.272 331.381 94.7191 236.37 104.472C171.601 111.258 109.056 136.711 77.0358 169.317C54.7769 191.981 48.101 217.36 57.7228 242.712L57.3674 242.773C52.344 229.535 51.6771 216.326 55.3888 203.514C58.8256 191.654 66.0035 180.104 76.7317 169.182C92.9927 152.623 117.296 137.681 147.019 125.969C174.627 115.089 206.339 107.369 236.315 104.228C286.237 99.1032 340.175 100.6 396.627 108.676C447.567 115.965 498.618 128.263 548.368 145.228C638.269 176.013 716.466 221.025 774.508 275.402C777.692 278.385 780.854 281.44 783.914 284.487C807.891 308.379 829.329 335.336 849.441 366.894C853.387 373.065 857.304 379.413 861.089 385.552C876.031 409.772 891.482 434.816 913.496 457.056C914.771 458.344 916.082 459.636 917.401 460.896C969.694 510.65 1055.69 532.868 1153.34 521.853C1246.29 511.366 1328.62 473.288 1396.9 437.42C1403.82 433.78 1411.04 429.922 1418.96 425.627C1438.43 415.074 1457.58 404.268 1477.85 392.824C1536.81 359.538 1597.78 325.121 1666.19 297.92C1691.88 287.754 1718.24 278.966 1744.56 271.798C1770.05 264.856 1796.32 259.207 1822.64 255.01C1872.84 247.007 1924.06 243.92 1979.21 245.575C2027.19 246.914 2083.51 250.84 2137.5 269.797C2186.99 287.254 2230.37 313.692 2272.33 339.255C2281.98 345.133 2291.95 351.211 2301.64 356.949C2407.16 419.416 2515.83 489.983 2624.61 566.685L2624.35 566.858Z" fill="#FFE492"/>
<path d="M2620.47 564.539C2511.15 485.906 2407.28 416.478 2302.93 352.284C2292.97 346.16 2283.17 339.905 2272.79 333.284C2232.22 307.398 2190.26 280.633 2141.58 263.675C2086.98 244.748 2028.23 243.172 1983.15 243.916C1875.31 245.462 1774.43 265.836 1674.75 306.204C1614.94 330.541 1559.72 359.768 1506.32 388.034C1478.25 402.89 1451.74 416.918 1424.71 430.233C1416.68 434.189 1409.23 437.792 1401.92 441.251C1356.63 462.657 1318.23 478.032 1281.07 489.641C1235.97 503.731 1193.8 511.817 1152.15 514.362C1130.75 515.669 1109.5 515.423 1088.99 513.631C1067.27 511.733 1046.36 508.093 1026.85 502.813C983.603 491.108 947.626 471.654 919.915 444.988C918.607 443.722 917.303 442.428 916.035 441.138C894.373 419.107 878.526 394.53 863.2 370.764C859.111 364.423 854.883 357.865 850.629 351.489C829.681 320.013 807.771 293.295 783.643 269.809C780.54 266.791 777.333 263.764 774.113 260.81C715.335 206.965 636.584 162.602 546.375 132.519C463.114 104.868 377.252 90.4412 298.515 90.4412C276.256 90.4412 254.584 91.5932 233.68 93.9243C169.692 101.201 107.539 126.745 75.3324 159.001C52.6008 181.771 45.1152 207.322 53.6853 232.89L53.3263 232.945C48.8525 219.603 48.6656 206.303 52.7693 193.416C56.5726 181.47 64.0618 169.844 75.0246 158.863C91.4541 142.408 115.644 127.527 144.985 115.827C172.682 104.782 203.331 97.1244 233.614 93.6831C283.478 88.1199 337.475 89.1808 394.099 96.8314C445.161 103.729 496.45 115.66 546.537 132.295C636.796 162.396 715.595 206.783 774.41 260.659C777.634 263.613 780.844 266.644 783.947 269.664C808.086 293.162 830.008 319.893 850.966 351.384C855.22 357.759 859.452 364.317 863.541 370.66C878.86 394.417 894.699 418.983 916.343 440.997C917.611 442.285 918.915 443.58 920.219 444.842C972.04 494.707 1056.56 519.953 1152.12 514.114C1248.82 508.203 1336.3 471.959 1401.72 441.044C1409.02 437.586 1416.47 433.982 1424.5 430.029C1451.53 416.719 1478.03 402.688 1506.1 387.835C1559.51 359.566 1614.73 330.332 1674.56 305.987C1725.89 285.204 1776.25 270.058 1828.53 259.68C1878.96 249.671 1929.54 244.433 1983.15 243.665C2013.74 243.16 2038.7 244.036 2061.69 246.419C2091.38 249.496 2117.57 255.067 2141.75 263.451C2190.48 280.424 2232.46 307.203 2273.05 333.101C2283.43 339.723 2293.23 345.975 2303.18 352.1C2407.54 416.295 2511.42 485.729 2620.74 564.367L2620.47 564.539Z" fill="#FFE492"/>
<path d="M2616.58 562.22C2508.27 482.726 2406.17 412.47 2304.45 347.43C2294.39 340.996 2284.47 334.367 2273.97 327.349C2234.61 301.054 2193.91 273.861 2145.82 257.329C2090.77 238.49 2032.09 239.244 1987.11 242.003C1885.35 248.031 1785.91 271.67 1683.12 314.265C1632.48 335.354 1584.26 359.487 1537.63 382.828C1500.76 401.277 1465.95 418.705 1430.23 434.634C1422.16 438.238 1414.24 441.684 1406.71 444.874C1361.34 464.084 1320.54 478.271 1282.01 488.245C1235.87 500.188 1192.98 506.2 1150.91 506.618C1129.5 506.83 1108.33 505.53 1088.01 502.751C1066.7 499.836 1046.2 495.28 1027.06 489.205C985.3 475.944 950.195 455.663 922.726 428.923C921.436 427.66 920.139 426.363 918.875 425.066C897.62 403.303 881.429 379.246 865.769 355.982C861.339 349.399 856.755 342.591 852.15 335.971C830.345 304.554 807.947 278.063 783.676 254.978C780.529 251.987 777.279 248.987 774.014 246.06C714.463 192.715 635.111 148.977 544.544 119.576C437.027 84.8188 325.666 71.9595 230.984 83.3664C167.824 91.1081 106.085 116.718 73.6987 148.608C50.4541 171.498 42.1368 197.242 49.6407 223.059L49.2816 223.105C45.3685 209.648 45.6689 196.245 50.1793 183.27C54.3673 171.225 62.1753 159.515 73.3946 148.468C89.9853 132.13 114.054 117.324 143 105.649C170.378 94.606 200.778 86.8176 230.918 83.1227C280.727 77.1239 334.779 77.7442 391.571 84.9714C442.757 91.4847 494.277 103.052 544.701 119.352C635.324 148.768 714.719 192.533 774.304 245.91C777.572 248.836 780.826 251.84 783.973 254.833C808.258 277.93 830.664 304.434 852.479 335.863C857.089 342.482 861.669 349.291 866.102 355.876C881.755 379.13 897.939 403.178 919.179 424.926C920.443 426.22 921.74 427.518 923.026 428.778C975.393 479.752 1056.32 507.312 1150.9 506.367C1227.64 505.604 1308.87 485.995 1406.52 444.66C1414.04 441.47 1421.95 438.026 1430.02 434.422C1465.73 418.496 1500.55 401.073 1537.4 382.623C1584.04 359.28 1632.27 335.142 1682.93 314.049C1734.75 292.571 1784.3 276.315 1834.42 264.344C1885.18 252.219 1935.12 244.826 1987.08 241.75C2032.1 238.985 2090.85 238.234 2145.99 257.102C2194.13 273.654 2234.85 300.859 2274.23 327.166C2284.73 334.184 2294.65 340.811 2304.71 347.243C2406.43 412.285 2508.53 482.546 2616.85 562.046L2616.58 562.22Z" fill="#FFE492"/>
<path d="M2612.7 559.901C2505.39 479.543 2405.07 408.455 2305.98 342.578C2295.93 335.89 2285.99 328.941 2275.48 321.583C2237.24 294.819 2197.69 267.143 2150.07 250.985C2094.5 232.216 2035.91 235.305 1991.08 240.093C1895.32 250.124 1800.13 276.256 1691.5 322.332C1650.75 339.691 1610.93 358.734 1572.43 377.149C1525.66 399.515 1481.49 420.642 1435.75 439.043C1427.51 442.361 1419.35 445.546 1411.51 448.505C1365.32 465.918 1323.26 478.462 1282.95 486.851C1260.37 491.551 1238.08 494.955 1216.69 496.971C1193.88 499.12 1171.33 499.762 1149.66 498.881C1105.7 497.092 1064.52 489.259 1027.28 475.602C987.061 460.852 952.832 439.747 925.546 412.866C924.263 411.594 922.977 410.294 921.721 409.004C900.92 387.561 884.439 364.075 868.504 341.365C863.679 334.489 858.692 327.38 853.676 320.463C830.992 289.098 808.107 262.83 783.712 240.157C780.52 237.191 777.223 234.217 773.918 231.32C713.593 178.472 633.644 135.36 542.718 106.646C434.483 72.5994 322.818 60.5869 228.293 72.8185C127.082 86.1184 28.4575 143.584 45.6052 213.234L45.2424 213.274C40.9519 195.851 43.4654 178.686 52.7097 162.253C61.1516 147.244 75.0053 133.12 93.886 120.275C111.44 108.332 132.501 98.0202 156.478 89.6262C179.283 81.6433 204.092 75.7453 228.22 72.5748C277.97 66.1378 332.08 66.3224 389.045 73.1262C440.356 79.2531 492.11 90.4557 542.872 106.424C633.849 135.158 713.846 178.295 774.207 231.172C777.516 234.072 780.813 237.045 784.008 240.014C808.414 262.697 831.311 288.98 854.006 320.358C859.022 327.275 864.009 334.384 868.834 341.261C884.765 363.964 901.239 387.441 922.028 408.871C923.281 410.161 924.564 411.461 925.846 412.731C978.289 464.39 1057.78 494.896 1149.69 498.637C1227.49 501.801 1313.07 485.335 1411.33 448.293C1419.17 445.334 1427.32 442.152 1435.56 438.833C1481.29 420.438 1525.46 399.313 1572.22 376.949C1610.73 358.532 1650.55 339.486 1691.3 322.125C1799.98 276.029 1895.21 249.887 1991.02 239.849C2021.14 236.632 2046.08 235.603 2069.52 236.615C2099.47 237.907 2125.87 242.535 2150.23 250.764C2197.9 266.939 2237.47 294.632 2275.74 321.411C2286.25 328.766 2296.18 335.715 2306.24 342.401C2405.33 408.283 2505.66 479.373 2612.96 559.736L2612.7 559.901Z" fill="#FFE492"/>
<path d="M2608.81 557.582C2502.53 476.347 2403.97 404.432 2307.51 337.723C2297.53 330.821 2287.67 323.592 2277.23 315.934C2240.02 288.657 2201.54 260.45 2154.31 244.639C2097.53 225.712 2036.22 231.888 1995.04 238.18C1883.27 255.046 1783.11 294.259 1699.87 330.398C1669.96 343.439 1640.12 357.254 1611.25 370.613C1553.36 397.412 1498.68 422.724 1441.28 443.451C1432.83 446.501 1424.44 449.423 1416.31 452.138C1369.22 467.84 1325.9 478.74 1283.9 485.455C1236.28 493.069 1190.7 494.984 1148.43 491.144C1104.99 487.198 1064.31 477.391 1027.51 461.994C988.905 445.846 955.552 423.916 928.365 396.811C927.097 395.539 925.818 394.236 924.569 392.942C904.285 371.893 887.599 349.052 871.459 326.961C866.171 319.722 860.701 312.239 855.205 304.955C831.297 273.196 808.591 247.898 783.753 225.335C780.518 222.396 777.18 219.452 773.827 216.579C712.722 164.234 632.172 121.747 540.887 93.7119C431.933 60.3796 319.961 49.2114 225.598 62.2676C124.024 76.5079 27.4144 133.193 41.5648 203.41L41.2021 203.442C37.6919 186.021 40.7294 168.874 50.2266 152.477C58.9323 137.454 72.8665 123.315 91.6483 110.456C109.162 98.4627 130.113 88.0749 153.922 79.575C176.591 71.4813 201.353 65.4135 225.524 62.0239C275.22 55.1487 329.385 54.8977 386.518 61.2756C437.953 67.016 489.942 77.8544 541.041 93.4879C632.381 121.538 712.975 164.049 774.109 216.427C777.462 219.302 780.803 222.248 784.042 225.187C808.895 247.76 831.609 273.073 855.527 304.844C861.023 312.128 866.494 319.614 871.781 326.853C887.917 348.936 904.6 371.77 924.869 392.809C926.119 394.104 927.394 395.403 928.661 396.676C981.511 449.364 1059.57 482.826 1148.47 490.9C1228.2 498.142 1315.75 485.389 1416.14 451.916C1424.27 449.204 1432.67 446.284 1441.1 443.234C1498.49 422.513 1553.16 397.205 1611.05 370.408C1639.91 357.049 1669.75 343.233 1699.67 330.189C1755.64 305.89 1802.2 287.938 1846.2 273.693C1897.98 256.925 1946.64 245.23 1994.95 237.938C2024.41 233.439 2050.08 231.4 2073.43 231.711C2103.51 232.109 2130.02 236.265 2154.47 244.417C2201.77 260.248 2240.26 288.472 2277.49 315.766C2287.94 323.422 2297.8 330.651 2307.77 337.549C2404.24 404.26 2502.8 476.18 2609.09 557.417L2608.81 557.582Z" fill="#FFE492"/>
<path d="M2604.93 555.261C2499.67 473.148 2402.88 400.403 2309.04 332.867C2299.2 325.785 2289.46 318.304 2279.15 310.383C2242.92 282.557 2205.47 253.784 2158.56 238.293C2101.16 219.41 2040.01 228.092 1999 236.267C1897.74 256.282 1807.41 294.392 1708.25 338.462C1690.36 346.44 1672.27 354.674 1654.78 362.64C1587.49 393.272 1517.92 424.945 1446.8 447.857C1438.16 450.644 1429.51 453.305 1421.1 455.766C1373.69 469.63 1327.85 479.146 1284.84 484.052C1236.12 489.611 1189.81 489.391 1147.18 483.405C1104.35 477.391 1064.16 465.608 1027.72 448.382C990.84 430.949 958.355 408.196 931.167 380.757C929.911 379.482 928.643 378.177 927.401 376.882C907.729 356.326 890.937 334.228 874.698 312.859C868.846 305.159 862.797 297.199 856.718 289.452C831.876 257.725 808.698 232.644 783.775 210.519C780.503 207.614 777.117 204.695 773.717 201.844C711.85 149.991 630.707 108.13 539.055 80.7789C429.387 48.1605 317.11 37.8391 222.901 51.7175C124.551 66.3639 26.1575 121.06 37.5197 193.583L37.1569 193.608C34.4272 176.187 37.9887 159.06 47.7386 142.7C56.7045 127.66 70.723 113.508 89.4022 100.634C123.866 76.8847 172.495 58.9669 222.82 51.4738C272.457 44.1629 326.681 43.4737 383.986 49.4258C435.546 54.7822 487.766 65.2538 539.201 80.5525C630.905 107.918 712.096 149.807 774.003 201.684C777.407 204.537 780.792 207.457 784.068 210.364C809.002 232.501 832.191 257.592 857.041 289.331C863.119 297.08 869.172 305.041 875.024 312.741C891.259 334.105 908.047 356.198 927.709 376.745C928.947 378.039 930.215 379.342 931.472 380.617C985.864 435.515 1060.48 470.974 1147.25 483.161C1227.59 494.445 1319.67 485.153 1420.95 455.54C1429.35 453.078 1437.99 450.42 1446.63 447.636C1517.73 424.731 1587.29 393.062 1654.56 362.435C1672.06 354.47 1690.15 346.236 1708.04 338.258C1751.44 318.966 1801.95 296.839 1852.08 278.365C1904.52 259.042 1952.54 245.195 1998.89 236.033C2028.07 230.217 2053.74 227.199 2077.35 226.81C2107.12 226.317 2134.49 230.108 2158.71 238.074C2179.72 245.013 2200.87 255.369 2223.37 269.735C2243.23 282.419 2261.63 296.554 2279.42 310.22C2289.72 318.139 2299.46 325.62 2309.3 332.7C2403.15 400.238 2499.94 472.985 2605.2 555.101L2604.93 555.261Z" fill="#FFE492"/>
<path d="M2601.04 552.942C2496.82 469.942 2401.8 396.368 2310.57 328.015C2300.9 320.778 2291.33 313.071 2281.2 304.913C2245.92 276.509 2209.44 247.137 2162.8 231.952C2119.22 217.805 2066.93 218.593 2002.96 234.359C1913.51 256.28 1833.56 292.945 1748.9 331.766C1738.36 336.601 1727.47 341.598 1716.62 346.534C1712.37 348.471 1708.12 350.413 1703.88 352.353C1623.22 389.2 1539.81 427.303 1452.32 452.268C1443.47 454.794 1434.59 457.194 1425.9 459.4C1377.45 471.69 1330.31 479.513 1285.8 482.649C1235.96 486.159 1188.9 483.811 1145.94 475.668C1103.78 467.675 1064.09 453.915 1027.96 434.769C992.935 416.211 961.322 392.639 933.992 364.702C932.746 363.425 931.49 362.118 930.255 360.821C911.33 340.909 894.593 319.702 878.401 299.195C871.847 290.889 865.064 282.301 858.253 273.941C832.451 242.236 808.803 217.372 783.822 195.695C780.502 192.815 777.077 189.925 773.632 187.102C710.981 135.751 629.237 94.5119 537.226 67.8456C426.847 35.9435 314.259 26.4664 220.207 41.167C123.664 56.382 25.4096 111.526 33.4814 183.759L33.115 183.779C31.1694 166.356 35.2512 149.248 45.2539 132.93C54.4836 117.872 68.5828 103.703 87.163 90.8195C121.48 67.021 169.941 48.8373 220.123 40.9282C269.705 33.1791 323.984 32.0518 381.457 37.5805C433.142 42.5479 485.6 52.6552 537.373 67.6191C629.435 94.3027 711.23 135.564 773.907 186.942C777.351 189.765 780.785 192.66 784.104 195.54C809.096 217.229 832.759 242.101 858.568 273.818C865.383 282.178 872.162 290.769 878.72 299.074C894.904 319.577 911.642 340.778 930.559 360.683C931.794 361.98 933.047 363.285 934.293 364.562C989.865 421.366 1063.08 459.7 1146.04 475.424C1227.92 490.947 1322.04 485.475 1425.77 459.163C1434.45 456.958 1443.33 454.56 1452.17 452.037C1539.64 427.081 1623.03 388.986 1703.67 352.143C1707.92 350.201 1712.16 348.262 1716.41 346.324C1727.26 341.389 1738.15 336.392 1748.69 331.56C1833.37 292.731 1913.35 256.056 2002.83 234.125C2031.73 227.002 2057.39 223.006 2081.27 221.906C2111.16 220.53 2138.64 223.836 2162.96 231.728C2183.85 238.529 2204.73 248.932 2226.81 263.531C2246.28 276.413 2264.18 290.821 2281.48 304.753C2291.62 312.908 2301.18 320.613 2310.84 327.848C2402.08 396.203 2497.1 469.78 2601.32 552.782L2601.04 552.942Z" fill="#FFE492"/>
<path d="M2597.16 550.624C2502.03 473.281 2406.12 396.75 2312.09 323.161C2302.52 315.713 2293.03 307.71 2282.99 299.24C2250.33 271.685 2213.3 240.455 2167.05 225.609C2122.95 211.487 2070.58 213.724 2006.92 232.447C1931.23 254.636 1864.24 287.262 1793.33 321.803C1771.12 332.619 1748.15 343.807 1724.99 354.598C1684.56 373.476 1640.82 393.452 1594.97 411.645C1545.87 431.131 1501.01 445.859 1457.83 456.675C1448.76 458.947 1439.63 461.086 1430.68 463.028C1381.2 473.768 1332.78 479.88 1286.77 481.195C1235.83 482.647 1188.03 478.187 1144.69 467.927C1064.66 448.746 994.713 408.615 936.795 348.646C935.561 347.366 934.315 346.057 933.087 344.759C915.123 325.726 898.678 305.647 882.777 286.228C875.291 277.088 867.553 267.635 859.767 258.437C832.983 226.739 808.859 202.093 783.848 180.877C780.481 178.022 777.011 175.159 773.526 172.365C710.113 121.509 627.768 80.8974 535.398 54.913C424.305 23.7247 311.412 15.0969 217.515 30.6172C120.385 46.7627 24.5928 101.176 29.4403 173.935L29.0739 173.945C27.9124 156.517 32.5217 139.429 42.77 123.153C52.2672 108.076 66.4469 93.8921 84.9209 80.9984C102.325 68.8504 122.953 58.2287 146.231 49.4261C168.831 40.882 192.782 34.472 217.423 30.3759C266.95 22.1912 321.287 20.6256 378.929 25.7285C430.739 30.3144 483.427 40.0549 535.537 54.684C627.962 80.6833 710.355 121.319 773.805 172.2C777.289 174.996 780.766 177.862 784.134 180.717C809.155 201.946 833.29 226.601 860.085 258.309C867.871 267.51 875.61 276.962 883.095 286.105C898.997 305.522 915.438 325.598 933.395 344.624C934.619 345.924 935.868 347.231 937.099 348.511C994.973 408.433 1064.86 448.532 1144.81 467.693C1227.17 487.189 1325.98 485.495 1430.57 462.792C1439.51 460.85 1448.64 458.713 1457.7 456.444C1554.25 432.264 1642.58 392.772 1724.78 354.394C1747.94 343.602 1770.9 332.417 1793.11 321.601C1864.04 287.052 1931.04 254.419 2006.77 232.221C2070.52 213.468 2123 211.231 2167.2 225.385C2187.92 232.034 2208.49 242.456 2230.09 257.243C2249.13 270.282 2266.49 284.926 2283.28 299.085C2293.32 307.555 2302.8 315.555 2312.37 322.999C2406.4 396.59 2502.31 473.121 2597.44 550.466L2597.16 550.624Z" fill="#FFE492"/>
<path d="M2593.27 548.305C2499.6 470.534 2405.51 393.151 2313.62 318.307C2304.35 310.777 2295.15 302.634 2285.4 294.014C2253.54 265.816 2217.43 233.855 2171.29 219.26C2126.67 205.163 2074.2 208.85 2010.87 230.529C1944.53 253.21 1883.57 285.236 1824.63 316.21C1795.07 331.74 1764.5 347.799 1733.36 362.66C1684.2 386.138 1642.84 404.049 1603.2 419.027C1554.31 437.497 1508.56 451.252 1463.35 461.079C1454.07 463.097 1444.69 464.973 1435.48 466.654C1387.46 475.41 1340.31 479.841 1295.21 479.843C1292.7 479.843 1290.21 479.829 1287.72 479.801C1235.57 479.23 1187.03 472.628 1143.45 460.183C1122.41 454.142 1101.8 446.474 1082.21 437.391C1063.8 428.854 1045.7 418.799 1028.42 407.505C997.343 387.187 968.287 362.679 939.605 332.587C938.374 331.292 937.146 329.995 935.926 328.692C919.284 310.937 903.54 292.377 888.316 274.427C879.526 264.066 870.439 253.351 861.287 242.921C833.107 210.788 809.235 187.078 783.877 166.048C780.466 163.22 776.952 160.384 773.423 157.617C709.241 107.266 626.298 67.2799 533.569 41.9773C421.765 11.5054 308.565 3.72434 214.821 20.0643C119.513 36.7243 23.8449 91.5511 25.4021 164.106L25.0357 164.109C24.3102 130.314 44.2462 98.1776 82.6854 71.1766C100.06 58.9721 120.579 48.274 143.677 39.373C166.152 30.7131 190.056 24.1358 214.729 19.8231C264.197 11.2002 318.594 9.19889 376.404 13.8759C428.338 18.0778 481.261 27.454 533.705 41.7459C626.492 67.0657 709.482 107.076 773.705 157.457C777.234 160.227 780.755 163.065 784.166 165.893C809.536 186.935 833.418 210.652 861.605 242.798C870.758 253.23 879.849 263.945 888.635 274.306C903.859 292.254 919.6 310.811 936.238 328.562C937.458 329.864 938.682 331.161 939.913 332.454C1000.86 396.401 1067.48 438.107 1143.59 459.956C1249 490.056 1360.45 480.084 1435.38 466.418C1444.59 464.737 1453.96 462.863 1463.24 460.845C1567.22 438.243 1662.1 396.393 1733.15 362.46C1764.29 347.605 1794.85 331.545 1824.4 316.018C1883.37 285.039 1944.33 253.004 2010.71 230.313C2039.04 220.612 2064.69 214.655 2089.1 212.105C2119.22 208.959 2146.92 211.292 2171.44 219.041C2192.1 225.577 2212.48 236.083 2233.72 251.158C2252.44 264.44 2269.35 279.399 2285.7 293.868C2295.44 302.486 2304.63 310.627 2313.9 318.152C2405.79 392.996 2499.88 470.378 2593.56 548.15L2593.27 548.305Z" fill="#FFE492"/>
<path d="M2589.39 545.986L2315.15 313.455C2306.19 305.861 2297.3 297.598 2287.88 288.852C2256.81 259.987 2221.58 227.273 2175.53 212.919C2131 199.041 2076.94 204.323 2014.83 228.622C1955.13 251.98 1900.68 283.042 1848.02 313.083C1813.7 332.665 1778.2 352.912 1741.74 370.731C1632.13 424.29 1536.34 455.924 1440.28 470.287C1400.43 476.244 1361.11 479.243 1322.99 479.243C1311.43 479.243 1299.99 478.967 1288.68 478.416C1235.3 475.816 1186.02 467.077 1142.21 452.446C1101.6 438.883 1064.46 419.736 1028.66 393.909C1000.07 373.286 972.669 348.7 942.423 316.535C926.458 299.559 911 281.922 896.051 264.866C862.217 226.268 827.233 186.356 783.921 151.23C717.485 97.3529 630.281 55.1023 531.737 29.044C419.226 -0.709119 305.718 -7.64585 212.128 9.51383C121.517 26.127 23.1706 78.5144 21.3605 154.282L20.9941 154.277C21.8039 120.411 42.3627 88.2795 80.4466 61.3572C114.881 37.0146 161.612 18.5183 212.033 9.27506C261.446 0.216437 315.9 -2.22299 373.876 2.02816C425.935 5.84361 479.092 14.8579 531.873 28.8151C580.633 41.7088 626.943 58.6815 669.519 79.2627C712.45 100.016 751.036 124.174 784.199 151.067C827.53 186.206 862.525 226.128 896.366 264.736C911.315 281.789 926.773 299.424 942.734 316.397C986.863 363.329 1049.44 421.179 1142.37 452.219C1248.95 487.816 1363.15 481.559 1440.19 470.041C1536.21 455.688 1631.95 424.066 1741.52 370.527C1777.97 352.715 1813.46 332.468 1847.78 312.891C1900.45 282.845 1954.92 251.775 2014.65 228.405C2076.86 204.065 2131.04 198.777 2175.69 212.693C2196.31 219.12 2216.49 229.717 2237.4 245.095C2255.8 258.631 2272.26 273.92 2288.18 288.704C2297.59 297.45 2306.49 305.708 2315.44 313.3L2589.68 545.831L2589.39 545.986Z" fill="#FFE492"/>
<path d="M2587.18 528.11C2517.35 463.365 2457.43 410.828 2398.62 362.775C2370.08 339.432 2340.92 316.456 2311.97 294.484C2303.21 287.837 2294.54 280.768 2285.35 273.282C2262.27 254.468 2238.4 235.014 2210.93 220.577C2196.18 212.811 2181.98 207.25 2167.52 203.577C2123.14 192.193 2071.07 199.72 2012.75 225.953C1982.57 239.509 1955.09 254.936 1932.19 268.238C1907.95 282.321 1884.03 297.851 1860.9 312.869C1827.66 334.457 1793.28 356.779 1756.33 375.95C1733.84 387.65 1711.05 398.104 1688.58 407.025C1643.62 424.871 1595.36 439.577 1545.15 450.733C1514.13 457.549 1482.95 462.701 1452.5 466.044C1426.26 468.914 1399.96 470.57 1374.35 470.967C1336.01 471.562 1298.66 469.29 1263.33 464.207C1225.77 458.802 1190.22 450.174 1157.68 438.56C1128.66 428.204 1101.25 415.165 1073.88 398.695C1022.88 368.028 982.21 332.569 952.473 305.103C937.865 291.547 923.601 277.723 909.806 264.354C870.084 225.852 832.564 189.487 785.614 157.095C747.321 130.85 703.631 108.201 655.746 89.7737C618.948 75.6122 578.926 64.0305 536.793 55.3485C526.758 53.2832 516.531 51.3582 506.408 49.6327C462.821 42.2159 413.752 37.3863 360.569 35.2767C306.949 33.1007 260.559 34.9838 218.756 41.0393C195.123 44.4363 172.227 49.7656 150.693 56.8771C74.6723 81.9852 25.8565 124.135 20.1113 169.63L19.6533 169.603C21.1849 157.475 25.6807 145.528 33.0124 134.092C39.9777 123.229 49.5444 112.753 61.4452 102.953C83.9313 84.4419 114.724 68.4121 150.492 56.599C172.058 49.4751 194.991 44.1384 218.661 40.7365C260.508 34.6761 306.935 32.7905 360.598 34.969C413.811 37.0786 462.905 41.9132 506.521 49.3348C516.656 51.0629 526.886 52.9878 536.929 55.0555C579.095 63.7425 619.15 75.3341 655.977 89.5078C703.895 107.948 747.621 130.616 785.932 156.879C832.913 189.29 870.439 225.665 910.176 264.177C923.967 277.546 938.231 291.367 952.836 304.921C982.558 332.375 1023.21 367.817 1074.18 398.463C1101.52 414.917 1128.9 427.943 1157.89 438.287C1221.58 461.015 1294.4 471.907 1374.33 470.659C1399.93 470.263 1426.2 468.606 1452.43 465.738C1482.86 462.396 1514.01 457.248 1545 450.437C1595.19 439.289 1643.41 424.593 1688.34 406.756C1710.8 397.843 1733.58 387.394 1756.04 375.704C1792.98 356.543 1827.35 334.226 1860.58 312.645C1883.71 297.625 1907.63 282.09 1931.89 268.002C1954.8 254.692 1982.29 239.261 2012.5 225.695C2038.46 214.015 2063.6 205.946 2087.22 201.709C2116.24 196.505 2143.31 197.037 2167.68 203.289C2182.19 206.974 2196.42 212.55 2211.21 220.333C2238.72 234.793 2262.6 254.259 2285.7 273.085C2294.89 280.568 2303.56 287.638 2312.31 294.279C2341.27 316.254 2370.43 339.233 2398.98 362.581C2457.79 410.638 2517.71 463.181 2587.55 527.93L2587.18 528.11Z" fill="#FFE492"/>
<path d="M2584.97 510.229C2520.22 444.389 2459.46 389.294 2399.19 341.798C2369.81 318.597 2339.39 296.295 2308.79 275.512C2300.67 269.998 2292.66 264.268 2284.17 258.202C2258.76 240.038 2232.48 221.257 2203.05 208.262C2188.19 201.672 2173.95 197.084 2159.51 194.233C2104.22 183.314 2048.06 204.001 2010.67 223.277C1984.19 236.895 1960 252.292 1935.49 268.187C1914.05 282.099 1893.87 297.066 1872.51 312.909C1840.8 336.427 1808.02 360.744 1770.92 381.163C1748.9 393.346 1725.92 403.879 1702.62 412.47C1659.22 428.475 1611.7 440.903 1557.33 450.469C1526.9 455.821 1495.75 459.634 1464.72 461.797C1438.54 463.602 1412.41 464.247 1387.04 463.708C1349.31 462.915 1312.43 459.351 1277.42 453.115C1240.65 446.565 1205.56 436.994 1173.14 424.669C1144.73 413.873 1117.3 400.477 1089.28 383.718C1038.39 353.325 994.804 319.631 962.517 293.671C950.565 284.061 938.803 274.392 927.426 265.038C882.121 227.79 839.328 192.604 787.307 162.961C748.428 140.807 704.778 122.074 657.578 107.285C621.865 96.095 584.012 87.7108 541.861 81.6529C532.133 80.2572 522.237 78.9993 512.45 77.9137C469.464 73.1703 423.586 71.3758 368.08 69.5197C328.069 68.1142 275.692 67.1886 225.374 72.5598C201.543 75.0558 178.507 79.3907 156.9 85.4388C80.828 106.739 29.224 143.948 18.8548 184.978L18.3125 184.916C21.0605 174.036 26.6298 163.365 34.8555 153.196C42.6965 143.507 52.9998 134.217 65.4758 125.577C89.1857 109.163 120.726 95.1645 156.688 85.0966C178.335 79.0362 201.415 74.694 225.286 72.193C275.651 66.8145 328.069 67.7425 368.106 69.148C423.63 71.0041 469.522 72.7986 512.538 77.5445C522.332 78.6325 532.236 79.8904 541.975 81.2861C584.166 87.3514 622.056 95.743 657.809 106.946C705.057 121.75 748.743 140.497 787.662 162.673C839.72 192.338 882.531 227.534 927.851 264.797C939.224 274.149 950.986 283.818 962.938 293.425C995.218 319.375 1038.79 353.057 1089.65 383.435C1117.63 400.177 1145.03 413.558 1173.41 424.342C1237.16 448.576 1309.05 461.694 1387.06 463.333C1412.4 463.87 1438.51 463.228 1464.66 461.423C1495.66 459.262 1526.79 455.454 1557.19 450.105C1611.51 440.549 1659 428.13 1702.36 412.14C1725.63 403.559 1748.58 393.04 1770.57 380.87C1807.64 360.469 1840.41 336.161 1872.11 312.655C1893.48 296.805 1913.66 281.836 1935.12 267.916C1959.63 252.012 1983.83 236.609 2010.34 222.977C2034.58 210.48 2058.48 201.49 2081.39 196.252C2109.17 189.901 2135.51 189.101 2159.67 193.871C2174.16 196.734 2188.45 201.337 2203.36 207.947C2232.84 220.966 2259.14 239.765 2284.58 257.944C2293.06 264.007 2301.08 269.735 2309.19 275.246C2339.8 296.037 2370.22 318.346 2399.62 341.554C2459.89 389.063 2520.68 444.167 2585.43 510.022L2584.97 510.229Z" fill="#FFE492"/>
<path d="M2582.76 492.349C2522.16 424.52 2462.31 368.413 2399.77 320.823C2369.53 297.766 2337.85 276.141 2305.62 256.544C2298.73 252.354 2291.63 247.909 2284.77 243.611C2256.45 225.853 2227.16 207.492 2195.18 195.95C2180.17 190.495 2165.88 186.876 2151.51 184.89C2096.33 177.261 2043.34 200.1 2008.59 220.6C1985.05 234.439 1963.52 250.124 1942.7 265.295L1938.8 268.136C1919.9 281.898 1902.17 296.993 1883.4 312.976C1853.5 338.426 1822.59 364.74 1785.51 386.378C1763.93 399.06 1740.77 409.672 1716.67 417.918C1674.64 432.296 1627.88 442.556 1569.5 450.206C1539.31 454.162 1508.17 456.634 1476.93 457.549C1450.81 458.285 1424.84 457.916 1399.73 456.447C1323.7 452.018 1252.66 436.653 1188.59 410.779C1160.89 399.594 1133.44 385.846 1104.68 368.743C1056.01 339.861 1012.72 310.174 972.563 282.243C967.177 278.499 961.85 274.779 956.563 271.089C901.709 232.814 849.899 196.661 789.011 168.835C749.26 150.669 705.654 135.855 659.41 124.803C625.46 116.689 588.665 111.18 546.932 107.96C537.527 107.239 527.96 106.646 518.496 106.198C494.687 105.09 469.434 104.911 442.698 104.721C421.223 104.568 399.019 104.411 375.588 103.768C330.334 102.422 279.045 100.898 231.984 104.088C207.702 105.735 184.527 109.073 163.1 114.011C87.0571 131.537 32.661 163.811 17.5909 200.344L16.9717 200.228C20.9435 190.596 27.5827 181.2 36.7024 172.301C45.4228 163.792 56.4588 155.683 69.5028 148.202C94.4511 133.896 126.746 121.932 162.888 113.602C184.363 108.652 207.585 105.307 231.914 103.658C279.023 100.465 330.337 101.991 375.61 103.338C399.027 103.978 421.231 104.138 442.698 104.29C469.445 104.48 494.705 104.659 518.536 105.77C528.008 106.22 537.585 106.813 546.998 107.535C588.783 110.757 625.621 116.273 659.619 124.399C705.918 135.464 749.571 150.295 789.366 168.481C850.31 196.331 902.145 232.502 957.021 270.794C962.308 274.484 967.639 278.201 973.021 281.947C1013.18 309.874 1056.45 339.553 1105.1 368.425C1133.83 385.509 1161.25 399.244 1188.92 410.415C1252.91 436.257 1323.86 451.6 1399.78 456.023C1424.87 457.49 1450.81 457.859 1476.9 457.123C1508.1 456.208 1539.22 453.739 1569.37 449.788C1627.69 442.145 1674.41 431.897 1716.37 417.539C1740.43 409.31 1763.54 398.718 1785.08 386.058C1822.12 364.447 1853.01 338.148 1882.89 312.712C1901.67 296.722 1919.41 281.62 1938.33 267.848L1942.22 265.007C1963.05 249.829 1984.59 234.134 2008.17 220.28C2043.02 199.713 2096.2 176.808 2151.63 184.471C2166.07 186.468 2180.41 190.098 2195.48 195.575C2227.53 207.142 2256.85 225.523 2285.21 243.301C2292.06 247.599 2299.16 252.044 2306.04 256.231C2338.29 275.838 2369.98 297.475 2400.24 320.545C2462.81 368.155 2522.68 424.281 2583.3 492.132L2582.76 492.349Z" fill="#FFE492"/>
<path d="M2580.55 474.465C2524.91 405.612 2464.28 346.861 2400.34 299.85C2369.26 276.938 2336.32 255.987 2302.45 237.58C2297.56 234.921 2292.55 232.162 2287.7 229.493C2255.69 211.866 2222.59 193.635 2187.33 183.641C2172.19 179.307 2157.86 176.66 2143.52 175.548C2088.5 171.284 2038.65 196.237 2006.52 217.921C1986.57 231.317 1968.57 246.215 1951.15 260.622C1948.14 263.116 1945.13 265.605 1942.11 268.083C1925.55 281.701 1910.06 296.913 1893.66 313.017C1865.79 340.395 1836.96 368.703 1800.1 391.596C1778.45 405.038 1755.76 415.431 1730.71 423.372C1678.32 439.981 1625.97 446.127 1581.67 449.952C1551.7 452.537 1520.57 453.669 1489.14 453.31C1463.1 452.978 1437.29 451.592 1412.42 449.194C1338.67 442.102 1268.57 424.507 1204.05 396.896C1177.2 385.41 1149.74 371.305 1120.08 353.776C1090.13 336.112 1062.22 319.114 1035.22 302.676C1016.88 291.503 999.545 280.95 982.621 270.826C918.647 232.553 860.049 198.903 790.729 174.716C750.124 160.549 706.563 149.649 661.253 142.321C628.779 137.068 594.066 134.511 552.014 134.267C542.942 134.223 533.701 134.294 524.552 134.481C510.655 134.784 496.277 135.417 481.06 136.089C451.858 137.376 418.754 138.836 383.095 138.018C369.517 137.706 355.663 137.265 342.264 136.837C307.8 135.737 272.164 134.599 238.59 135.616C213.935 136.364 190.617 138.708 169.292 142.582C93.3775 156.379 36.1931 183.72 16.3194 215.718L15.6416 215.529C20.8445 207.149 28.5536 199.031 38.5527 191.398C48.1562 184.067 59.925 177.143 73.5258 170.819C99.7346 158.634 132.78 148.707 169.095 142.107C190.47 138.223 213.84 135.872 238.55 135.124C272.16 134.105 307.811 135.244 342.293 136.345C355.689 136.773 369.542 137.214 383.117 137.526C418.743 138.343 451.822 136.886 481.009 135.599C496.233 134.927 510.614 134.294 524.527 133.991C533.687 133.804 542.935 133.733 552.018 133.777C594.129 134.018 628.893 136.583 661.422 141.844C706.786 149.182 750.406 160.094 791.062 174.28C822.375 185.204 854.106 199.046 888.067 216.592C918.472 232.299 948.047 249.486 983.105 270.459C1000.03 280.586 1017.36 291.139 1035.71 302.312C1062.7 318.748 1090.61 335.745 1120.56 353.407C1150.18 370.918 1177.62 385.009 1204.43 396.482C1268.86 424.057 1338.87 441.627 1412.51 448.709C1437.36 451.104 1463.14 452.488 1489.14 452.82C1520.54 453.18 1551.64 452.05 1581.56 449.465C1625.81 445.647 1678.1 439.508 1730.39 422.929C1755.37 415.01 1778.01 404.645 1799.6 391.236C1836.39 368.383 1865.2 340.097 1893.05 312.741C1909.46 296.628 1924.95 281.408 1941.54 267.776C1944.55 265.297 1947.56 262.808 1950.57 260.317C1968 245.9 1986.02 230.992 2005.99 217.579C2026.9 203.472 2048.34 192.619 2069.73 185.323C2095.07 176.68 2119.92 173.229 2143.59 175.065C2158 176.183 2172.4 178.841 2187.6 183.193C2222.95 193.214 2256.1 211.467 2288.15 229.117C2293 231.785 2298.01 234.544 2302.89 237.2C2336.79 255.623 2369.75 276.593 2400.86 299.523C2434.81 324.486 2468.06 352.927 2499.68 384.056C2527.63 411.569 2555.05 441.91 2581.17 474.233L2580.55 474.465Z" fill="#FFE492"/>
<path d="M2578.33 456.576C2526.84 385.749 2467.15 325.962 2400.92 278.874C2368.98 256.107 2334.79 235.834 2299.29 218.612C2297.6 217.793 2295.91 216.973 2294.22 216.151C2257.3 198.221 2219.13 179.68 2179.49 171.333C2164.13 168.098 2149.75 166.422 2135.55 166.205C2080.75 165.373 2034.02 192.411 2004.47 215.238C1987.08 228.592 1971.64 243.228 1956.71 257.382C1953.02 260.883 1949.2 264.501 1945.44 268.026C1931.09 281.452 1917.75 296.716 1903.62 312.879C1877.94 342.277 1851.38 372.675 1814.71 396.809C1793.49 410.771 1770.61 421.242 1744.76 428.824C1693.84 443.759 1642.13 447.68 1593.84 449.693C1564.06 450.934 1532.94 450.722 1501.34 449.066C1475.4 447.663 1449.75 445.263 1425.11 441.934C1353.87 432.334 1284.69 412.509 1219.51 383.007C1193.4 371.194 1166.71 357.148 1135.5 338.804C1076.19 304.037 1032.15 279.549 992.701 259.406C914.243 219.344 854.362 195.774 792.48 180.596C751.051 170.434 707.534 163.451 663.129 159.837C632.322 157.331 599.628 157.555 557.125 160.571C548.416 161.196 539.505 161.932 530.638 162.762C522.262 163.557 513.754 164.468 504.745 165.43C471.479 168.987 433.773 173.019 390.618 172.266C367.871 171.87 344.638 170.784 322.17 169.735C296.635 168.544 270.233 167.311 245.2 167.143C220.101 166.976 196.641 168.325 175.488 171.156C99.8262 181.275 39.8461 203.688 15.0443 231.107L14.3408 230.819C20.7822 223.696 29.5612 216.855 40.4324 210.487C50.9261 204.338 63.4204 198.6 77.5709 193.428C105.058 183.38 138.863 175.488 175.327 170.612C196.538 167.776 220.05 166.422 245.207 166.589C270.262 166.757 296.679 167.99 322.225 169.184C344.685 170.233 367.908 171.318 390.636 171.714C433.714 172.465 471.38 168.438 504.609 164.886C513.623 163.921 522.138 163.013 530.517 162.215C539.395 161.386 548.314 160.65 557.03 160.022C599.599 157.004 632.348 156.778 663.221 159.291C707.688 162.909 751.267 169.903 792.755 180.079C854.721 195.277 914.664 218.871 993.192 258.968C1032.65 279.118 1076.71 303.613 1136.03 338.391C1167.22 356.719 1193.89 370.75 1219.96 382.551C1285.06 412.012 1354.13 431.81 1425.26 441.395C1449.87 444.719 1475.49 447.114 1501.4 448.517C1532.96 450.171 1564.04 450.383 1593.78 449.144C1642 447.133 1693.62 443.222 1744.43 428.322C1770.18 420.77 1792.98 410.333 1814.12 396.42C1850.71 372.338 1877.25 341.972 1902.91 312.605C1917.04 296.433 1930.39 281.156 1944.76 267.711C1948.53 264.189 1952.35 260.57 1956.03 257.07C1970.97 242.903 1986.42 228.257 2003.84 214.881C2023.12 199.983 2043.34 188.2 2063.93 179.855C2088.05 170.08 2112.15 165.307 2135.56 165.659C2149.85 165.876 2164.29 167.562 2179.73 170.811C2219.5 179.188 2257.73 197.753 2294.7 215.71C2296.39 216.532 2298.08 217.355 2299.77 218.172C2335.31 235.413 2369.54 255.711 2401.51 278.503C2467.8 325.632 2527.54 385.466 2579.07 456.342L2578.33 456.576Z" fill="#FFE492"/>
<path d="M1612.07 449.438C1610.01 449.438 1607.99 449.436 1605.99 449.428C1576.37 449.345 1545.26 447.794 1513.54 444.815C1487.69 442.342 1462.2 438.927 1437.79 434.671C1402.91 428.601 1367.9 419.877 1333.73 408.743C1300.74 397.991 1267.51 384.659 1234.97 369.114C1203.08 353.885 1173.29 336.914 1150.91 323.831C1098.53 293.303 1048.69 267.786 1002.78 247.987C928.419 215.923 862.155 196.375 794.235 186.472C753.261 180.498 709.3 177.347 666.973 177.347C666.317 177.347 665.665 177.347 665.009 177.35C628.647 177.434 594.125 181.973 562.24 186.866C553.941 188.149 545.357 189.549 536.724 191.034C531.994 191.856 527.256 192.703 522.244 193.599C486.89 199.927 446.816 207.098 398.133 206.51C368.483 206.15 338.2 204.088 308.914 202.091C290.004 200.801 270.452 199.47 251.802 198.665C226.165 197.559 202.573 197.914 181.673 199.723C106.414 206.232 43.6383 223.719 13.7435 246.503L13.0547 246.097C28.3886 234.412 51.4537 224.295 81.6086 216.024C110.408 208.127 144.971 202.278 181.556 199.115C202.51 197.303 226.165 196.944 251.861 198.054C270.529 198.859 290.091 200.193 309.009 201.483C338.277 203.48 368.542 205.542 398.151 205.899C446.71 206.488 486.714 199.327 522.009 193.01C527.025 192.112 531.763 191.265 536.497 190.443C545.137 188.959 553.729 187.556 562.035 186.273C593.975 181.372 628.556 176.826 665.005 176.739C708.006 176.638 752.755 179.799 794.43 185.877C829.483 190.989 863.467 198.515 898.316 208.883C931.878 218.869 966.21 231.492 1003.27 247.475C1049.21 267.289 1099.09 292.825 1151.5 323.373C1173.87 336.449 1203.63 353.407 1235.49 368.62C1301.53 400.162 1369.67 422.186 1438.02 434.083C1462.4 438.334 1487.85 441.743 1513.67 444.215C1545.35 447.188 1576.41 448.739 1605.99 448.82C1652.28 448.948 1706.03 447.9 1758.46 433.709C1784.99 426.526 1807.95 416.022 1828.64 401.6C1864.98 376.27 1889.06 343.76 1912.36 312.318C1924.35 296.146 1935.67 280.869 1947.97 267.646C1951.92 263.409 1955.9 259.045 1959.74 254.823C1972.74 240.561 1986.18 225.816 2001.67 212.186C2019.36 196.506 2038.35 183.787 2058.11 174.384C2081.01 163.481 2104.36 157.381 2127.5 156.254C2141.79 155.557 2156.29 156.269 2171.83 158.43C2213.38 164.205 2254.57 180.983 2296.62 199.142C2333.28 214.975 2369.77 235.148 2402.14 257.482C2438.1 282.218 2471.89 311.238 2502.56 343.733C2529.88 372.684 2554.91 404.551 2576.95 438.452L2576.11 438.698C2528.78 365.895 2470.03 305.069 2401.49 257.912C2369.16 235.611 2332.73 215.467 2296.13 199.662C2254.15 181.535 2213.04 164.788 2171.64 159.033C2156.19 156.884 2141.77 156.178 2127.57 156.869C2085.04 158.945 2040.59 178.721 2002.4 212.56C1986.94 226.165 1973.51 240.898 1960.52 255.146C1956.68 259.37 1952.69 263.737 1948.75 267.973C1936.47 281.172 1925.15 296.436 1913.18 312.594C1901.75 328.021 1889.93 343.974 1876.37 359.31C1860.99 376.696 1845.6 390.668 1829.3 402.028C1808.52 416.515 1785.46 427.065 1758.8 434.282C1735.29 440.648 1710.02 444.855 1681.55 447.149C1657.43 449.081 1633.22 449.438 1612.07 449.438Z" fill="#FFE492"/>
<path d="M1670.82 450.671C1652.14 450.671 1634.19 449.923 1618.14 449.165C1588.62 447.771 1557.52 444.879 1525.73 440.566C1499.98 437.024 1474.66 432.598 1450.45 427.407C1384.18 413.221 1318.74 389.607 1250.41 355.221C1220.61 340.227 1192.52 324.094 1166.31 308.857C1114.56 278.863 1062.93 254.542 1012.85 236.568C939.206 210.133 870.301 196.08 796.002 192.343C753.667 190.214 709.025 191.083 666.896 194.854C631.633 198.01 598.39 205.626 567.356 213.153C559.591 215.046 551.333 217.114 542.814 219.297C540.685 219.846 538.538 220.405 536.362 220.969C500.619 230.254 460.176 240.76 408.271 240.76C407.395 240.76 406.523 240.757 405.64 240.75C370.524 240.511 334.672 237.144 299.995 233.885C286.248 232.592 272.032 231.258 258.391 230.178C231.746 228.07 208.67 227.448 187.84 228.28C112.079 231.307 48.1306 243.556 12.399 261.893L11.7871 261.353C29.4514 252.29 54.9933 244.42 85.6428 238.596C115.79 232.868 151.108 229.067 187.777 227.603C208.666 226.768 231.801 227.391 258.504 229.503C272.16 230.584 286.38 231.92 300.131 233.21C334.774 236.464 370.594 239.829 405.644 240.068C458.629 240.432 499.732 229.752 535.992 220.331C538.164 219.767 540.315 219.209 542.444 218.657C550.97 216.471 559.232 214.404 567.004 212.511C598.089 204.968 631.395 197.342 666.753 194.177C708.948 190.401 753.664 189.529 796.067 191.661C832.887 193.512 867.992 197.884 903.387 205.023C939.84 212.375 975.799 222.495 1013.32 235.965C1063.46 253.964 1115.15 278.314 1166.95 308.338C1193.16 323.57 1221.23 339.693 1251 354.672C1319.24 389.011 1384.58 412.591 1450.75 426.754C1474.92 431.936 1500.21 436.357 1525.92 439.894C1557.67 444.202 1588.72 447.092 1618.2 448.48C1667.8 450.819 1720.57 452.02 1772.48 439.08C1799.8 432.268 1822.91 421.698 1843.15 406.764C1879.19 380.162 1901.63 343.875 1921.42 311.86C1931.38 295.752 1940.79 280.537 1951.17 267.566C1954.92 262.887 1958.69 258.05 1962.33 253.373C1973.74 238.739 1985.53 223.608 1999.48 209.476C2015.63 193.013 2033.39 179.358 2052.28 168.892C2073.97 156.872 2096.56 149.447 2119.43 146.831C2133.73 145.194 2148.28 144.933 2163.92 146.026C2207.61 149.086 2252 164.205 2293.46 180.089C2331.75 194.755 2369.54 214.241 2402.77 236.44C2439.73 261.06 2473.78 290.371 2503.98 323.55C2530.98 353.222 2554.82 385.853 2574.83 420.541L2573.89 420.785C2531.36 347.051 2471.94 283.471 2402.06 236.917C2368.9 214.761 2331.18 195.312 2292.97 180.675C2251.6 164.827 2207.33 149.745 2163.82 146.698C2148.27 145.61 2133.81 145.871 2119.61 147.495C2077.38 152.328 2035.02 174.469 2000.33 209.845C1986.4 223.947 1974.62 239.064 1963.23 253.683C1959.59 258.363 1955.82 263.2 1952.07 267.884C1941.71 280.825 1932.31 296.025 1922.36 312.116C1902.53 344.181 1880.06 380.526 1843.89 407.217C1823.55 422.233 1800.3 432.862 1772.83 439.712C1749 445.654 1723.28 449.096 1694.21 450.226C1686.36 450.546 1678.53 450.671 1670.82 450.671Z" fill="#FFE492"/>
<path d="M1707.7 453.337C1707.43 453.337 1707.17 453.337 1706.9 453.337C1680.5 453.293 1654.58 451.122 1630.28 448.901C1600.81 446.208 1569.73 441.972 1537.92 436.315C1512.29 431.71 1487.13 426.267 1463.13 420.143C1399.5 403.928 1336.82 378.886 1265.86 341.33C1240.31 327.809 1215.17 313.248 1190.84 299.171C1187.8 297.408 1184.76 295.648 1181.71 293.888C1129.69 263.901 1076.28 240.775 1022.95 225.153C949.92 203.765 876.269 194.952 797.786 198.214C754.752 200.003 710.15 204.895 668.801 212.358C636.177 218.249 607.106 227.699 572.489 239.44C565.472 241.831 557.979 244.41 548.914 247.561L548.409 247.738C530.92 253.858 511.098 260.792 488.865 266.065C463.33 272.12 438.558 275.035 413.155 275C373.543 274.934 333.118 269.981 294.026 265.188C284.449 264.014 274.541 262.801 264.978 261.703C237.553 258.559 214.338 256.972 194.006 256.851C119.143 256.408 52.4501 263.862 11.032 277.297L10.5557 276.632C30.8434 270.05 58.2099 264.708 89.6949 261.183C121.238 257.651 157.314 255.898 194.017 256.115C214.407 256.236 237.681 257.826 265.165 260.977C274.735 262.075 284.643 263.288 294.224 264.462C333.268 269.248 373.642 274.195 413.159 274.262C413.334 274.262 413.514 274.262 413.69 274.262C470.215 274.262 513.278 259.197 547.903 247.084L548.412 246.906C557.481 243.753 564.974 241.173 571.994 238.783C606.67 227.022 635.792 217.554 668.519 211.647C709.937 204.168 754.612 199.27 797.72 197.478C836.126 195.883 872.352 197.099 908.476 201.2C947.402 205.618 984.992 213.232 1023.39 224.479C1076.82 240.13 1130.33 263.293 1182.43 293.329C1185.48 295.089 1188.52 296.852 1191.56 298.614C1215.87 312.687 1241.01 327.242 1266.54 340.754C1337.4 378.264 1399.99 403.271 1463.52 419.458C1487.48 425.575 1512.61 431.008 1538.2 435.609C1569.97 441.258 1601 445.487 1630.43 448.175C1683.15 452.995 1734.75 456.338 1786.53 444.483C1814.62 438.048 1837.9 427.412 1857.67 411.963C1893.39 384.056 1912.91 345.387 1930.13 311.267C1938.19 295.294 1945.8 280.204 1954.39 267.525C1957.7 262.646 1961.01 257.599 1964.22 252.718C1974.24 237.456 1984.61 221.678 1997.32 206.8C2011.95 189.547 2028.49 174.954 2046.46 163.429C2066.96 150.294 2088.79 141.551 2111.37 137.445C2125.37 134.899 2139.66 133.659 2155.01 133.659C2155.34 133.659 2155.68 133.659 2156.01 133.661C2203.74 133.829 2252.86 148.396 2290.32 161.069C2330.22 174.57 2369.33 193.367 2403.41 215.428C2441.37 239.935 2475.7 269.533 2505.42 303.402C2532.09 333.795 2554.74 367.192 2572.72 402.668L2571.68 402.907C2544.92 350.12 2493.86 274.84 2402.65 215.962C2368.65 193.95 2329.63 175.198 2289.82 161.728C2252.47 149.09 2203.51 134.565 2156.01 134.4C2140.37 134.338 2125.87 135.574 2111.66 138.159C2069.83 145.767 2029.56 170.275 1998.27 207.167C1985.59 222.01 1975.24 237.771 1965.22 253.016C1962.02 257.9 1958.7 262.948 1955.39 267.83C1946.83 280.477 1939.22 295.547 1931.17 311.503C1913.92 345.685 1894.37 384.428 1858.51 412.443C1838.6 427.995 1815.17 438.703 1786.88 445.179C1762.91 450.666 1737 453.337 1707.7 453.337Z" fill="#FFE492"/>
<path d="M1737.03 456.802C1731.34 456.802 1725.53 456.679 1719.58 456.433C1693.53 455.357 1668.22 452.13 1642.43 448.635C1612.53 444.583 1582.33 439.163 1550.11 432.063C1524.61 426.397 1499.61 419.943 1475.8 412.875C1415.39 394.975 1355.41 368.624 1281.32 327.436C1262.92 317.209 1244.53 306.481 1226.74 296.105C1217.05 290.459 1207.04 284.617 1197.12 278.914C1144.49 248.725 1089.28 226.797 1033.05 213.736C958.746 196.478 882.381 193.317 799.581 204.074C755.837 209.758 711.275 218.671 670.718 229.849C638.137 238.829 609.756 251.44 579.707 264.792L577.63 265.715C572.936 267.807 568.191 269.929 563.387 272.075C560.621 273.314 557.836 274.559 555.026 275.815C537.505 283.684 518.58 291.894 496.878 298.213C471.681 305.548 446.758 309.157 420.677 309.245C377.259 309.388 332.972 302.609 290.147 296.046C284.035 295.108 277.711 294.141 271.574 293.223C242.8 288.915 220.116 286.436 200.177 285.417C126.596 281.658 57.1551 284.307 9.65473 292.686L9.35059 291.913C56.9756 283.512 126.559 280.853 200.268 284.62C220.263 285.641 243.005 288.127 271.834 292.443C277.975 293.363 284.299 294.331 290.414 295.268C332.715 301.75 376.442 308.448 419.285 308.448C419.747 308.448 420.208 308.448 420.674 308.445C476.088 308.258 515.535 292.588 554.37 275.15C557.181 273.895 559.965 272.649 562.732 271.411C567.535 269.262 572.276 267.142 576.974 265.048L579.051 264.125C609.151 250.751 637.58 238.118 670.267 229.109C710.897 217.908 755.536 208.98 799.358 203.287C882.366 192.502 958.937 195.673 1033.44 212.978C1089.82 226.073 1145.15 248.05 1197.9 278.306C1207.82 284.012 1217.83 289.851 1227.52 295.5C1245.3 305.873 1263.69 316.598 1282.08 326.819C1356.08 367.959 1415.98 394.273 1476.28 412.144C1500.06 419.199 1525.02 425.646 1550.48 431.303C1582.65 438.392 1612.81 443.805 1642.67 447.85C1687.99 453.991 1744.4 461.637 1800.57 449.861C1829.45 443.808 1852.88 433.105 1872.19 417.139C1907.57 387.895 1923.97 346.765 1938.45 310.479C1944.74 294.715 1950.68 279.825 1957.61 267.467C1960.31 262.653 1963.02 257.673 1965.63 252.855C1974.41 236.7 1983.49 219.996 1995.15 204.109C2008.3 186.053 2023.61 170.523 2040.64 157.949C2059.94 143.702 2081.03 133.641 2103.3 128.046C2117.6 124.454 2132.25 122.241 2148.1 121.279C2169.32 119.989 2191.91 121.368 2217.16 125.483C2238.52 128.969 2261.42 134.38 2287.17 142.028C2328.7 154.363 2369.11 172.472 2404.04 194.398C2443.02 218.79 2477.61 248.681 2506.85 283.236C2533.18 314.353 2554.64 348.515 2570.61 384.776L2569.47 385.003C2535.74 308.448 2476.7 240.963 2403.23 194.984C2368.39 173.117 2328.09 155.059 2286.68 142.761C2231.2 126.283 2187.21 119.708 2148.21 122.077C2132.46 123.032 2117.92 125.23 2103.72 128.794C2050.72 142.104 2016 177.29 1996.22 204.461C1984.59 220.308 1975.52 236.993 1966.75 253.129C1964.13 257.948 1961.42 262.931 1958.72 267.748C1951.81 280.068 1945.88 294.941 1939.6 310.685C1925.1 347.05 1908.66 388.267 1873.11 417.643C1853.65 433.735 1830.03 444.524 1800.92 450.626C1781.19 454.762 1760.15 456.802 1737.03 456.802Z" fill="#FFE492"/>
<path d="M1762.43 460.776C1723.68 460.776 1686.43 454.088 1654.56 448.367C1624.58 442.986 1594.4 436.261 1562.28 427.81C1536.93 421.09 1512.09 413.622 1488.46 405.609C1417.62 381.619 1354.46 347.184 1296.77 313.544C1284.99 306.676 1273.09 299.596 1261.58 292.751C1245.61 283.244 1229.08 273.415 1212.53 263.943C1159.11 233.456 1102.12 212.722 1043.16 202.317C966.884 188.86 887.796 191.348 801.376 209.928C756.88 219.494 712.363 232.43 672.634 247.337C641.991 258.833 616.065 273.346 588.618 288.711C586.672 289.799 584.723 290.892 582.762 291.985L581.7 292.581C575.028 296.32 568.128 300.185 561.134 304.064C544.374 313.401 525.919 323.058 504.572 330.435C479.792 338.999 454.811 343.27 428.192 343.491C381.468 343.883 333.847 335.058 287.798 326.524C284.57 325.925 281.356 325.33 278.158 324.741C247.79 319.144 225.637 315.826 206.335 313.979C134.601 307.121 62.4053 304.965 8.25833 308.064L8.14844 307.205C62.3833 304.099 134.685 306.257 206.515 313.125C225.872 314.976 248.072 318.302 278.495 323.909C281.693 324.498 284.907 325.093 288.138 325.694C334.1 334.211 381.63 343.014 428.174 342.63C485.981 342.147 526.692 322.127 560.313 303.4C567.308 299.52 574.207 295.655 580.879 291.919L581.942 291.323C583.902 290.228 585.851 289.137 587.797 288.049C615.292 272.657 641.262 258.119 672.007 246.584C711.809 231.649 756.411 218.692 800.984 209.109C841.955 200.301 880.439 195.216 918.629 193.561C961.23 191.718 1003.23 194.384 1043.48 201.485C1102.63 211.922 1159.78 232.715 1213.36 263.286C1229.92 272.763 1246.45 282.594 1262.43 292.103C1273.93 298.949 1285.83 306.026 1297.6 312.891C1355.24 346.494 1418.32 380.893 1489.03 404.839C1512.63 412.839 1537.43 420.298 1562.75 427.008C1594.81 435.446 1624.95 442.161 1654.89 447.535C1700.86 455.786 1758.07 466.056 1814.6 455.25C1844.26 449.578 1867.84 438.809 1886.69 422.326C1921.71 391.706 1934.81 348.045 1946.37 309.522C1951.01 294.043 1955.4 279.424 1960.81 267.419C1962.81 262.978 1964.82 258.39 1966.76 253.951C1974.36 236.592 1982.22 218.64 1992.96 201.426C2004.66 182.553 2018.73 166.08 2034.79 152.47C2052.91 137.112 2073.24 125.735 2095.21 118.653C2109.48 114.055 2124.18 110.867 2140.16 108.905C2161.69 106.264 2185.58 106.352 2211.17 109.169C2233.57 111.635 2258.07 116.285 2283.99 122.993C2327.14 134.161 2368.86 151.582 2404.66 173.371C2444.65 197.65 2479.51 227.829 2508.27 263.074C2534.25 294.914 2554.52 329.844 2568.49 366.891L2567.24 367.103C2537.64 288.603 2479.6 220.028 2403.8 174.011C2368.12 152.293 2326.53 134.929 2283.53 123.798C2227.79 109.37 2180.97 104.775 2140.39 109.754C2124.53 111.702 2109.93 114.867 2095.77 119.431C2043.49 136.28 2011.65 173.499 1994.15 201.758C1983.43 218.928 1975.58 236.856 1967.99 254.193C1966.05 258.631 1964.04 263.222 1962.04 267.667C1956.65 279.633 1952.26 294.233 1947.63 309.691C1942.06 328.225 1935.76 349.229 1926.61 368.922C1916.13 391.485 1903.4 409.124 1887.71 422.85C1878.64 430.786 1868.21 437.541 1856.71 442.927C1844.35 448.719 1830.3 453.145 1814.95 456.079C1797.38 459.439 1779.75 460.776 1762.43 460.776Z" fill="#FFE492"/>
<path d="M1785.33 465.135C1772.52 465.135 1759.1 464.298 1744.92 462.626C1717 459.335 1690.28 453.363 1666.7 448.098C1636.98 441.459 1605.94 433.201 1574.46 423.554C1549.27 415.79 1524.6 407.307 1501.12 398.337C1433.75 372.621 1375.71 338.427 1312.21 299.647C1306.57 296.201 1300.84 292.686 1295.3 289.284C1273.48 275.896 1250.92 262.052 1227.94 248.971C1173.63 218.127 1114.86 198.59 1053.27 190.9C975.575 181.199 891.427 189.568 803.172 215.779C757.884 229.229 713.407 246.184 674.55 264.816C645.293 278.845 621.209 295.384 595.711 312.896C593.121 314.675 590.519 316.46 587.903 318.252C581.392 322.717 574.379 327.51 567.245 332.308C552.285 342.403 534.053 353.906 512.27 362.652C487.886 372.444 462.843 377.379 435.714 377.736C386.052 378.393 335.5 367.346 286.61 356.663L284.749 356.256C260.812 351.028 235.49 345.745 212.502 342.538C142.431 332.763 69.4035 325.977 6.87695 323.429L6.96122 322.508C69.5537 325.058 142.647 331.85 212.78 341.635C235.834 344.852 261.2 350.142 285.174 355.378L287.035 355.784C335.818 366.442 386.268 377.463 435.689 376.811C492.763 376.057 532.181 354.661 566.274 331.65C573.408 326.855 580.414 322.063 586.925 317.6C589.541 315.81 592.142 314.023 594.733 312.246C620.275 294.705 644.402 278.136 673.755 264.06C712.685 245.392 757.247 228.404 802.618 214.93C844.026 202.634 884.773 194.161 923.722 189.75C968.225 184.711 1011.9 184.79 1053.52 189.987C1115.35 197.706 1174.33 217.313 1228.83 248.262C1251.83 261.355 1274.4 275.204 1296.23 288.6C1301.77 291.999 1307.5 295.514 1313.15 298.961C1376.58 337.703 1434.56 371.86 1501.81 397.532C1525.25 406.487 1549.89 414.958 1575.04 422.712C1606.48 432.344 1637.46 440.59 1667.14 447.219C1713.66 457.612 1771.56 470.543 1828.65 460.635C1859.1 455.35 1882.84 444.516 1901.22 427.512C1935.85 395.474 1945.87 347.186 1953.92 308.384C1957.06 293.27 1960.02 278.995 1964.03 267.376C1965.3 263.713 1966.58 259.94 1967.81 256.289C1974.22 237.325 1980.86 217.714 1990.81 198.75C2006.17 169.238 2035.35 129.759 2087.14 109.271C2101.45 103.615 2116.2 99.4496 2132.25 96.54C2174.24 88.818 2224.23 91.3165 2280.84 103.962C2325.61 113.963 2368.64 130.694 2405.3 152.349C2446.3 176.512 2481.43 206.981 2509.71 242.918C2522.69 259.401 2534.15 277.006 2543.8 295.244C2553.01 312.664 2560.61 330.754 2566.38 349.012L2565.04 349.204C2539.59 268.755 2482.53 199.089 2404.39 153.041C2367.87 131.467 2325 114.8 2280.4 104.835C2224.06 92.247 2174.33 89.7558 2132.61 97.4286C2116.68 100.316 2102.03 104.449 2087.84 110.064C2036.41 130.409 2007.39 169.686 1992.1 199.052C1982.18 217.967 1975.56 237.552 1969.15 256.491C1967.91 260.142 1966.64 263.918 1965.37 267.583C1961.37 279.162 1958.41 293.417 1955.28 308.509C1951.23 328.034 1946.64 350.164 1938.79 371.051C1929.77 395.051 1917.84 413.697 1902.33 428.053C1893.48 436.243 1883.12 443.15 1871.56 448.58C1859.1 454.432 1844.78 458.789 1828.99 461.526C1815.14 463.933 1800.67 465.135 1785.33 465.135Z" fill="#FFE492"/>
<path d="M1806.44 469.738C1791.08 469.738 1774.89 468.402 1757.6 465.721C1729.58 461.381 1702.62 454.179 1678.83 447.823C1648.88 439.823 1617.87 430.225 1586.64 419.293C1561.62 410.493 1537.1 400.996 1513.79 391.064C1449.62 363.753 1394.59 328.552 1336.32 291.289C1333.44 289.445 1330.56 287.599 1327.67 285.752C1300.57 268.443 1272.55 250.542 1243.35 234C1188.09 202.765 1127.54 184.421 1063.39 179.479C982.8 173.268 895.857 187.449 804.967 221.623C759.504 238.717 713.868 260.263 676.466 282.291C648.224 298.924 625.573 317.64 601.592 337.456C598.752 339.801 595.905 342.155 593.036 344.513C587.306 349.232 580.487 354.827 573.349 360.55C560.129 371.177 542.117 384.681 519.964 394.84C495.969 405.846 470.87 411.456 443.232 411.985C420.516 412.366 395.446 410.011 366.588 404.78C341.812 400.29 317.846 394.421 291.326 387.775C267.118 381.634 241.568 375.29 218.646 371.1C150.748 358.689 79.0286 347.821 5.48438 338.792L5.74817 337.825C79.3364 346.856 151.096 357.734 219.031 370.15C242.015 374.352 267.601 380.706 291.839 386.852C336.291 397.996 391.614 411.869 443.192 411C502.161 409.868 540.058 385.779 572.224 359.915C579.358 354.197 586.173 348.604 591.9 343.888C594.769 341.529 597.616 339.176 600.452 336.833C624.473 316.985 647.165 298.238 675.499 281.551C712.978 259.478 758.701 237.89 804.252 220.764C895.417 186.487 982.661 172.269 1063.56 178.501C1094.57 180.892 1125.04 186.442 1154.1 194.999C1185.29 204.178 1215.63 217.05 1244.29 233.249C1273.53 249.808 1301.57 267.719 1328.68 285.041C1331.57 286.89 1334.45 288.733 1337.34 290.577C1395.55 327.809 1450.53 362.975 1514.57 390.234C1537.86 400.152 1562.33 409.636 1587.32 418.422C1618.5 429.337 1649.47 438.922 1679.37 446.91C1726.37 459.464 1784.86 475.087 1842.69 466.026C1874.02 461.118 1897.91 450.218 1915.73 432.706C1950.05 399.258 1956.16 348.163 1961.07 307.109C1962.83 292.426 1964.49 278.557 1967.24 267.342C1967.81 265.028 1968.38 262.702 1968.95 260.364C1974.08 239.241 1979.4 217.397 1988.63 196.08C2001.82 165.418 2028.2 123.842 2079.06 99.8957C2093.25 93.215 2108.05 88.0752 2124.32 84.181C2146.93 78.7187 2172.13 76.1513 2199.21 76.5452C2223.93 76.9046 2250.33 79.728 2277.67 84.9342C2324.05 93.7639 2368.4 109.806 2405.92 131.325C2447.93 155.37 2483.33 186.135 2511.14 222.761C2523.9 239.566 2534.94 257.533 2543.97 276.162C2552.62 294.004 2559.45 312.5 2564.26 331.137L2562.82 331.304C2541.84 250.094 2484.3 177.477 2404.97 132.074C2367.61 110.648 2323.45 94.6723 2277.27 85.877C2220.32 75.0313 2167.61 74.7654 2124.81 85.1041C2108.66 88.9688 2093.97 94.0692 2079.9 100.698C2029.39 124.48 2003.15 165.841 1990.04 196.35C1980.83 217.611 1975.52 239.423 1970.39 260.519C1969.82 262.857 1969.25 265.186 1968.69 267.5C1965.94 278.673 1964.29 292.524 1962.53 307.185C1957.6 348.358 1951.47 399.601 1916.93 433.263C1908.34 441.703 1898.07 448.768 1886.41 454.255C1873.86 460.158 1859.26 464.441 1843.02 466.986C1831.3 468.818 1819.16 469.738 1806.44 469.738Z" fill="#FFE492"/>
<path d="M1826.27 474.532C1808.77 474.532 1790.24 472.631 1770.27 468.816C1742.01 463.418 1714.88 454.987 1690.95 447.55C1660.71 438.152 1629.71 427.21 1598.81 415.035C1573.97 405.214 1549.62 394.7 1526.44 383.793C1469.36 356.942 1420.59 324.048 1368.94 289.221C1360.5 283.528 1351.77 277.642 1343.11 271.855C1312.66 251.522 1286.66 234.756 1258.75 219.029C1202.51 187.381 1140.18 170.231 1073.5 168.055C989.711 165.32 899.961 185.308 806.748 227.463C760.442 248.406 714.847 274.08 678.365 299.759C650.881 319.105 629.395 340.164 606.649 362.458C603.831 365.22 601.002 367.992 598.155 370.766C593.084 375.716 586.372 382.24 579.443 388.78C550.285 416.369 512.19 444.774 450.741 446.226C448.825 446.268 446.901 446.288 444.981 446.288C396.997 446.288 348.009 433.529 297.892 419.284L294.763 418.388C269.94 411.269 246.49 404.546 224.784 399.653C142.985 381.211 63.875 365.644 4.09277 354.143L4.52148 353.136C64.3183 364.642 143.45 380.211 225.279 398.661C247.043 403.567 270.519 410.299 295.375 417.425L298.501 418.321C350.453 433.089 401.189 446.26 450.686 445.182C511.454 443.745 549.23 415.56 578.172 388.177C585.097 381.641 591.802 375.123 596.873 370.175C599.72 367.399 602.545 364.629 605.363 361.868C628.145 339.539 649.664 318.445 677.236 299.038C713.792 273.305 759.479 247.579 805.876 226.594C848.939 207.118 892.017 192.164 933.912 182.143C981.98 170.645 1028.97 165.554 1073.57 167.009C1140.6 169.195 1203.24 186.428 1259.75 218.225C1287.7 233.976 1313.72 250.759 1344.2 271.109C1352.86 276.896 1361.59 282.784 1370.04 288.478C1421.63 323.27 1470.37 356.132 1527.33 382.929C1550.48 393.824 1574.79 404.32 1599.6 414.127C1630.45 426.287 1661.4 437.212 1691.6 446.595C1739.01 461.328 1798.01 479.662 1856.73 471.408C1888.82 466.896 1912.87 455.932 1930.23 437.891C1964.11 402.919 1966.15 348.949 1967.79 305.584C1968.32 291.434 1968.83 278.068 1970.45 267.299L1970.48 267.052C1974.11 242.936 1977.85 218.001 1986.45 193.397C1993.89 171.937 2004.25 152.643 2017.25 136.047C2031.91 117.337 2049.98 102.016 2070.96 90.5078C2085 82.808 2099.86 76.691 2116.37 71.8097C2160.99 58.5442 2215.66 56.4962 2274.49 65.892C2298.16 69.673 2321.51 75.4011 2343.9 82.9139C2366.41 90.4709 2387.49 99.6846 2406.54 110.294C2449.57 134.223 2485.24 165.278 2512.56 202.598C2537.12 236.142 2554.26 274.408 2562.14 313.254L2560.6 313.394C2543.74 230.252 2487.23 156.518 2405.54 111.099C2367.35 89.826 2321.9 74.5445 2274.13 66.916C2215.64 57.5743 2161.31 59.6002 2117.01 72.7746C2100.62 77.619 2085.89 83.6868 2071.95 91.3251C2032.77 112.812 2003.73 148.193 1987.97 193.641C1979.4 218.18 1975.66 243.082 1972.04 267.163L1972 267.409C1970.39 278.139 1969.88 291.486 1969.35 305.616C1967.7 349.114 1965.66 403.247 1931.53 438.465C1923.16 447.164 1912.96 454.381 1901.23 459.915C1888.58 465.882 1873.72 470.093 1857.04 472.439C1847.11 473.833 1836.88 474.532 1826.27 474.532Z" fill="#FFE492"/>
<path d="M451.88 480.559C430.423 480.559 407.058 477.751 380.688 472.015C354.486 466.317 328.574 458.449 304.473 450.799C300.109 449.406 295.778 448.015 291.476 446.634C270.064 439.759 249.838 433.265 230.936 428.206C155.563 408.044 83.7188 389.921 14.238 372.4L2.72559 369.495L3.30449 368.459L14.8169 371.364C84.3014 388.89 156.157 407.012 231.544 427.18C250.498 432.251 270.749 438.752 292.187 445.637C296.485 447.018 300.816 448.409 305.176 449.799C354.651 465.504 407.215 480.724 458.197 479.368C520.866 477.615 558.422 444.817 584.136 416.442C590.724 409.186 597.07 401.954 601.863 396.464C604.508 393.439 607.135 390.416 609.755 387.401C631.483 362.403 652.005 338.792 678.994 316.529C714.62 287.148 760.262 257.279 807.521 232.429C851.365 209.374 895.608 191.159 939.026 178.289C988.828 163.527 1037.47 155.867 1083.6 155.52C1153.02 154.826 1217.5 170.87 1275.21 203.203C1307.21 221.148 1335.89 240.56 1359.74 257.183C1372.71 266.229 1385.69 275.502 1398.24 284.47C1442.66 316.217 1488.59 349.042 1540.1 375.629C1563.11 387.509 1587.27 399.019 1611.88 409.838C1642.35 423.197 1673.29 435.461 1703.85 446.287C1751.61 463.208 1811.05 484.266 1870.77 476.793C1903.64 472.68 1927.84 461.652 1944.74 443.079C1978.18 406.522 1975.92 349.596 1974.1 303.855C1973.57 290.328 1973.06 277.55 1973.67 267.263C1975.04 244.073 1977.11 217.121 1984.28 190.723C1990.33 168.354 1999.45 148.118 2011.4 130.577C2024.92 110.734 2042.25 94.0984 2062.89 81.1308C2076.57 72.5374 2091.9 65.2437 2108.45 59.4491C2132.06 51.1536 2158.57 45.9375 2187.22 43.9486C2214.06 42.0852 2242.35 43.0649 2271.32 46.8582C2295.74 50.0582 2319.82 55.3211 2342.88 62.504C2366.08 69.7312 2387.71 78.7356 2407.17 89.2663C2429.6 101.392 2450.22 115.711 2468.47 131.827C2485.75 147.096 2501.07 164.125 2514 182.44C2538.19 216.702 2554.11 255.758 2560.03 295.377L2558.39 295.488C2545.67 210.408 2490.18 135.559 2406.13 90.1303C2367.64 69.3004 2319.66 54.3192 2271 47.9462C2210.84 40.0667 2154.9 44.3843 2109.21 60.4313C2092.79 66.1791 2077.58 73.4162 2064.01 81.9406C2025.12 106.374 1998.83 143.04 1985.9 190.922C1978.75 217.249 1976.68 244.154 1975.31 267.308C1974.71 277.558 1975.21 290.316 1975.75 303.825C1976.64 326.39 1977.66 351.969 1974.26 376.695C1970.31 405.388 1961.12 427.291 1946.15 443.658C1938 452.613 1927.88 459.985 1916.07 465.568C1903.32 471.599 1888.18 475.742 1871.08 477.881C1862.45 478.962 1853.83 479.452 1845.26 479.452C1793.93 479.452 1744.2 461.832 1703.08 447.264C1672.48 436.421 1641.49 424.14 1610.99 410.761C1586.33 399.928 1562.14 388.4 1539.1 376.503C1487.48 349.862 1441.5 317.002 1397.04 285.225C1384.49 276.26 1371.52 266.99 1358.56 257.949C1334.74 241.345 1306.1 221.96 1274.16 204.05C1216.76 171.889 1152.66 155.938 1083.63 156.623C975.223 157.44 874.199 198.767 808.539 233.296C761.376 258.096 715.825 287.901 680.277 317.224C653.368 339.42 632.875 362.994 611.181 387.952C608.561 390.968 605.93 393.99 603.285 397.018C598.488 402.51 592.139 409.747 585.547 417.011C574.753 428.923 557.807 446.262 535.361 459.259C524.46 465.571 512.86 470.531 500.882 474.004C487.527 477.876 473.186 480.052 458.266 480.468C456.152 480.53 454.023 480.559 451.88 480.559Z" fill="#FFE492"/>
<path d="M458.769 514.83C437.287 514.83 413.969 511.805 387.738 505.631C360.58 499.241 333.73 490.256 311.05 482.308C304.081 479.861 297.127 477.38 290.4 474.979C271.596 468.272 253.833 461.933 237.085 456.759C176.94 438.174 117.187 420.03 59.3977 402.481C40.2825 396.677 20.5188 390.675 1.36328 384.846L2.08142 383.78C21.2369 389.609 41.0007 395.611 60.1159 401.415C117.905 418.964 177.665 437.111 237.814 455.698C254.606 460.887 272.391 467.23 291.217 473.948C297.94 476.348 304.895 478.827 311.856 481.274C358.895 497.752 413.456 515.194 465.701 513.553C529.847 511.49 565.876 475.676 590.102 444.707C596.313 436.773 602.318 428.808 606.854 422.755C609.184 419.648 611.5 416.544 613.812 413.447C634.594 385.595 654.223 359.288 680.757 334.024C715.269 301.167 760.875 267.161 809.167 238.269C876.42 198.207 980.364 149.339 1093.63 144.04C1165.67 140.579 1231.97 155.432 1290.69 188.191C1317.07 202.916 1343.15 219.901 1375.28 243.268C1391.52 255.077 1407.63 267.316 1423.21 279.148C1463.74 309.935 1505.65 341.771 1552.88 368.344C1575.75 381.22 1599.74 393.742 1624.17 405.563C1653.76 419.862 1684.68 433.465 1716.09 445.994C1764.34 465.123 1824.38 488.934 1884.82 482.194C1917.95 478.576 1942.99 467.166 1959.25 448.286C1992.22 410.075 1985.15 347.561 1979.98 301.916C1978.53 289.106 1977.16 277.007 1976.89 267.247C1976.29 245.555 1976.34 216.954 1982.12 188.067C1992.09 138.011 2016.55 98.8819 2054.81 71.7726C2068.22 62.2216 2083.61 53.9236 2100.52 47.1075C2124.59 37.399 2151.74 30.8685 2181.23 27.7004C2209.02 24.717 2238.26 24.7638 2268.14 27.8407C2293.36 30.4943 2318.16 35.3042 2341.85 42.1327C2365.78 49.03 2387.96 57.8179 2407.8 68.2525C2430.73 80.3093 2451.68 94.6776 2470.06 110.961C2487.49 126.393 2502.75 143.663 2515.44 162.297C2539.26 197.281 2553.94 237.124 2557.92 277.519L2556.18 277.595C2547.62 190.573 2493.15 114.607 2406.73 69.1756C2367.55 48.5648 2318.23 34.295 2267.88 28.9977C2205.81 22.6099 2148.25 29.2192 2101.42 48.1118C2084.64 54.8713 2069.39 63.1029 2056.08 72.5775C2018.07 99.5072 1993.77 138.415 1983.85 188.225C1978.09 217.033 1978.04 245.577 1978.63 267.227C1978.91 276.953 1980.27 289.037 1981.72 301.829C1984.39 325.424 1987.42 352.169 1985.69 378.279C1983.67 408.682 1975.52 431.774 1960.76 448.874C1952.82 458.098 1942.78 465.63 1930.91 471.263C1918.05 477.37 1902.64 481.436 1885.11 483.351C1857.92 486.382 1828.66 483.659 1795.65 475.026C1766.96 467.521 1739.47 456.621 1715.21 447.006C1683.76 434.459 1652.79 420.837 1623.16 406.518C1598.69 394.68 1574.67 382.141 1551.76 369.247C1504.44 342.62 1462.48 310.75 1421.9 279.931C1406.33 268.101 1390.23 255.869 1374.01 244.071C1341.93 220.745 1315.89 203.792 1289.57 189.101C1231.21 156.53 1165.33 141.765 1093.75 145.204C980.969 150.484 877.369 199.201 810.317 239.143C762.121 267.975 716.61 301.911 682.172 334.699C655.71 359.891 636.111 386.161 615.362 413.972C613.05 417.071 610.734 420.175 608.404 423.281C603.864 429.339 597.855 437.312 591.637 445.253C567.198 476.498 530.807 512.632 465.778 514.722C463.466 514.793 461.125 514.83 458.769 514.83Z" fill="#FFE492"/>
<path d="M465.796 549.102C407.099 549.102 345.51 524.883 290.912 503.411C274.135 496.814 258.288 490.581 243.229 485.311L0 400.196L0.846411 399.106L244.075 484.22C259.175 489.503 275.04 495.743 291.839 502.35C348.548 524.652 412.825 549.93 473.205 547.739C538.765 545.363 573.302 506.534 596.067 472.976C603.512 461.999 610.701 450.831 617.655 440.03C636.675 410.491 656.34 379.945 682.512 351.516C703.294 328.944 729.111 305.271 757.17 283.06C787.952 258.692 820.91 236.336 855.121 216.614C892.842 194.871 931.197 176.884 969.116 163.156C1011.06 147.973 1052.38 138.06 1091.93 133.691C1171.18 124.94 1243.25 138.22 1306.14 173.167C1358.41 202.207 1402.83 238.116 1445.79 272.844C1483.19 303.072 1521.85 334.327 1565.64 361.045C1616.21 391.903 1670.95 420.381 1728.33 445.684C1776.68 467.004 1836.85 493.54 1898.86 487.575C1951.24 482.539 1981.52 458.996 1991.43 415.599C1999.87 378.685 1991.84 334.896 1985.4 299.712C1983.2 287.722 1981.13 276.396 1980.11 267.212C1974.49 216.582 1978.07 174.787 1991.06 139.441C1999.16 117.388 2011.12 97.7297 2026.6 81.0131C2043.89 62.3396 2066.09 46.7725 2092.59 34.7452C2115.5 24.3401 2141.33 16.7831 2169.36 12.2833C2196.04 8.00014 2224.12 6.56504 2252.84 8.01738C2309.32 10.8728 2364.57 24.7955 2408.41 47.2181C2431.84 59.2035 2453.12 73.6234 2471.65 90.0742C2489.21 105.666 2504.42 123.18 2516.86 142.134C2540.3 177.839 2553.76 218.473 2555.79 259.638L2553.96 259.68C2549.64 172.018 2494.81 92.9592 2407.3 48.2002C2314.36 0.66709 2182.43 -4.56376 2093.6 35.7668C2005.61 75.7182 1969.08 151.395 1981.93 267.121C1982.94 276.276 1985.02 287.587 1987.21 299.562C1993.67 334.822 2001.71 378.704 1993.24 415.786C1988.62 435.983 1979.35 452.215 1965.67 464.033C1957.97 470.676 1948.7 476.107 1938.1 480.168C1926.82 484.491 1913.7 487.393 1899.12 488.796C1893.16 489.37 1887.09 489.658 1880.93 489.658C1858.45 489.658 1834.52 485.84 1808.29 478.106C1778.74 469.392 1750.23 456.818 1727.32 446.715C1669.86 421.376 1615.05 392.861 1564.4 361.958C1520.51 335.184 1481.81 303.892 1444.37 273.632C1401.47 238.948 1357.1 203.083 1304.96 174.117C1242.49 139.409 1170.92 126.215 1092.22 134.907C933.032 152.488 769.053 259.852 684.058 352.166C657.956 380.516 638.317 411.02 619.322 440.52C612.364 451.326 605.172 462.502 597.719 473.488C582.605 495.767 567.678 511.721 550.743 523.689C540.172 531.158 528.704 537.046 516.657 541.188C503.261 545.794 488.671 548.413 473.289 548.972C470.805 549.058 468.302 549.102 465.796 549.102Z" fill="#FFE492"/>
</g>
</svg>
